<svg xmlns="http://www.w3.org/2000/svg" width="1180" height="320" viewBox="0 0 1180 320"><defs>
  <linearGradient id="ringTop" x1="0" y1="0" x2="0" y2="1">
    <stop offset="0" stop-color="#93B7FF"/><stop offset="1" stop-color="#3D7DFF"/>
  </linearGradient>
  <linearGradient id="ringBot" x1="0" y1="0" x2="0" y2="1">
    <stop offset="0" stop-color="#3D7DFF"/><stop offset="1" stop-color="#2E4E8C"/>
  </linearGradient>
  <linearGradient id="wedge" x1="0" y1="0" x2="1" y2="0">
    <stop offset="0" stop-color="#2E4E8C"/><stop offset="1" stop-color="#93B7FF"/>
  </linearGradient>
</defs><rect width="1180" height="320" fill="#FFFFFF"/><g transform="translate(90,70.0) scale(1.8)"><g><rect x="29.00" y="45.00" width="42.00" height="42.00" rx="13.00" fill="none" stroke="url(#ringBot)" stroke-width="9"/><rect x="29.00" y="13.00" width="42.00" height="42.00" rx="13.00" fill="none" stroke="url(#ringTop)" stroke-width="9"/><rect x="41.00" y="41.00" width="18.00" height="18.00" rx="5.00" fill="#93B7FF" /><rect x="44.50" y="9.50" width="11.00" height="11.00" rx="3.00" fill="#93B7FF" /><rect x="44.50" y="79.50" width="11.00" height="11.00" rx="3.00" fill="#2E4E8C" /></g></g><g transform="translate(340,218.39999999999998)"><path d="M78.7999267578125 0V710H213.2001953125V388.68017578125L487.3199462890625 710H646.0402221679688L380.80029296875 398.03997802734375L662.8402099609375 0H508.5599365234375L292.0001220703125 306.31982421875L213.2001953125 216.31988525390625V0Z" fill="#0B1220" transform="translate(0.00,0.00) scale(0.1900,-0.1900)"/><path d="M331.998779296875 -16Q241.599365234375 -16 174.59967041015625 7.70001220703125Q107.5999755859375 31.4000244140625 70.80010986328125 78.10003662109375Q34.000244140625 124.800048828125 34.000244140625 193.2000732421875Q34.000244140625 272.5999755859375 83.90008544921875 324.2999267578125Q133.7999267578125 375.9998779296875 217.599609375 390.4000244140625L219.599609375 369.800048828125Q150.199951171875 383.2001953125 109.40008544921875 425.00006103515625Q68.6002197265625 466.7999267578125 68.6002197265625 531Q68.6002197265625 588.7999267578125 99.20013427734375 632.7999267578125Q129.800048828125 676.7999267578125 188.5997314453125 701.3999633789062Q247.3994140625 726 331.998779296875 726Q416.59814453125 726 475.59783935546875 701.3999633789062Q534.5975341796875 676.7999267578125 564.9974365234375 632.7999267578125Q595.3973388671875 588.7999267578125 595.3973388671875 531Q595.3973388671875 466.7999267578125 554.7974853515625 425.60003662109375Q514.1976318359375 384.400146484375 444.39794921875 369.800048828125L446.39794921875 390.4000244140625Q530.59765625 375.39990234375 580.2974853515625 323.99993896484375Q629.997314453125 272.5999755859375 629.997314453125 193.2000732421875Q629.997314453125 124.800048828125 593.4974365234375 78.10003662109375Q556.99755859375 31.4000244140625 490.1978759765625 7.70001220703125Q423.398193359375 -16 331.998779296875 -16ZM331.998779296875 112.398193359375Q395.9993896484375 112.398193359375 434.69970703125 139.4984130859375Q473.4000244140625 166.5986328125 473.4000244140625 216.1993408203125Q473.4000244140625 264.9998779296875 436.6998291015625 294.7001953125Q399.9996337890625 324.4005126953125 331.998779296875 324.4005126953125Q264.39794921875 324.4005126953125 227.49774169921875 294.7001953125Q190.5975341796875 264.9998779296875 190.5975341796875 216.1993408203125Q190.5975341796875 166.5986328125 229.2978515625 139.4984130859375Q267.9981689453125 112.398193359375 331.998779296875 112.398193359375ZM331.998779296875 430.7994384765625Q382.9993896484375 430.7994384765625 411.7996826171875 451.499755859375Q440.5999755859375 472.2000732421875 440.5999755859375 514.8006591796875Q440.5999755859375 553.201171875 413.09967041015625 576.00146484375Q385.599365234375 598.8017578125 331.998779296875 598.8017578125Q279.398193359375 598.8017578125 251.39788818359375 576.00146484375Q223.3975830078125 553.201171875 223.3975830078125 514.8006591796875Q223.3975830078125 472.2000732421875 252.1978759765625 451.499755859375Q280.9981689453125 430.7994384765625 331.998779296875 430.7994384765625Z" fill="#3D7DFF" transform="translate(128.44,0.00) scale(0.1900,-0.1900)"/><path d="M278.759033203125 -12Q202.2396240234375 -12 151.139892578125 11.079986572265625Q100.0401611328125 34.15997314453125 73.06024169921875 74.73995971679688Q46.080322265625 115.3199462890625 42.080322265625 167.47991943359375L147.19744873046875 173.3199462890625Q154.87750244140625 127.8795166015625 184.45782470703125 101.45916748046875Q214.03814697265625 75.038818359375 278.91900634765625 75.038818359375Q329.2396240234375 75.038818359375 356.5 91.41900634765625Q383.7603759765625 107.7991943359375 383.7603759765625 143.5997314453125Q383.7603759765625 163.47991943359375 374.6603088378906 176.6800537109375Q365.56024169921875 189.88018798828125 338.9200134277344 199.82028198242188Q312.27978515625 209.7603759765625 260.83935546875 219.1204833984375Q184.11981201171875 233.28045654296875 140.60006713867188 254.1204833984375Q97.080322265625 274.96051025390625 79.4404296875 305.3604431152344Q61.800537109375 335.7603759765625 61.800537109375 379.0401611328125Q61.800537109375 451.639892578125 116.30020141601562 497.61981201171875Q170.79986572265625 543.5997314453125 272.87884521484375 543.5997314453125Q345.75836181640625 543.5997314453125 392.17803955078125 519.1797180175781Q438.59771728515625 494.75970458984375 462.55755615234375 455.0398254394531Q486.51739501953125 415.3199462890625 491.19744873046875 369.7603759765625L386.56024169921875 363.7603759765625Q384.88018798828125 388.7603759765625 372.6000671386719 409.96051025390625Q360.3199462890625 431.16064453125 335.919677734375 443.86077880859375Q311.5194091796875 456.5609130859375 270.87884521484375 456.5609130859375Q218.51806640625 456.5609130859375 193.03781127929688 436.0806579589844Q167.55755615234375 415.60040283203125 167.55755615234375 383.360107421875Q167.55755615234375 359.11981201171875 177.57763671875 343.6596374511719Q187.59771728515625 328.199462890625 212.73794555664062 318.4193420410156Q237.878173828125 308.63922119140625 281.318603515625 301.27911376953125Q361.07830810546875 288.59906005859375 406.67803955078125 268.27911376953125Q452.27777099609375 247.95916748046875 470.8975830078125 217.6593017578125Q489.51739501953125 187.35943603515625 489.51739501953125 144.2396240234375Q489.51739501953125 69.79986572265625 431.09771728515625 28.899932861328125Q372.67803955078125 -12 278.759033203125 -12Z" fill="#5C6E8A" transform="translate(254.60,0.00) scale(0.1900,-0.1900)"/><path d="M529.2376098632812 -150H427.64056396484375V113.6800537109375L439.800537109375 101.27978515625Q430.32061767578125 66.79986572265625 405.82061767578125 41.47991943359375Q381.32061767578125 16.15997314453125 346.2205505371094 2.079986572265625Q311.1204833984375 -12 270.60040283203125 -12Q192.72021484375 -12 142.22021484375 26.52008056640625Q91.72021484375 65.0401611328125 66.9002685546875 128.20013427734375Q42.080322265625 191.360107421875 42.080322265625 265.79986572265625Q42.080322265625 340.39959716796875 66.82028198242188 403.4795837402344Q91.56024169921875 466.5595703125 141.98025512695312 505.07965087890625Q192.4002685546875 543.5997314453125 270.28045654296875 543.5997314453125Q331.96051025390625 543.5997314453125 378.14056396484375 513.0197448730469Q424.32061767578125 482.43975830078125 443.32061767578125 423.5997314453125L431.16064453125 417.75970458984375L433.4805908203125 531.5997314453125H529.2376098632812ZM287.39892578125 77.43841552734375Q331.5194091796875 77.43841552734375 362.77978515625 98.47857666015625Q394.0401611328125 119.51873779296875 410.8403625488281 161.59906005859375Q427.64056396484375 203.67938232421875 427.64056396484375 265.79986572265625Q427.64056396484375 327.92034912109375 410.42034912109375 370.00067138671875Q393.20013427734375 412.08099365234375 361.8597717285156 433.12115478515625Q330.5194091796875 454.16131591796875 287.39892578125 454.16131591796875Q222.71820068359375 454.16131591796875 185.27777099609375 404.3209533691406Q147.83734130859375 354.4805908203125 147.83734130859375 265.79986572265625Q147.83734130859375 177.119140625 185.27777099609375 127.27877807617188Q222.71820068359375 77.43841552734375 287.39892578125 77.43841552734375Z" fill="#5C6E8A" transform="translate(355.87,0.00) scale(0.1900,-0.1900)"/><path d="M250.800537109375 -12Q170.8406982421875 -12 123.50067138671875 41.5Q76.16064453125 95 76.16064453125 189.47991943359375V531.5997314453125H177.7576904296875V215.83935546875Q177.7576904296875 142.83868408203125 203.09805297851562 108.4183349609375Q228.43841552734375 73.99798583984375 281.119140625 73.99798583984375Q339.639892578125 73.99798583984375 372.7603759765625 112.098388671875Q405.880859375 150.19879150390625 405.880859375 219.119140625V531.5997314453125H507.4779052734375V0H412.4404296875L411.32061767578125 137.23895263671875L425.7603759765625 131.038818359375Q411.0401611328125 61.8795166015625 366.0401611328125 24.93975830078125Q321.0401611328125 -12 250.800537109375 -12Z" fill="#5C6E8A" transform="translate(470.82,0.00) scale(0.1900,-0.1900)"/><path d="M223.639892578125 -12Q141.15997314453125 -12 91.62014770507812 26.15997314453125Q42.080322265625 64.3199462890625 42.080322265625 132.639892578125Q42.080322265625 201.27978515625 83.28012084960938 240.19979858398438Q124.47991943359375 279.11981201171875 211.639892578125 295.5997314453125L395.4805908203125 330.43975830078125Q395.4805908203125 393.4404296875 366.1402282714844 424.68072509765625Q336.79986572265625 455.9210205078125 278.759033203125 455.9210205078125Q227.11846923828125 455.9210205078125 197.27810668945312 432.7008056640625Q167.437744140625 409.4805908203125 156.55755615234375 365.72021484375L51.080322265625 372.56024169921875Q66.24029541015625 451.2396240234375 125.57998657226562 497.419677734375Q184.919677734375 543.5997314453125 278.759033203125 543.5997314453125Q385.5582275390625 543.5997314453125 441.31793212890625 486.1797180175781Q497.07763671875 428.75970458984375 497.07763671875 325.360107421875V116.11846923828125Q497.07763671875 96.83868408203125 503.8975830078125 89.25869750976562Q510.717529296875 81.6787109375 525.717529296875 81.6787109375H545.1177978515625V0Q540.3179321289062 -1.3199462890625 529.5582275390625 -2.139892578125Q518.7985229492188 -2.9598388671875 507.3587646484375 -2.9598388671875Q472.47857666015625 -2.9598388671875 448.6188049316406 8.300201416015625Q424.759033203125 19.56024169921875 412.99932861328125 44.70013427734375Q401.2396240234375 69.84002685546875 401.2396240234375 112.2396240234375L411.8795166015625 108Q404.2396240234375 73.52008056640625 377.5595703125 46.100067138671875Q350.8795166015625 18.6800537109375 310.7995300292969 3.34002685546875Q270.71954345703125 -12 223.639892578125 -12ZM238.9986572265625 69.6787109375Q287.83935546875 69.6787109375 322.77978515625 88.65896606445312Q357.72021484375 107.63922119140625 376.60040283203125 141.0595703125Q395.4805908203125 174.47991943359375 395.4805908203125 217.0401611328125V251.8406982421875L236.9183349609375 221.4404296875Q187.55755615234375 212.080322265625 167.69744873046875 192.70013427734375Q147.83734130859375 173.3199462890625 147.83734130859375 142.2396240234375Q147.83734130859375 107.7991943359375 172.01773071289062 88.73895263671875Q196.1981201171875 69.6787109375 238.9986572265625 69.6787109375Z" fill="#5C6E8A" transform="translate(581.78,0.00) scale(0.1900,-0.1900)"/><path d="M264.96051025390625 -12Q196.28045654296875 -12 146.10040283203125 22.079986572265625Q95.92034912109375 56.15997314453125 69.00033569335938 118.39993286132812Q42.080322265625 180.639892578125 42.080322265625 265.79986572265625Q42.080322265625 350.9598388671875 69.080322265625 413.1997985839844Q96.080322265625 475.43975830078125 146.34036254882812 509.5197448730469Q196.60040283203125 543.5997314453125 264.96051025390625 543.5997314453125Q319.080322265625 543.5997314453125 362.4404296875 520.8597717285156Q405.800537109375 498.11981201171875 427.64056396484375 456.9598388671875V710H529.2376098632812V0H435.16064453125L432.16064453125 79.6800537109375Q410.16064453125 36.6800537109375 365.5605773925781 12.34002685546875Q320.96051025390625 -12 264.96051025390625 -12ZM290.59906005859375 77.43841552734375Q334.71954345703125 77.43841552734375 365.2198791503906 99.9986572265625Q395.72021484375 122.55889892578125 411.6803894042969 164.979248046875Q427.64056396484375 207.39959716796875 427.64056396484375 265.79986572265625Q427.64056396484375 325.88018798828125 411.6803894042969 367.8805236816406Q395.72021484375 409.880859375 365.2198791503906 432.0210876464844Q334.71954345703125 454.16131591796875 290.59906005859375 454.16131591796875Q225.23828125 454.16131591796875 186.53781127929688 403.90093994140625Q147.83734130859375 353.64056396484375 147.83734130859375 265.79986572265625Q147.83734130859375 179.119140625 186.6177978515625 128.27877807617188Q225.39825439453125 77.43841552734375 290.59906005859375 77.43841552734375Z" fill="#5C6E8A" transform="translate(688.75,0.00) scale(0.1900,-0.1900)"/></g><path d="M244.27984619140625 0V288.07958984375L-6.1600341796875 710H104.641845703125L291.76080322265625 384.081298828125L478.7197265625 710H589.5216064453125L339.1617431640625 288.07958984375V0Z" fill="#8794AC" transform="translate(340.00,276.40) scale(0.0340,-0.0340)"/><path d="M289.96063232421875 -12Q215.7603759765625 -12 159.92019653320312 22.08001708984375Q104.08001708984375 56.1600341796875 73.55990600585938 118.74005126953125Q43.039794921875 181.320068359375 43.039794921875 265.40008544921875Q43.039794921875 350.40008544921875 73.55990600585938 412.4801025390625Q104.08001708984375 474.56011962890625 159.92019653320312 508.6801452636719Q215.7603759765625 542.8001708984375 289.96063232421875 542.8001708984375Q364.160888671875 542.8001708984375 419.54107666015625 508.6801452636719Q474.9212646484375 474.56011962890625 505.4413757324219 412.4801025390625Q535.9614868164062 350.40008544921875 535.9614868164062 265.40008544921875Q535.9614868164062 181.320068359375 505.4413757324219 118.74005126953125Q474.9212646484375 56.1600341796875 419.54107666015625 22.08001708984375Q364.160888671875 -12 289.96063232421875 -12ZM289.96063232421875 72.72100830078125Q360.72015380859375 72.72100830078125 399.8998718261719 123.98074340820312Q439.07958984375 175.240478515625 439.07958984375 265.40008544921875Q439.07958984375 355.47967529296875 399.8998718261719 406.7794189453125Q360.72015380859375 458.07916259765625 289.96063232421875 458.07916259765625Q219.20111083984375 458.07916259765625 179.5614013671875 406.7794189453125Q139.92169189453125 355.47967529296875 139.92169189453125 265.40008544921875Q139.92169189453125 175.240478515625 179.5614013671875 123.98074340820312Q219.20111083984375 72.72100830078125 289.96063232421875 72.72100830078125Z" fill="#8794AC" transform="translate(359.82,276.40) scale(0.0340,-0.0340)"/><path d="M252.399658203125 -12Q172.9195556640625 -12 125.49957275390625 41.5Q78.07958984375 95 78.07958984375 189.24005126953125V530.8001708984375H170.8814697265625V213.92041015625Q170.8814697265625 138.92083740234375 197.30123901367188 103.4610595703125Q223.72100830078125 68.00128173828125 278.560546875 68.00128173828125Q339.320068359375 68.00128173828125 373.8797607421875 107.301025390625Q408.439453125 146.60076904296875 408.439453125 216.560546875V530.8001708984375H501.2413330078125V0H413.7197265625L413.15960693359375 134.12066650390625L426.8797607421875 127.520751953125Q411.5198974609375 60.4403076171875 366.5198974609375 24.22015380859375Q321.5198974609375 -12 252.399658203125 -12Z" fill="#8794AC" transform="translate(379.51,276.40) scale(0.0340,-0.0340)"/><path d="M78.07958984375 0V530.8001708984375H161.2015380859375L165.361572265625 393.9195556640625L156.8814697265625 396.83953857421875Q167.28155517578125 466.59991455078125 200.74154663085938 498.7000427246094Q234.2015380859375 530.8001708984375 290.5216064453125 530.8001708984375H342.04150390625V444.87890625H291.28155517578125Q251.04150390625 444.87890625 224.46148681640625 430.8590087890625Q197.8814697265625 416.839111328125 184.3814697265625 388.9392395019531Q170.8814697265625 361.03936767578125 170.8814697265625 317.51947021484375V0Z" fill="#8794AC" transform="translate(399.19,276.40) scale(0.0340,-0.0340)"/><path d="" fill="#8794AC" transform="translate(412.28,276.40) scale(0.0340,-0.0340)"/><path d="M223.320068359375 -12Q141.08001708984375 -12 92.05990600585938 26.08001708984375Q43.039794921875 64.1600341796875 43.039794921875 132.320068359375Q43.039794921875 200.64013671875 83.63992309570312 239.60012817382812Q124.24005126953125 278.56011962890625 211.320068359375 294.8001708984375L397.2396240234375 329.72015380859375Q397.2396240234375 394.7197265625 366.8198547363281 426.83953857421875Q336.40008544921875 458.9593505859375 275.880615234375 458.9593505859375Q222.56097412109375 458.9593505859375 191.64120483398438 435.0994873046875Q160.721435546875 411.2396240234375 149.28155517578125 366.35986328125L52.039794921875 373.27984619140625Q67.11981201171875 450.1202392578125 125.54000854492188 496.460205078125Q183.960205078125 542.8001708984375 275.880615234375 542.8001708984375Q380.2811279296875 542.8001708984375 435.16131591796875 485.3401794433594Q490.04150390625 427.88018798828125 490.04150390625 325.679931640625V111.56097412109375Q490.04150390625 92.92083740234375 496.7015380859375 85.38082885742188Q503.361572265625 77.8408203125 518.361572265625 77.8408203125H538.5614013671875V0Q534.1613159179688 -1.1600341796875 524.2811279296875 -1.820068359375Q514.4009399414062 -2.4801025390625 503.6807861328125 -2.4801025390625Q468.24090576171875 -2.4801025390625 445.0607604980469 8.899871826171875Q421.880615234375 20.27984619140625 411.00042724609375 45.09991455078125Q400.1202392578125 69.91998291015625 400.1202392578125 111.1202392578125L410.4403076171875 108Q403.1202392578125 73.75994873046875 376.2802734375 46.299957275390625Q349.4403076171875 18.8399658203125 309.4002990722656 3.41998291015625Q269.36029052734375 -12 223.320068359375 -12ZM235.0008544921875 65.8408203125Q285.92041015625 65.8408203125 322.14013671875 85.58065795898438Q358.35986328125 105.32049560546875 377.79974365234375 139.7802734375Q397.2396240234375 174.24005126953125 397.2396240234375 217.5198974609375V253.9195556640625L231.9610595703125 222.7197265625Q180.28155517578125 213.039794921875 160.10162353515625 193.09991455078125Q139.92169189453125 173.1600341796875 139.92169189453125 141.1202392578125Q139.92169189453125 105.4005126953125 165.26144409179688 85.62066650390625Q190.6011962890625 65.8408203125 235.0008544921875 65.8408203125Z" fill="#8794AC" transform="translate(420.68,276.40) scale(0.0340,-0.0340)"/><path d="M284.3607177734375 -162Q224.72015380859375 -162 177.95999145507812 -143.0Q131.1998291015625 -124 100.27984619140625 -89.12002563476562Q69.35986328125 -54.24005126953125 58.1998291015625 -8.4801025390625L155.001708984375 -1.8399658203125Q166.5216064453125 -37.399658203125 195.9013671875 -58.01947021484375Q225.2811279296875 -78.6392822265625 284.3607177734375 -78.6392822265625Q353.88018798828125 -78.6392822265625 391.0599060058594 -50.119384765625Q428.2396240234375 -21.5994873046875 428.2396240234375 36.0804443359375V118.31964111328125Q409.2396240234375 76.95977783203125 367.2396240234375 52.27984619140625Q325.2396240234375 27.59991455078125 273.2396240234375 27.59991455078125Q206.399658203125 27.59991455078125 154.09970092773438 60.5198974609375Q101.79974365234375 93.43988037109375 72.41976928710938 151.5198974609375Q43.039794921875 209.59991455078125 43.039794921875 285.08001708984375Q43.039794921875 361.24005126953125 71.95977783203125 418.9400939941406Q100.8797607421875 476.64013671875 152.25973510742188 509.72015380859375Q203.63970947265625 542.8001708984375 269.5596923828125 542.8001708984375Q325.95977783203125 542.8001708984375 369.9396667480469 516.8001708984375Q413.9195556640625 490.8001708984375 432.2396240234375 446.960205078125V530.8001708984375H521.2015380859375V38.240478515625Q521.2015380859375 -25.039794921875 492.5213928222656 -69.97988891601562Q463.84124755859375 -114.91998291015625 410.9210510253906 -138.45999145507812Q358.0008544921875 -162 284.3607177734375 -162ZM282.44073486328125 111.6807861328125Q348.2802734375 111.6807861328125 387.8799743652344 158.18057250976562Q427.47967529296875 204.68035888671875 428.399658203125 285.24005126953125Q429.31964111328125 339.1998291015625 411.45977783203125 377.9396667480469Q393.59991455078125 416.67950439453125 360.3001708984375 437.7394104003906Q327.00042724609375 458.79931640625 282.44073486328125 458.79931640625Q214.6011962890625 458.79931640625 177.26144409179688 412.1394958496094Q139.92169189453125 365.47967529296875 139.92169189453125 285.24005126953125Q139.92169189453125 204.92041015625 178.26144409179688 158.30059814453125Q216.6011962890625 111.6807861328125 282.44073486328125 111.6807861328125Z" fill="#8794AC" transform="translate(439.62,276.40) scale(0.0340,-0.0340)"/><path d="M289.7205810546875 -12Q213.7603759765625 -12 158.42019653320312 22.08001708984375Q103.08001708984375 56.1600341796875 73.05990600585938 118.74005126953125Q43.039794921875 181.320068359375 43.039794921875 265.40008544921875Q43.039794921875 349.4801025390625 73.05990600585938 411.56011962890625Q103.08001708984375 473.64013671875 157.50021362304688 508.22015380859375Q211.92041015625 542.8001708984375 286.0406494140625 542.8001708984375Q356.48095703125 542.8001708984375 410.3211364746094 509.9801025390625Q464.16131591796875 477.1600341796875 494.0213928222656 414.75994873046875Q523.8814697265625 352.35986328125 523.8814697265625 263.1998291015625V237.47967529296875H140.001708984375Q144.76165771484375 155.36029052734375 184.0614013671875 113.92062377929688Q223.36114501953125 72.48095703125 290.0406494140625 72.48095703125Q340.20025634765625 72.48095703125 372.6600341796875 95.90072631835938Q405.11981201171875 119.32049560546875 417.79974365234375 158.36029052734375L515.9614868164062 151.1202392578125Q494.8814697265625 78.8399658203125 435.1412048339844 33.41998291015625Q375.40093994140625 -12 289.7205810546875 -12ZM140.001708984375 313.88018798828125H423.7197265625Q418.11981201171875 388.47967529296875 380.7800598144531 423.5594787597656Q343.4403076171875 458.6392822265625 286.0406494140625 458.6392822265625Q226.9610595703125 458.6392822265625 188.66131591796875 422.0594787597656Q150.361572265625 385.47967529296875 140.001708984375 313.88018798828125Z" fill="#8794AC" transform="translate(459.99,276.40) scale(0.0340,-0.0340)"/><path d="M78.07958984375 0V530.8001708984375H162.84124755859375L166.2413330078125 392.83953857421875L155.12109375 401.2794189453125Q164.801025390625 450.039794921875 189.76101684570312 481.25994873046875Q214.72100830078125 512.4801025390625 250.38104248046875 527.64013671875Q286.04107666015625 542.8001708984375 327.441162109375 542.8001708984375Q388.04107666015625 542.8001708984375 427.70111083984375 516.0402221679688Q467.36114501953125 489.2802734375 487.1412048339844 443.7802734375Q506.9212646484375 398.2802734375 506.9212646484375 341.4801025390625V0H414.119384765625V314.03936767578125Q414.119384765625 362.23919677734375 403.17950439453125 395.25909423828125Q392.2396240234375 428.27899169921875 368.1598205566406 445.5389404296875Q344.08001708984375 462.79888916015625 305.20025634765625 462.79888916015625Q246.12066650390625 462.79888916015625 208.50106811523438 424.8190002441406Q170.8814697265625 386.839111328125 170.8814697265625 314.03936767578125V0Z" fill="#8794AC" transform="translate(479.26,276.40) scale(0.0340,-0.0340)"/><path d="M275.92041015625 0Q202.40008544921875 0 167.29995727539062 33.760162353515625Q132.1998291015625 67.52032470703125 132.1998291015625 139.3607177734375V655.0402221679688H225.001708984375V143.441162109375Q225.001708984375 107.12109375 241.04171752929688 93.08108520507812Q257.08172607421875 79.04107666015625 290.1617431640625 79.04107666015625H366.001708984375V0ZM53.07958984375 451.75909423828125V530.8001708984375H366.001708984375V451.75909423828125Z" fill="#8794AC" transform="translate(499.15,276.40) scale(0.0340,-0.0340)"/><path d="M275.880615234375 -12Q201.1202392578125 -12 150.820068359375 11.040008544921875Q100.5198974609375 34.08001708984375 73.77984619140625 74.62002563476562Q47.039794921875 115.1600341796875 43.039794921875 167.24005126953125L139.60162353515625 173.1600341796875Q147.44158935546875 126.4403076171875 177.98138427734375 98.98052978515625Q208.52117919921875 71.520751953125 275.96063232421875 71.520751953125Q328.1202392578125 71.520751953125 356.5 88.46063232421875Q384.8797607421875 105.4005126953125 384.8797607421875 142.8001708984375Q384.8797607421875 163.24005126953125 375.5798034667969 176.8399658203125Q366.27984619140625 190.43988037109375 338.9599914550781 200.65982055664062Q311.64013671875 210.8797607421875 258.92041015625 220.5596923828125Q183.56011962890625 234.63970947265625 140.79995727539062 255.5596923828125Q98.039794921875 276.47967529296875 80.7197265625 306.6797180175781Q63.399658203125 336.8797607421875 63.399658203125 379.5198974609375Q63.399658203125 451.320068359375 116.89987182617188 497.06011962890625Q170.40008544921875 542.8001708984375 269.44073486328125 542.8001708984375Q340.88104248046875 542.8001708984375 386.34124755859375 518.3401794433594Q431.80145263671875 493.88018798828125 455.28155517578125 454.5201110839844Q478.76165771484375 415.1600341796875 483.60162353515625 370.8797607421875L387.27984619140625 364.8797607421875Q385.43988037109375 389.8797607421875 372.7999572753906 411.47967529296875Q360.1600341796875 433.07958984375 334.960205078125 446.17950439453125Q309.7603759765625 459.2794189453125 267.44073486328125 459.2794189453125Q212.76123046875 459.2794189453125 186.52139282226562 438.0395812988281Q160.28155517578125 416.79974365234375 160.28155517578125 383.679931640625Q160.28155517578125 358.56011962890625 170.54150390625 342.5802307128906Q180.80145263671875 326.600341796875 206.62130737304688 316.4604187011719Q232.441162109375 306.32049560546875 277.160888671875 298.64056396484375Q356.04107666015625 285.80059814453125 400.84124755859375 265.64056396484375Q445.64141845703125 245.48052978515625 463.7015380859375 215.5804443359375Q481.76165771484375 185.68035888671875 481.76165771484375 143.1202392578125Q481.76165771484375 69.40008544921875 424.30145263671875 28.700042724609375Q366.84124755859375 -12 275.880615234375 -12Z" fill="#8794AC" transform="translate(512.72,276.40) scale(0.0340,-0.0340)"/><path d="M47.1600341796875 -156.320068359375 95.960205078125 0H43.039794921875V118.36114501953125H162.68121337890625V14.320068359375L101.40093994140625 -156.320068359375Z" fill="#8794AC" transform="translate(530.64,276.40) scale(0.0340,-0.0340)"/><path d="" fill="#8794AC" transform="translate(537.64,276.40) scale(0.0340,-0.0340)"/><path d="M78.07958984375 0V530.8001708984375H170.8814697265625V0ZM75.99957275390625 611.4796752929688V712.5203247070312H172.96148681640625V611.4796752929688Z" fill="#8794AC" transform="translate(546.04,276.40) scale(0.0340,-0.0340)"/><path d="M78.07958984375 0V530.8001708984375H162.84124755859375L166.2413330078125 392.83953857421875L155.12109375 401.2794189453125Q164.801025390625 450.039794921875 189.76101684570312 481.25994873046875Q214.72100830078125 512.4801025390625 250.38104248046875 527.64013671875Q286.04107666015625 542.8001708984375 327.441162109375 542.8001708984375Q388.04107666015625 542.8001708984375 427.70111083984375 516.0402221679688Q467.36114501953125 489.2802734375 487.1412048339844 443.7802734375Q506.9212646484375 398.2802734375 506.9212646484375 341.4801025390625V0H414.119384765625V314.03936767578125Q414.119384765625 362.23919677734375 403.17950439453125 395.25909423828125Q392.2396240234375 428.27899169921875 368.1598205566406 445.5389404296875Q344.08001708984375 462.79888916015625 305.20025634765625 462.79888916015625Q246.12066650390625 462.79888916015625 208.50106811523438 424.8190002441406Q170.8814697265625 386.839111328125 170.8814697265625 314.03936767578125V0Z" fill="#8794AC" transform="translate(554.51,276.40) scale(0.0340,-0.0340)"/><path d="" fill="#8794AC" transform="translate(574.40,276.40) scale(0.0340,-0.0340)"/><path d="M130.9025114155251 0V573.3107305936073Q130.9025114155251 635.0045662100457 166.09977168949771 672.5022831050228Q201.29703196347032 710 275.79132420091327 710H363.88196347031965V630.9116438356165H285.38310502283105Q254.38310502283105 630.9116438356165 239.08264840182648 614.1111872146118Q223.7821917808219 597.3107305936073 223.7821917808219 567.2109589041096V0ZM58.10433789954338 451.7098173515982V530.7981735159817H356.7821917808219V451.7098173515982Z" fill="#8794AC" transform="translate(582.79,276.40) scale(0.0340,-0.0340)"/><path d="M289.96063232421875 -12Q215.7603759765625 -12 159.92019653320312 22.08001708984375Q104.08001708984375 56.1600341796875 73.55990600585938 118.74005126953125Q43.039794921875 181.320068359375 43.039794921875 265.40008544921875Q43.039794921875 350.40008544921875 73.55990600585938 412.4801025390625Q104.08001708984375 474.56011962890625 159.92019653320312 508.6801452636719Q215.7603759765625 542.8001708984375 289.96063232421875 542.8001708984375Q364.160888671875 542.8001708984375 419.54107666015625 508.6801452636719Q474.9212646484375 474.56011962890625 505.4413757324219 412.4801025390625Q535.9614868164062 350.40008544921875 535.9614868164062 265.40008544921875Q535.9614868164062 181.320068359375 505.4413757324219 118.74005126953125Q474.9212646484375 56.1600341796875 419.54107666015625 22.08001708984375Q364.160888671875 -12 289.96063232421875 -12ZM289.96063232421875 72.72100830078125Q360.72015380859375 72.72100830078125 399.8998718261719 123.98074340820312Q439.07958984375 175.240478515625 439.07958984375 265.40008544921875Q439.07958984375 355.47967529296875 399.8998718261719 406.7794189453125Q360.72015380859375 458.07916259765625 289.96063232421875 458.07916259765625Q219.20111083984375 458.07916259765625 179.5614013671875 406.7794189453125Q139.92169189453125 355.47967529296875 139.92169189453125 265.40008544921875Q139.92169189453125 175.240478515625 179.5614013671875 123.98074340820312Q219.20111083984375 72.72100830078125 289.96063232421875 72.72100830078125Z" fill="#8794AC" transform="translate(596.46,276.40) scale(0.0340,-0.0340)"/><path d="M78.07958984375 0V530.8001708984375H161.2015380859375L165.361572265625 393.9195556640625L156.8814697265625 396.83953857421875Q167.28155517578125 466.59991455078125 200.74154663085938 498.7000427246094Q234.2015380859375 530.8001708984375 290.5216064453125 530.8001708984375H342.04150390625V444.87890625H291.28155517578125Q251.04150390625 444.87890625 224.46148681640625 430.8590087890625Q197.8814697265625 416.839111328125 184.3814697265625 388.9392395019531Q170.8814697265625 361.03936767578125 170.8814697265625 317.51947021484375V0Z" fill="#8794AC" transform="translate(616.15,276.40) scale(0.0340,-0.0340)"/><path d="M78.07958984375 0V530.8001708984375H162.84124755859375L166.081298828125 397.4403076171875L153.9212646484375 401.7603759765625Q163.081298828125 445.600341796875 185.581298828125 476.9002990722656Q208.081298828125 508.20025634765625 240.96127319335938 525.5002136230469Q273.84124755859375 542.8001708984375 313.6011962890625 542.8001708984375Q382.36114501953125 542.8001708984375 425.5810852050781 504.6801452636719Q468.801025390625 466.56011962890625 479.88104248046875 398.8001708984375L463.56097412109375 399.56011962890625Q471.72100830078125 445.72015380859375 493.3410339355469 477.3001708984375Q514.9610595703125 508.88018798828125 548.8410339355469 525.8401794433594Q582.7210083007812 542.8001708984375 626.3209228515625 542.8001708984375Q683.0808715820312 542.8001708984375 722.2409057617188 519.3401794433594Q761.4009399414062 495.88018798828125 781.6809997558594 450.8401794433594Q801.9610595703125 405.8001708984375 801.9610595703125 341.4801025390625V0H709.1591796875V320.35943603515625Q709.1591796875 391.1591796875 682.3194274902344 426.9790344238281Q655.4796752929688 462.79888916015625 602.1600341796875 462.79888916015625Q566.4403076171875 462.79888916015625 540.060546875 445.198974609375Q513.6807861328125 427.59906005859375 499.3209228515625 394.73919677734375Q484.9610595703125 361.87933349609375 484.9610595703125 314.83953857421875V0H394.07958984375V314.83953857421875Q394.07958984375 384.71929931640625 370.039794921875 423.75909423828125Q346 462.79888916015625 289.00042724609375 462.79888916015625Q253.28070068359375 462.79888916015625 226.90093994140625 445.198974609375Q200.52117919921875 427.59906005859375 185.70132446289062 394.2792053222656Q170.8814697265625 360.9593505859375 170.8814697265625 314.83953857421875V0Z" fill="#8794AC" transform="translate(629.24,276.40) scale(0.0340,-0.0340)"/><path d="M223.320068359375 -12Q141.08001708984375 -12 92.05990600585938 26.08001708984375Q43.039794921875 64.1600341796875 43.039794921875 132.320068359375Q43.039794921875 200.64013671875 83.63992309570312 239.60012817382812Q124.24005126953125 278.56011962890625 211.320068359375 294.8001708984375L397.2396240234375 329.72015380859375Q397.2396240234375 394.7197265625 366.8198547363281 426.83953857421875Q336.40008544921875 458.9593505859375 275.880615234375 458.9593505859375Q222.56097412109375 458.9593505859375 191.64120483398438 435.0994873046875Q160.721435546875 411.2396240234375 149.28155517578125 366.35986328125L52.039794921875 373.27984619140625Q67.11981201171875 450.1202392578125 125.54000854492188 496.460205078125Q183.960205078125 542.8001708984375 275.880615234375 542.8001708984375Q380.2811279296875 542.8001708984375 435.16131591796875 485.3401794433594Q490.04150390625 427.88018798828125 490.04150390625 325.679931640625V111.56097412109375Q490.04150390625 92.92083740234375 496.7015380859375 85.38082885742188Q503.361572265625 77.8408203125 518.361572265625 77.8408203125H538.5614013671875V0Q534.1613159179688 -1.1600341796875 524.2811279296875 -1.820068359375Q514.4009399414062 -2.4801025390625 503.6807861328125 -2.4801025390625Q468.24090576171875 -2.4801025390625 445.0607604980469 8.899871826171875Q421.880615234375 20.27984619140625 411.00042724609375 45.09991455078125Q400.1202392578125 69.91998291015625 400.1202392578125 111.1202392578125L410.4403076171875 108Q403.1202392578125 73.75994873046875 376.2802734375 46.299957275390625Q349.4403076171875 18.8399658203125 309.4002990722656 3.41998291015625Q269.36029052734375 -12 223.320068359375 -12ZM235.0008544921875 65.8408203125Q285.92041015625 65.8408203125 322.14013671875 85.58065795898438Q358.35986328125 105.32049560546875 377.79974365234375 139.7802734375Q397.2396240234375 174.24005126953125 397.2396240234375 217.5198974609375V253.9195556640625L231.9610595703125 222.7197265625Q180.28155517578125 213.039794921875 160.10162353515625 193.09991455078125Q139.92169189453125 173.1600341796875 139.92169189453125 141.1202392578125Q139.92169189453125 105.4005126953125 165.26144409179688 85.62066650390625Q190.6011962890625 65.8408203125 235.0008544921875 65.8408203125Z" fill="#8794AC" transform="translate(659.16,276.40) scale(0.0340,-0.0340)"/><path d="M275.92041015625 0Q202.40008544921875 0 167.29995727539062 33.760162353515625Q132.1998291015625 67.52032470703125 132.1998291015625 139.3607177734375V655.0402221679688H225.001708984375V143.441162109375Q225.001708984375 107.12109375 241.04171752929688 93.08108520507812Q257.08172607421875 79.04107666015625 290.1617431640625 79.04107666015625H366.001708984375V0ZM53.07958984375 451.75909423828125V530.8001708984375H366.001708984375V451.75909423828125Z" fill="#8794AC" transform="translate(678.10,276.40) scale(0.0340,-0.0340)"/><path d="M78.07958984375 0V530.8001708984375H170.8814697265625V0ZM75.99957275390625 611.4796752929688V712.5203247070312H172.96148681640625V611.4796752929688Z" fill="#8794AC" transform="translate(691.66,276.40) scale(0.0340,-0.0340)"/><path d="M289.96063232421875 -12Q215.7603759765625 -12 159.92019653320312 22.08001708984375Q104.08001708984375 56.1600341796875 73.55990600585938 118.74005126953125Q43.039794921875 181.320068359375 43.039794921875 265.40008544921875Q43.039794921875 350.40008544921875 73.55990600585938 412.4801025390625Q104.08001708984375 474.56011962890625 159.92019653320312 508.6801452636719Q215.7603759765625 542.8001708984375 289.96063232421875 542.8001708984375Q364.160888671875 542.8001708984375 419.54107666015625 508.6801452636719Q474.9212646484375 474.56011962890625 505.4413757324219 412.4801025390625Q535.9614868164062 350.40008544921875 535.9614868164062 265.40008544921875Q535.9614868164062 181.320068359375 505.4413757324219 118.74005126953125Q474.9212646484375 56.1600341796875 419.54107666015625 22.08001708984375Q364.160888671875 -12 289.96063232421875 -12ZM289.96063232421875 72.72100830078125Q360.72015380859375 72.72100830078125 399.8998718261719 123.98074340820312Q439.07958984375 175.240478515625 439.07958984375 265.40008544921875Q439.07958984375 355.47967529296875 399.8998718261719 406.7794189453125Q360.72015380859375 458.07916259765625 289.96063232421875 458.07916259765625Q219.20111083984375 458.07916259765625 179.5614013671875 406.7794189453125Q139.92169189453125 355.47967529296875 139.92169189453125 265.40008544921875Q139.92169189453125 175.240478515625 179.5614013671875 123.98074340820312Q219.20111083984375 72.72100830078125 289.96063232421875 72.72100830078125Z" fill="#8794AC" transform="translate(700.13,276.40) scale(0.0340,-0.0340)"/><path d="M78.07958984375 0V530.8001708984375H162.84124755859375L166.2413330078125 392.83953857421875L155.12109375 401.2794189453125Q164.801025390625 450.039794921875 189.76101684570312 481.25994873046875Q214.72100830078125 512.4801025390625 250.38104248046875 527.64013671875Q286.04107666015625 542.8001708984375 327.441162109375 542.8001708984375Q388.04107666015625 542.8001708984375 427.70111083984375 516.0402221679688Q467.36114501953125 489.2802734375 487.1412048339844 443.7802734375Q506.9212646484375 398.2802734375 506.9212646484375 341.4801025390625V0H414.119384765625V314.03936767578125Q414.119384765625 362.23919677734375 403.17950439453125 395.25909423828125Q392.2396240234375 428.27899169921875 368.1598205566406 445.5389404296875Q344.08001708984375 462.79888916015625 305.20025634765625 462.79888916015625Q246.12066650390625 462.79888916015625 208.50106811523438 424.8190002441406Q170.8814697265625 386.839111328125 170.8814697265625 314.03936767578125V0Z" fill="#8794AC" transform="translate(719.81,276.40) scale(0.0340,-0.0340)"/><path d="M43.039794921875 0V118.36114501953125H162.68121337890625V0Z" fill="#8794AC" transform="translate(739.70,276.40) scale(0.0340,-0.0340)"/></svg>