<svg xmlns="http://www.w3.org/2000/svg" width="1440" height="900" viewBox="0 0 1440 900" font-family="DejaVu Sans"><rect x="0" y="0" width="1440" height="900" rx="0" ry="0" fill="#F6F8FC" stroke="none" stroke-width="1"/><rect x="0" y="0" width="236" height="900" rx="0" ry="0" fill="#EEF2F8" stroke="none" stroke-width="1"/><rect x="235" y="0" width="1" height="900" rx="0" ry="0" fill="#D4DCEA" stroke="none" stroke-width="1"/><g transform="translate(30,34) scale(0.33735) translate(-50,-50)"><rect x="29" y="45" width="42" height="42" rx="13" fill="none" stroke="#3D7DFF" stroke-width="9"/><rect x="29" y="13" width="42" height="42" rx="13" fill="none" stroke="#3D7DFF" stroke-width="9"/><rect x="45" y="25.5" width="10" height="10" rx="2.8" fill="#2563EB"/><rect x="45" y="64.5" width="10" height="10" rx="2.8" fill="#2563EB"/><rect x="42.5" y="42.5" width="15" height="15" rx="4.2" fill="#2563EB"/></g><text x="52" y="32" font-family="DejaVu Sans" font-size="17" fill="#0B1220" font-weight="700" text-anchor="start" letter-spacing="0.2">KSquad</text><text x="52" y="46" font-family="DejaVu Sans" font-size="10" fill="#6C7688" font-weight="400" text-anchor="start" letter-spacing="0.4">operator console</text><g fill="none" stroke="#64748B" stroke-width="1.6" stroke-linecap="round" stroke-linejoin="round"><path d="M25 98 v14 h14"/><path d="M28 108 l3 -4 l3 2 l4 -6"/></g><text x="52" y="110" font-family="DejaVu Sans" font-size="13.5" fill="#33415C" font-weight="500" text-anchor="start">Dashboard</text><g fill="none" stroke="#64748B" stroke-width="1.6" stroke-linecap="round" stroke-linejoin="round"><rect x="24" y="143" width="6.5" height="6.5" rx="1.5"/><rect x="33.5" y="143" width="6.5" height="6.5" rx="1.5"/><rect x="24" y="152.5" width="6.5" height="6.5" rx="1.5"/><rect x="33.5" y="152.5" width="6.5" height="6.5" rx="1.5"/></g><text x="52" y="156" font-family="DejaVu Sans" font-size="13.5" fill="#33415C" font-weight="500" text-anchor="start">Overview</text><g fill="none" stroke="#64748B" stroke-width="1.6" stroke-linecap="round" stroke-linejoin="round"><path d="M24 197 h4 l2 -5 l3 10 l2 -5 h3"/></g><text x="52" y="202" font-family="DejaVu Sans" font-size="13.5" fill="#33415C" font-weight="500" text-anchor="start">Runs</text><rect x="10" y="224" width="216" height="38" rx="9" ry="9" fill="#E5EDFF" stroke="#3D7DFF44" stroke-width="1"/><rect x="10" y="224" width="3" height="38" rx="2" ry="2" fill="#3D7DFF" stroke="none" stroke-width="1"/><g fill="none" stroke="#2563EB" stroke-width="1.6" stroke-linecap="round" stroke-linejoin="round"><path d="M32 236 l6.5 3.5 v7 l-6.5 3.5 l-6.5 -3.5 v-7 z"/><path d="M25.5 239.5 l6.5 3.5 l6.5 -3.5"/><path d="M32 243 v7"/></g><text x="52" y="248" font-family="DejaVu Sans" font-size="13.5" fill="#0B1220" font-weight="600" text-anchor="start">Builds</text><g fill="none" stroke="#64748B" stroke-width="1.6" stroke-linecap="round" stroke-linejoin="round"><rect x="25" y="282" width="14" height="10" rx="2.5"/><path d="M29 292 v3 l3 -3"/><path d="M28 285.5 h8 M28 288.5 h5"/></g><text x="52" y="294" font-family="DejaVu Sans" font-size="13.5" fill="#33415C" font-weight="500" text-anchor="start">Discussion</text><g fill="none" stroke="#64748B" stroke-width="1.6" stroke-linecap="round" stroke-linejoin="round"><rect x="25" y="327" width="13" height="16" rx="1.5"/><path d="M25 338 h13"/><path d="M28.5 327 v11"/></g><text x="52" y="340" font-family="DejaVu Sans" font-size="13.5" fill="#33415C" font-weight="500" text-anchor="start">Projects</text><g fill="none" stroke="#64748B" stroke-width="1.6" stroke-linecap="round" stroke-linejoin="round"><rect x="25.5" y="377" width="13" height="10" rx="2.5"/><path d="M32 374 v3"/><circle cx="32" cy="374" r="1.2" fill="#64748B"/><circle cx="29.5" cy="382" r="1" fill="#64748B"/><circle cx="34.5" cy="382" r="1" fill="#64748B"/></g><text x="52" y="386" font-family="DejaVu Sans" font-size="13.5" fill="#33415C" font-weight="500" text-anchor="start">Agents</text><g fill="none" stroke="#64748B" stroke-width="1.6" stroke-linecap="round" stroke-linejoin="round"><circle cx="28.5" cy="424" r="3.5"/><path d="M31 426.5 l6 6 M35 430.5 l1.5 -1.5 M37 432.5 l1.5 -1.5"/></g><text x="52" y="432" font-family="DejaVu Sans" font-size="13.5" fill="#33415C" font-weight="500" text-anchor="start">Credentials</text><rect x="16" y="468" width="204" height="40" rx="9" ry="9" fill="#3D7DFF" stroke="none" stroke-width="1"/><text x="112" y="493" font-family="DejaVu Sans" font-size="13.5" fill="#fff" font-weight="600" text-anchor="middle">+  Compose</text><rect x="16" y="826" width="204" height="54" rx="9" ry="9" fill="#F1F5FA" stroke="#D4DCEA" stroke-width="1"/><circle cx="34" cy="853" r="3.5" fill="#059669"/><text x="48" y="849" font-family="DejaVu Sans Mono" font-size="12.5" fill="#33415C" font-weight="600" text-anchor="start">prod-euc1</text><text x="48" y="866" font-family="DejaVu Sans" font-size="10.5" fill="#6C7688" font-weight="400" text-anchor="start">context · connected</text><rect x="236" y="0" width="1204" height="60" rx="0" ry="0" fill="#F6F8FC" stroke="none" stroke-width="1"/><rect x="236" y="59" width="1204" height="1" rx="0" ry="0" fill="#D4DCEA" stroke="none" stroke-width="1"/><text x="260" y="30" font-family="DejaVu Sans" font-size="17" fill="#0B1220" font-weight="700" text-anchor="start">Runs  ›  Builds</text><text x="260" y="47" font-family="DejaVu Sans" font-size="11.5" fill="#64748B" font-weight="400" text-anchor="start">Browse &amp; inspect produced build artifacts and history — read-only</text><circle cx="1400" cy="30" r="15" fill="#ECF1F8" stroke="#D4DCEA"/><text x="1400" y="34" font-family="DejaVu Sans" font-size="11.5" fill="#2563EB" font-weight="700" text-anchor="middle">PN</text><rect x="1211.6" y="15" width="156.39999999999998" height="30" rx="8" ry="8" fill="#F1F5FA" stroke="#D4DCEA" stroke-width="1"/><circle cx="1225.6" cy="30" r="3" fill="#3D7DFF"/><text x="1235.6" y="34" font-family="DejaVu Sans Mono" font-size="12" fill="#33415C" font-weight="400" text-anchor="start">ns: team-payments</text><rect x="999.5999999999999" y="15" width="200" height="30" rx="8" ry="8" fill="#F1F5FA" stroke="#D4DCEA" stroke-width="1"/><circle cx="1014.5999999999999" cy="30" r="4.5" fill="none" stroke="#6C7688" stroke-width="1.5"/><path d="M1018.0999999999999 33.5 l3 3" stroke="#6C7688" stroke-width="1.5" stroke-linecap="round"/><text x="1029.6" y="34" font-family="DejaVu Sans" font-size="12" fill="#6C7688" font-weight="400" text-anchor="start">Search squads, runs, artifacts…</text><rect x="260" y="84" width="316" height="792" rx="12" ry="12" fill="#FFFFFF" stroke="#D4DCEA" stroke-width="1"/><text x="278" y="112" font-family="DejaVu Sans" font-size="13.5" fill="#0B1220" font-weight="700" text-anchor="start">Builds</text><text x="558" y="112" font-family="DejaVu Sans" font-size="10.5" fill="#6C7688" font-weight="400" text-anchor="end">24 · ns team-payments</text><rect x="278" y="126" width="280" height="1" rx="0" ry="0" fill="#ECF1F8" stroke="none" stroke-width="1"/><rect x="270" y="136" width="296" height="66" rx="8" ry="8" fill="#E5EDFF" stroke="#3D7DFF44" stroke-width="1"/><circle cx="284" cy="156" r="4" fill="#059669"/><circle cx="284" cy="156" r="4" fill="none" stroke="#059669" stroke-width="1.4"><animate attributeName="r" values="4;9;4" dur="1.8s" repeatCount="indefinite"/><animate attributeName="opacity" values="0.55;0;0.55" dur="1.8s" repeatCount="indefinite"/></circle><text x="298" y="160" font-family="DejaVu Sans Mono" font-size="13" fill="#0B1220" font-weight="700" text-anchor="start">B-1042</text><rect x="487.33500000000004" y="145" width="72.66499999999999" height="22" rx="11" ry="11" fill="#D1FAE5" stroke="#05966955" stroke-width="1"/><circle cx="499.33500000000004" cy="156" r="3.4" fill="#059669"/><circle cx="499.33500000000004" cy="156" r="3.4" fill="none" stroke="#059669" stroke-width="1.4" opacity="0.5"><animate attributeName="r" values="3.4;8;3.4" dur="1.8s" repeatCount="indefinite"/><animate attributeName="opacity" values="0.55;0;0.55" dur="1.8s" repeatCount="indefinite"/></circle><text x="508.33500000000004" y="160" font-family="DejaVu Sans" font-size="11.5" fill="#059669" font-weight="600" text-anchor="start">Running</text><!--pw:72.66499999999999--><rect x="282" y="170" width="68.3" height="20" rx="6" ry="6" fill="#E5EDFF" stroke="#3D7DFF33" stroke-width="1"/><text x="292" y="184" font-family="DejaVu Sans Mono" font-size="11.5" fill="#2563EB" font-weight="400" text-anchor="start">a1f9c3d</text><text x="360.3" y="184" font-family="DejaVu Sans Mono" font-size="10.5" fill="#64748B" font-weight="400" text-anchor="start">main</text><text x="282" y="197" font-family="DejaVu Sans" font-size="10.5" fill="#6C7688" font-weight="400" text-anchor="start">payments-review · 1m 12s · 4 artifacts</text><circle cx="284" cy="230" r="4" fill="#059669"/><text x="298" y="234" font-family="DejaVu Sans Mono" font-size="13" fill="#0B1220" font-weight="700" text-anchor="start">B-1041</text><rect x="475.145" y="219" width="84.855" height="22" rx="11" ry="11" fill="#D1FAE5" stroke="#05966955" stroke-width="1"/><circle cx="487.145" cy="230" r="3.4" fill="#059669"/><text x="496.145" y="234" font-family="DejaVu Sans" font-size="11.5" fill="#059669" font-weight="600" text-anchor="start">Succeeded</text><!--pw:84.855--><rect x="282" y="244" width="68.3" height="20" rx="6" ry="6" fill="#E5EDFF" stroke="#3D7DFF33" stroke-width="1"/><text x="292" y="258" font-family="DejaVu Sans Mono" font-size="11.5" fill="#2563EB" font-weight="400" text-anchor="start">7e2b0a8</text><text x="360.3" y="258" font-family="DejaVu Sans Mono" font-size="10.5" fill="#64748B" font-weight="400" text-anchor="start">main</text><text x="282" y="271" font-family="DejaVu Sans" font-size="10.5" fill="#6C7688" font-weight="400" text-anchor="start">payments-review · 4m 03s · 5 artifacts</text><circle cx="284" cy="304" r="4" fill="#E11D48"/><text x="298" y="308" font-family="DejaVu Sans Mono" font-size="13" fill="#0B1220" font-weight="700" text-anchor="start">B-1040</text><rect x="493.43" y="293" width="66.57" height="22" rx="11" ry="11" fill="#FFE4E6" stroke="#E11D4855" stroke-width="1"/><circle cx="505.43" cy="304" r="3.4" fill="#E11D48"/><text x="514.4300000000001" y="308" font-family="DejaVu Sans" font-size="11.5" fill="#E11D48" font-weight="600" text-anchor="start">Failed</text><!--pw:66.57--><rect x="282" y="318" width="68.3" height="20" rx="6" ry="6" fill="#E5EDFF" stroke="#3D7DFF33" stroke-width="1"/><text x="292" y="332" font-family="DejaVu Sans Mono" font-size="11.5" fill="#2563EB" font-weight="400" text-anchor="start">c40d112</text><text x="360.3" y="332" font-family="DejaVu Sans Mono" font-size="10.5" fill="#64748B" font-weight="400" text-anchor="start">fix/refund</text><text x="282" y="345" font-family="DejaVu Sans" font-size="10.5" fill="#6C7688" font-weight="400" text-anchor="start">checkout-hardening · 2m 20s · 2 artifacts</text><circle cx="284" cy="378" r="4" fill="#059669"/><text x="298" y="382" font-family="DejaVu Sans Mono" font-size="13" fill="#0B1220" font-weight="700" text-anchor="start">B-1039</text><rect x="475.145" y="367" width="84.855" height="22" rx="11" ry="11" fill="#D1FAE5" stroke="#05966955" stroke-width="1"/><circle cx="487.145" cy="378" r="3.4" fill="#059669"/><text x="496.145" y="382" font-family="DejaVu Sans" font-size="11.5" fill="#059669" font-weight="600" text-anchor="start">Succeeded</text><!--pw:84.855--><rect x="282" y="392" width="68.3" height="20" rx="6" ry="6" fill="#E5EDFF" stroke="#3D7DFF33" stroke-width="1"/><text x="292" y="406" font-family="DejaVu Sans Mono" font-size="11.5" fill="#2563EB" font-weight="400" text-anchor="start">9f3c1a2</text><text x="360.3" y="406" font-family="DejaVu Sans Mono" font-size="10.5" fill="#64748B" font-weight="400" text-anchor="start">main</text><text x="282" y="419" font-family="DejaVu Sans" font-size="10.5" fill="#6C7688" font-weight="400" text-anchor="start">docs-sync · 3m 41s · 4 artifacts</text><circle cx="284" cy="452" r="4" fill="#B45309"/><text x="298" y="456" font-family="DejaVu Sans Mono" font-size="13" fill="#0B1220" font-weight="700" text-anchor="start">B-1038</text><rect x="493.43" y="441" width="66.57" height="22" rx="11" ry="11" fill="#FEF3C7" stroke="#B4530955" stroke-width="1"/><circle cx="505.43" cy="452" r="3.4" fill="#B45309"/><text x="514.4300000000001" y="456" font-family="DejaVu Sans" font-size="11.5" fill="#B45309" font-weight="600" text-anchor="start">Paused</text><!--pw:66.57--><rect x="282" y="466" width="68.3" height="20" rx="6" ry="6" fill="#E5EDFF" stroke="#3D7DFF33" stroke-width="1"/><text x="292" y="480" font-family="DejaVu Sans Mono" font-size="11.5" fill="#2563EB" font-weight="400" text-anchor="start">b81aa77</text><text x="360.3" y="480" font-family="DejaVu Sans Mono" font-size="10.5" fill="#64748B" font-weight="400" text-anchor="start">main</text><text x="282" y="493" font-family="DejaVu Sans" font-size="10.5" fill="#6C7688" font-weight="400" text-anchor="start">checkout-hardening · — · 1 artifacts</text><circle cx="284" cy="526" r="4" fill="#059669"/><text x="298" y="530" font-family="DejaVu Sans Mono" font-size="13" fill="#0B1220" font-weight="700" text-anchor="start">B-1037</text><rect x="475.145" y="515" width="84.855" height="22" rx="11" ry="11" fill="#D1FAE5" stroke="#05966955" stroke-width="1"/><circle cx="487.145" cy="526" r="3.4" fill="#059669"/><text x="496.145" y="530" font-family="DejaVu Sans" font-size="11.5" fill="#059669" font-weight="600" text-anchor="start">Succeeded</text><!--pw:84.855--><rect x="282" y="540" width="68.3" height="20" rx="6" ry="6" fill="#E5EDFF" stroke="#3D7DFF33" stroke-width="1"/><text x="292" y="554" font-family="DejaVu Sans Mono" font-size="11.5" fill="#2563EB" font-weight="400" text-anchor="start">55e9d20</text><text x="360.3" y="554" font-family="DejaVu Sans Mono" font-size="10.5" fill="#64748B" font-weight="400" text-anchor="start">main</text><text x="282" y="567" font-family="DejaVu Sans" font-size="10.5" fill="#6C7688" font-weight="400" text-anchor="start">infra-lint · 1m 58s · 6 artifacts</text><rect x="596" y="84" width="820" height="792" rx="12" ry="12" fill="#FFFFFF" stroke="#D4DCEA" stroke-width="1"/><text x="616" y="114" font-family="DejaVu Sans" font-size="16" fill="#0B1220" font-weight="700" text-anchor="start">Build #B-1042</text><rect x="754" y="100" width="72.66499999999999" height="22" rx="11" ry="11" fill="#D1FAE5" stroke="#05966955" stroke-width="1"/><circle cx="766" cy="111" r="3.4" fill="#059669"/><circle cx="766" cy="111" r="3.4" fill="none" stroke="#059669" stroke-width="1.4" opacity="0.5"><animate attributeName="r" values="3.4;8;3.4" dur="1.8s" repeatCount="indefinite"/><animate attributeName="opacity" values="0.55;0;0.55" dur="1.8s" repeatCount="indefinite"/></circle><text x="775" y="115" font-family="DejaVu Sans" font-size="11.5" fill="#059669" font-weight="600" text-anchor="start">Running</text><!--pw:72.66499999999999--><rect x="1268" y="98" width="128" height="30" rx="8" ry="8" fill="#F1F5FA" stroke="#D4DCEA" stroke-width="1"/><text x="1332" y="118" font-family="DejaVu Sans" font-size="11.5" fill="#33415C" font-weight="600" text-anchor="middle">↓ Download all</text><text x="616" y="134" font-family="DejaVu Sans Mono" font-size="11.5" fill="#64748B" font-weight="400" text-anchor="start">commit a1f9c3d · branch main · payments-review · payments-service</text><rect x="616" y="150" width="780" height="1" rx="0" ry="0" fill="#ECF1F8" stroke="none" stroke-width="1"/><text x="616" y="174" font-family="DejaVu Sans" font-size="9.5" fill="#6C7688" font-weight="600" text-anchor="start" letter-spacing="0.6">STAGES</text><rect x="646" y="201.25" width="128" height="1.5" rx="0" ry="0" fill="#05966966" stroke="none" stroke-width="1"/><circle cx="632" cy="202" r="12" fill="#D1FAE5" stroke="#059669" stroke-width="1.8"/><path d="M627 202 l3.5 3.5 l6.5 -7" stroke="#059669" stroke-width="1.8" fill="none" stroke-linecap="round" stroke-linejoin="round"/><text x="632" y="232" font-family="DejaVu Sans" font-size="11.5" fill="#33415C" font-weight="600" text-anchor="middle">Checkout</text><text x="632" y="247" font-family="DejaVu Sans Mono" font-size="10" fill="#6C7688" font-weight="400" text-anchor="middle">0:08</text><rect x="802" y="201.25" width="128" height="1.5" rx="0" ry="0" fill="#05966966" stroke="none" stroke-width="1"/><circle cx="788" cy="202" r="12" fill="#D1FAE5" stroke="#059669" stroke-width="1.8"/><path d="M783 202 l3.5 3.5 l6.5 -7" stroke="#059669" stroke-width="1.8" fill="none" stroke-linecap="round" stroke-linejoin="round"/><text x="788" y="232" font-family="DejaVu Sans" font-size="11.5" fill="#33415C" font-weight="600" text-anchor="middle">Review</text><text x="788" y="247" font-family="DejaVu Sans Mono" font-size="10" fill="#6C7688" font-weight="400" text-anchor="middle">0:31</text><rect x="958" y="201.25" width="128" height="1.5" rx="0" ry="0" fill="#05966966" stroke="none" stroke-width="1"/><circle cx="944" cy="202" r="12" fill="#D1FAE5" stroke="#059669" stroke-width="1.8"/><path d="M939 202 l3.5 3.5 l6.5 -7" stroke="#059669" stroke-width="1.8" fill="none" stroke-linecap="round" stroke-linejoin="round"/><text x="944" y="232" font-family="DejaVu Sans" font-size="11.5" fill="#33415C" font-weight="600" text-anchor="middle">Fix</text><text x="944" y="247" font-family="DejaVu Sans Mono" font-size="10" fill="#6C7688" font-weight="400" text-anchor="middle">1:12</text><rect x="1114" y="201.25" width="128" height="1.5" rx="0" ry="0" fill="#05966966" stroke="none" stroke-width="1"/><circle cx="1100" cy="202" r="12" fill="#D1FAE5" stroke="#059669" stroke-width="1.8"/><path d="M1095 202 l3.5 3.5 l6.5 -7" stroke="#059669" stroke-width="1.8" fill="none" stroke-linecap="round" stroke-linejoin="round"/><text x="1100" y="232" font-family="DejaVu Sans" font-size="11.5" fill="#33415C" font-weight="600" text-anchor="middle">Test</text><text x="1100" y="247" font-family="DejaVu Sans Mono" font-size="10" fill="#6C7688" font-weight="400" text-anchor="middle">0:54</text><circle cx="1256" cy="202" r="12" fill="#E5EDFF" stroke="#059669" stroke-width="1.8"/><circle cx="1256" cy="202" r="3" fill="#059669"/><circle cx="1256" cy="202" r="12" fill="none" stroke="#059669" stroke-width="1.4"><animate attributeName="r" values="12;18;12" dur="1.8s" repeatCount="indefinite"/><animate attributeName="opacity" values="0.5;0;0.5" dur="1.8s" repeatCount="indefinite"/></circle><text x="1256" y="232" font-family="DejaVu Sans" font-size="11.5" fill="#0B1220" font-weight="600" text-anchor="middle">Publish</text><text x="1256" y="247" font-family="DejaVu Sans Mono" font-size="10" fill="#6C7688" font-weight="400" text-anchor="middle">0:09</text><rect x="616" y="270" width="780" height="1" rx="0" ry="0" fill="#ECF1F8" stroke="none" stroke-width="1"/><text x="616" y="296" font-family="DejaVu Sans" font-size="13.5" fill="#0B1220" font-weight="700" text-anchor="start">Artifacts · 4</text><text x="1396" y="296" font-family="DejaVu Sans" font-size="10.5" fill="#6C7688" font-weight="400" text-anchor="end">read-only — produced by this build</text><rect x="616" y="312" width="382" height="92" rx="10" ry="10" fill="#F1F5FA" stroke="#D4DCEA" stroke-width="1"/><rect x="632" y="330" width="30" height="30" rx="7" ry="7" fill="#05966922" stroke="#05966955" stroke-width="1"/><text x="647" y="350" font-family="DejaVu Sans" font-size="13" fill="#059669" font-weight="700" text-anchor="middle">D</text><text x="674" y="342" font-family="DejaVu Sans Mono" font-size="12.5" fill="#0B1220" font-weight="600" text-anchor="start">refund-fix.diff</text><text x="674" y="359" font-family="DejaVu Sans" font-size="10.5" fill="#6C7688" font-weight="400" text-anchor="start">Fixer · Hermes</text><text x="982" y="342" font-family="DejaVu Sans" font-size="11" fill="#059669" font-weight="600" text-anchor="end">+42 −11</text><rect x="632" y="374" width="350" height="1" rx="0" ry="0" fill="#ECF1F8" stroke="none" stroke-width="1"/><text x="632" y="392" font-family="DejaVu Sans Mono" font-size="10.5" fill="#64748B" font-weight="400" text-anchor="start">2.1 KB · produced 02:48</text><text x="982" y="392" font-family="DejaVu Sans" font-size="13" fill="#64748B" font-weight="700" text-anchor="end">↓</text><rect x="1014" y="312" width="382" height="92" rx="10" ry="10" fill="#F1F5FA" stroke="#D4DCEA" stroke-width="1"/><rect x="1030" y="330" width="30" height="30" rx="7" ry="7" fill="#3D7DFF22" stroke="#3D7DFF55" stroke-width="1"/><text x="1045" y="350" font-family="DejaVu Sans" font-size="13" fill="#3D7DFF" font-weight="700" text-anchor="middle">C</text><text x="1072" y="342" font-family="DejaVu Sans Mono" font-size="12.5" fill="#0B1220" font-weight="600" text-anchor="start">findings.md</text><text x="1072" y="359" font-family="DejaVu Sans" font-size="10.5" fill="#6C7688" font-weight="400" text-anchor="start">Reviewer · OpenClaw</text><text x="1380" y="342" font-family="DejaVu Sans" font-size="11" fill="#3D7DFF" font-weight="600" text-anchor="end">3 findings</text><rect x="1030" y="374" width="350" height="1" rx="0" ry="0" fill="#ECF1F8" stroke="none" stroke-width="1"/><text x="1030" y="392" font-family="DejaVu Sans Mono" font-size="10.5" fill="#64748B" font-weight="400" text-anchor="start">1.4 KB · produced 00:31</text><text x="1380" y="392" font-family="DejaVu Sans" font-size="13" fill="#64748B" font-weight="700" text-anchor="end">↓</text><rect x="616" y="420" width="382" height="92" rx="10" ry="10" fill="#F1F5FA" stroke="#D4DCEA" stroke-width="1"/><rect x="632" y="438" width="30" height="30" rx="7" ry="7" fill="#64748B22" stroke="#64748B55" stroke-width="1"/><text x="647" y="458" font-family="DejaVu Sans" font-size="13" fill="#64748B" font-weight="700" text-anchor="middle">L</text><text x="674" y="450" font-family="DejaVu Sans Mono" font-size="12.5" fill="#0B1220" font-weight="600" text-anchor="start">build-142.log</text><text x="674" y="467" font-family="DejaVu Sans" font-size="10.5" fill="#6C7688" font-weight="400" text-anchor="start">controller</text><text x="982" y="450" font-family="DejaVu Sans" font-size="11" fill="#64748B" font-weight="600" text-anchor="end">audit trail</text><rect x="632" y="482" width="350" height="1" rx="0" ry="0" fill="#ECF1F8" stroke="none" stroke-width="1"/><text x="632" y="500" font-family="DejaVu Sans Mono" font-size="10.5" fill="#64748B" font-weight="400" text-anchor="start">18 KB · produced 03:05</text><text x="982" y="500" font-family="DejaVu Sans" font-size="13" fill="#64748B" font-weight="700" text-anchor="end">↓</text><rect x="1014" y="420" width="382" height="92" rx="10" ry="10" fill="#F1F5FA" stroke="#D4DCEA" stroke-width="1"/><rect x="1030" y="438" width="30" height="30" rx="7" ry="7" fill="#33415C22" stroke="#33415C55" stroke-width="1"/><text x="1045" y="458" font-family="DejaVu Sans" font-size="13" fill="#33415C" font-weight="700" text-anchor="middle">F</text><text x="1072" y="450" font-family="DejaVu Sans Mono" font-size="12.5" fill="#0B1220" font-weight="600" text-anchor="start">refund.spec.ts</text><text x="1072" y="467" font-family="DejaVu Sans" font-size="10.5" fill="#6C7688" font-weight="400" text-anchor="start">Fixer · Hermes</text><text x="1380" y="450" font-family="DejaVu Sans" font-size="11" fill="#33415C" font-weight="600" text-anchor="end">new file</text><rect x="1030" y="482" width="350" height="1" rx="0" ry="0" fill="#ECF1F8" stroke="none" stroke-width="1"/><text x="1030" y="500" font-family="DejaVu Sans Mono" font-size="10.5" fill="#64748B" font-weight="400" text-anchor="start">0.8 KB · produced 02:44</text><text x="1380" y="500" font-family="DejaVu Sans" font-size="13" fill="#64748B" font-weight="700" text-anchor="end">↓</text><rect x="616" y="832" width="780" height="1" rx="0" ry="0" fill="#ECF1F8" stroke="none" stroke-width="1"/><text x="616" y="854" font-family="DejaVu Sans" font-size="11" fill="#6C7688" font-weight="400" text-anchor="start">Inspection surface only — builds &amp; artifacts are read-only; apply happens in the repo PR the Fixer opened, not here (scope guard · not an IDE).</text></svg>