<svg xmlns="http://www.w3.org/2000/svg" width="1440" height="900" viewBox="0 0 1440 900" font-family="DejaVu Sans"><defs><linearGradient id="ringTop" x1="0" y1="0" x2="0" y2="1"><stop offset="0" stop-color="#93B7FF"/><stop offset="1" stop-color="#3D7DFF"/></linearGradient><linearGradient id="ringBot" x1="0" y1="0" x2="0" y2="1"><stop offset="0" stop-color="#3D7DFF"/><stop offset="1" stop-color="#2E4E8C"/></linearGradient></defs><rect x="0" y="0" width="1440" height="900" rx="0" ry="0" fill="#0B1220" stroke="none" stroke-width="1"/><rect x="0" y="0" width="236" height="900" rx="0" ry="0" fill="#0D1728" stroke="none" stroke-width="1"/><rect x="235" y="0" width="1" height="900" rx="0" ry="0" fill="#25324B" stroke="none" stroke-width="1"/><g transform="translate(30,34) scale(0.33735) translate(-50,-50)"><rect x="29" y="45" width="42" height="42" rx="13" fill="none" stroke="url(#ringBot)" stroke-width="9"/><rect x="29" y="13" width="42" height="42" rx="13" fill="none" stroke="url(#ringTop)" stroke-width="9"/><rect x="41" y="41" width="18" height="18" rx="5" fill="#93B7FF"/><rect x="44.5" y="9.5" width="11" height="11" rx="3" fill="#93B7FF"/><rect x="44.5" y="79.5" width="11" height="11" rx="3" fill="#2E4E8C"/></g><text x="52" y="32" font-family="DejaVu Sans" font-size="17" fill="#E8EEF9" font-weight="700" text-anchor="start" letter-spacing="0.2">K<tspan fill="#3D7DFF">8</tspan>squad</text><text x="52" y="46" font-family="DejaVu Sans" font-size="10" fill="#586581" font-weight="400" text-anchor="start" letter-spacing="0.4">operator console</text><g fill="none" stroke="#7E8CA6" stroke-width="1.6" stroke-linecap="round" stroke-linejoin="round"><path d="M25 98 v14 h14"/><path d="M28 108 l3 -4 l3 2 l4 -6"/></g><text x="52" y="110" font-family="DejaVu Sans" font-size="13.5" fill="#B6C3D8" font-weight="500" text-anchor="start">Dashboard</text><g fill="none" stroke="#7E8CA6" stroke-width="1.6" stroke-linecap="round" stroke-linejoin="round"><rect x="24" y="143" width="6.5" height="6.5" rx="1.5"/><rect x="33.5" y="143" width="6.5" height="6.5" rx="1.5"/><rect x="24" y="152.5" width="6.5" height="6.5" rx="1.5"/><rect x="33.5" y="152.5" width="6.5" height="6.5" rx="1.5"/></g><text x="52" y="156" font-family="DejaVu Sans" font-size="13.5" fill="#B6C3D8" font-weight="500" text-anchor="start">Overview</text><g fill="none" stroke="#7E8CA6" stroke-width="1.6" stroke-linecap="round" stroke-linejoin="round"><path d="M24 197 h4 l2 -5 l3 10 l2 -5 h3"/></g><text x="52" y="202" font-family="DejaVu Sans" font-size="13.5" fill="#B6C3D8" font-weight="500" text-anchor="start">Runs</text><rect x="10" y="224" width="216" height="38" rx="9" ry="9" fill="#16244A" stroke="#3D7DFF44" stroke-width="1"/><rect x="10" y="224" width="3" height="38" rx="2" ry="2" fill="#3D7DFF" stroke="none" stroke-width="1"/><g fill="none" stroke="#93B7FF" stroke-width="1.6" stroke-linecap="round" stroke-linejoin="round"><path d="M32 236 l6.5 3.5 v7 l-6.5 3.5 l-6.5 -3.5 v-7 z"/><path d="M25.5 239.5 l6.5 3.5 l6.5 -3.5"/><path d="M32 243 v7"/></g><text x="52" y="248" font-family="DejaVu Sans" font-size="13.5" fill="#E8EEF9" font-weight="600" text-anchor="start">Builds</text><g fill="none" stroke="#7E8CA6" stroke-width="1.6" stroke-linecap="round" stroke-linejoin="round"><rect x="25" y="282" width="14" height="10" rx="2.5"/><path d="M29 292 v3 l3 -3"/><path d="M28 285.5 h8 M28 288.5 h5"/></g><text x="52" y="294" font-family="DejaVu Sans" font-size="13.5" fill="#B6C3D8" font-weight="500" text-anchor="start">Discussion</text><g fill="none" stroke="#7E8CA6" stroke-width="1.6" stroke-linecap="round" stroke-linejoin="round"><rect x="25" y="327" width="13" height="16" rx="1.5"/><path d="M25 338 h13"/><path d="M28.5 327 v11"/></g><text x="52" y="340" font-family="DejaVu Sans" font-size="13.5" fill="#B6C3D8" font-weight="500" text-anchor="start">Projects</text><g fill="none" stroke="#7E8CA6" stroke-width="1.6" stroke-linecap="round" stroke-linejoin="round"><rect x="25.5" y="377" width="13" height="10" rx="2.5"/><path d="M32 374 v3"/><circle cx="32" cy="374" r="1.2" fill="#7E8CA6"/><circle cx="29.5" cy="382" r="1" fill="#7E8CA6"/><circle cx="34.5" cy="382" r="1" fill="#7E8CA6"/></g><text x="52" y="386" font-family="DejaVu Sans" font-size="13.5" fill="#B6C3D8" font-weight="500" text-anchor="start">Agents</text><g fill="none" stroke="#7E8CA6" stroke-width="1.6" stroke-linecap="round" stroke-linejoin="round"><circle cx="28.5" cy="424" r="3.5"/><path d="M31 426.5 l6 6 M35 430.5 l1.5 -1.5 M37 432.5 l1.5 -1.5"/></g><text x="52" y="432" font-family="DejaVu Sans" font-size="13.5" fill="#B6C3D8" font-weight="500" text-anchor="start">Credentials</text><rect x="16" y="468" width="204" height="40" rx="9" ry="9" fill="#3D7DFF" stroke="none" stroke-width="1"/><text x="112" y="493" font-family="DejaVu Sans" font-size="13.5" fill="#fff" font-weight="600" text-anchor="middle">+  Compose</text><rect x="16" y="826" width="204" height="54" rx="9" ry="9" fill="#0E1626" stroke="#25324B" stroke-width="1"/><circle cx="34" cy="853" r="3.5" fill="#34D399"/><text x="48" y="849" font-family="DejaVu Sans Mono" font-size="12.5" fill="#B6C3D8" font-weight="600" text-anchor="start">prod-euc1</text><text x="48" y="866" font-family="DejaVu Sans" font-size="10.5" fill="#586581" font-weight="400" text-anchor="start">context · connected</text><rect x="236" y="0" width="1204" height="60" rx="0" ry="0" fill="#0B1220" stroke="none" stroke-width="1"/><rect x="236" y="59" width="1204" height="1" rx="0" ry="0" fill="#25324B" stroke="none" stroke-width="1"/><text x="260" y="30" font-family="DejaVu Sans" font-size="17" fill="#E8EEF9" font-weight="700" text-anchor="start">Build browser</text><text x="260" y="47" font-family="DejaVu Sans" font-size="11.5" fill="#7E8CA6" font-weight="400" text-anchor="start">Every artifact produced across Runs — searchable, read-only</text><circle cx="1400" cy="30" r="15" fill="#1A2842" stroke="#25324B"/><text x="1400" y="34" font-family="DejaVu Sans" font-size="11.5" fill="#93B7FF" font-weight="700" text-anchor="middle">PN</text><rect x="1283.6" y="15" width="84.4" height="30" rx="8" ry="8" fill="#0E1626" stroke="#25324B" stroke-width="1"/><circle cx="1297.6" cy="30" r="3" fill="#3D7DFF"/><text x="1307.6" y="34" font-family="DejaVu Sans Mono" font-size="12" fill="#B6C3D8" font-weight="400" text-anchor="start">ns: all</text><rect x="1071.6" y="15" width="200" height="30" rx="8" ry="8" fill="#0E1626" stroke="#25324B" stroke-width="1"/><circle cx="1086.6" cy="30" r="4.5" fill="none" stroke="#586581" stroke-width="1.5"/><path d="M1090.1 33.5 l3 3" stroke="#586581" stroke-width="1.5" stroke-linecap="round"/><text x="1101.6" y="34" font-family="DejaVu Sans" font-size="12" fill="#586581" font-weight="400" text-anchor="start">Search squads, runs, artifacts…</text><rect x="260" y="84" width="240" height="792" rx="12" ry="12" fill="#0E1626" stroke="#25324B" stroke-width="1"/><text x="278" y="112" font-family="DejaVu Sans" font-size="13" fill="#E8EEF9" font-weight="700" text-anchor="start">Filters</text><text x="482" y="112" font-family="DejaVu Sans" font-size="11" fill="#93B7FF" font-weight="600" text-anchor="end">Clear</text><text x="278" y="138" font-family="DejaVu Sans" font-size="10" fill="#586581" font-weight="600" text-anchor="start" letter-spacing="0.6">TYPE</text><rect x="278" y="156" width="15" height="15" rx="4" ry="4" fill="#3D7DFF" stroke="#3D7DFF" stroke-width="1.4"/><path d="M281.5 163.5 l2.5 2.5 l4.5 -5" stroke="#fff" stroke-width="1.6" fill="none" stroke-linecap="round" stroke-linejoin="round"/><text x="302" y="168" font-family="DejaVu Sans" font-size="12" fill="#E8EEF9" font-weight="600" text-anchor="start">Diff</text><text x="482" y="168" font-family="DejaVu Sans" font-size="11" fill="#586581" font-weight="400" text-anchor="end">42</text><rect x="278" y="184" width="15" height="15" rx="4" ry="4" fill="none" stroke="#25324B" stroke-width="1.4"/><text x="302" y="196" font-family="DejaVu Sans" font-size="12" fill="#B6C3D8" font-weight="500" text-anchor="start">Report</text><text x="482" y="196" font-family="DejaVu Sans" font-size="11" fill="#586581" font-weight="400" text-anchor="end">21</text><rect x="278" y="212" width="15" height="15" rx="4" ry="4" fill="none" stroke="#25324B" stroke-width="1.4"/><text x="302" y="224" font-family="DejaVu Sans" font-size="12" fill="#B6C3D8" font-weight="500" text-anchor="start">File</text><text x="482" y="224" font-family="DejaVu Sans" font-size="11" fill="#586581" font-weight="400" text-anchor="end">33</text><rect x="278" y="240" width="15" height="15" rx="4" ry="4" fill="none" stroke="#25324B" stroke-width="1.4"/><text x="302" y="252" font-family="DejaVu Sans" font-size="12" fill="#B6C3D8" font-weight="500" text-anchor="start">Log</text><text x="482" y="252" font-family="DejaVu Sans" font-size="11" fill="#586581" font-weight="400" text-anchor="end">24</text><rect x="278" y="268" width="15" height="15" rx="4" ry="4" fill="none" stroke="#25324B" stroke-width="1.4"/><text x="302" y="280" font-family="DejaVu Sans" font-size="12" fill="#B6C3D8" font-weight="500" text-anchor="start">Image</text><text x="482" y="280" font-family="DejaVu Sans" font-size="11" fill="#586581" font-weight="400" text-anchor="end">8</text><text x="278" y="314" font-family="DejaVu Sans" font-size="10" fill="#586581" font-weight="600" text-anchor="start" letter-spacing="0.6">SQUAD</text><rect x="278" y="332" width="15" height="15" rx="4" ry="4" fill="#3D7DFF" stroke="#3D7DFF" stroke-width="1.4"/><path d="M281.5 339.5 l2.5 2.5 l4.5 -5" stroke="#fff" stroke-width="1.6" fill="none" stroke-linecap="round" stroke-linejoin="round"/><text x="302" y="344" font-family="DejaVu Sans" font-size="12" fill="#E8EEF9" font-weight="600" text-anchor="start">payments-review</text><text x="482" y="344" font-family="DejaVu Sans" font-size="11" fill="#586581" font-weight="400" text-anchor="end">28</text><rect x="278" y="360" width="15" height="15" rx="4" ry="4" fill="none" stroke="#25324B" stroke-width="1.4"/><text x="302" y="372" font-family="DejaVu Sans" font-size="12" fill="#B6C3D8" font-weight="500" text-anchor="start">checkout-hardening</text><text x="482" y="372" font-family="DejaVu Sans" font-size="11" fill="#586581" font-weight="400" text-anchor="end">14</text><rect x="278" y="388" width="15" height="15" rx="4" ry="4" fill="none" stroke="#25324B" stroke-width="1.4"/><text x="302" y="400" font-family="DejaVu Sans" font-size="12" fill="#B6C3D8" font-weight="500" text-anchor="start">docs-sync</text><text x="482" y="400" font-family="DejaVu Sans" font-size="11" fill="#586581" font-weight="400" text-anchor="end">19</text><rect x="278" y="416" width="15" height="15" rx="4" ry="4" fill="none" stroke="#25324B" stroke-width="1.4"/><text x="302" y="428" font-family="DejaVu Sans" font-size="12" fill="#B6C3D8" font-weight="500" text-anchor="start">infra-lint</text><text x="482" y="428" font-family="DejaVu Sans" font-size="11" fill="#586581" font-weight="400" text-anchor="end">22</text><text x="278" y="462" font-family="DejaVu Sans" font-size="10" fill="#586581" font-weight="600" text-anchor="start" letter-spacing="0.6">STATUS</text><rect x="278" y="480" width="15" height="15" rx="4" ry="4" fill="none" stroke="#25324B" stroke-width="1.4"/><text x="302" y="492" font-family="DejaVu Sans" font-size="12" fill="#B6C3D8" font-weight="500" text-anchor="start">Passed</text><text x="482" y="492" font-family="DejaVu Sans" font-size="11" fill="#586581" font-weight="400" text-anchor="end">96</text><rect x="278" y="508" width="15" height="15" rx="4" ry="4" fill="none" stroke="#25324B" stroke-width="1.4"/><text x="302" y="520" font-family="DejaVu Sans" font-size="12" fill="#B6C3D8" font-weight="500" text-anchor="start">Failed</text><text x="482" y="520" font-family="DejaVu Sans" font-size="11" fill="#586581" font-weight="400" text-anchor="end">12</text><rect x="278" y="536" width="15" height="15" rx="4" ry="4" fill="none" stroke="#25324B" stroke-width="1.4"/><text x="302" y="548" font-family="DejaVu Sans" font-size="12" fill="#B6C3D8" font-weight="500" text-anchor="start">Superseded</text><text x="482" y="548" font-family="DejaVu Sans" font-size="11" fill="#586581" font-weight="400" text-anchor="end">20</text><rect x="520" y="84" width="896" height="792" rx="12" ry="12" fill="#131D31" stroke="#25324B" stroke-width="1"/><text x="540" y="112" font-family="DejaVu Sans" font-size="13.5" fill="#E8EEF9" font-weight="700" text-anchor="start">128 builds</text><text x="632" y="112" font-family="DejaVu Sans" font-size="11" fill="#586581" font-weight="400" text-anchor="start">Type: Diff · Squad: payments-review</text><rect x="1246" y="96" width="150" height="30" rx="8" ry="8" fill="#0E1626" stroke="#25324B" stroke-width="1"/><text x="1260" y="116" font-family="DejaVu Sans" font-size="11.5" fill="#B6C3D8" font-weight="400" text-anchor="start">Sort: newest</text><path d="M1382 107 l5 5 l5 -5" stroke="#7E8CA6" stroke-width="1.5" fill="none" stroke-linecap="round" stroke-linejoin="round"/><rect x="540" y="136" width="856" height="1" rx="0" ry="0" fill="#1A2438" stroke="none" stroke-width="1"/><text x="540" y="158" font-family="DejaVu Sans" font-size="9.5" fill="#586581" font-weight="600" text-anchor="start" letter-spacing="0.5">BUILD</text><text x="800" y="158" font-family="DejaVu Sans" font-size="9.5" fill="#586581" font-weight="600" text-anchor="start" letter-spacing="0.5">TYPE</text><text x="900" y="158" font-family="DejaVu Sans" font-size="9.5" fill="#586581" font-weight="600" text-anchor="start" letter-spacing="0.5">SQUAD</text><text x="1080" y="158" font-family="DejaVu Sans" font-size="9.5" fill="#586581" font-weight="600" text-anchor="start" letter-spacing="0.5">RUN</text><text x="1140" y="158" font-family="DejaVu Sans" font-size="9.5" fill="#586581" font-weight="600" text-anchor="start" letter-spacing="0.5">PRODUCED BY</text><text x="1392" y="158" font-family="DejaVu Sans" font-size="9.5" fill="#586581" font-weight="600" text-anchor="end" letter-spacing="0.5">STATUS</text><rect x="540" y="170" width="856" height="1" rx="0" ry="0" fill="#1A2438" stroke="none" stroke-width="1"/><rect x="540" y="183" width="26" height="26" rx="6" ry="6" fill="#34D39922" stroke="#34D39955" stroke-width="1"/><text x="553" y="201" font-family="DejaVu Sans" font-size="12" fill="#34D399" font-weight="700" text-anchor="middle">D</text><text x="576" y="195" font-family="DejaVu Sans Mono" font-size="12.5" fill="#E8EEF9" font-weight="600" text-anchor="start">refund-fix.diff</text><text x="576" y="211" font-family="DejaVu Sans" font-size="10" fill="#586581" font-weight="400" text-anchor="start">+42 −11</text><rect x="800" y="188" width="43.32" height="20" rx="6" ry="6" fill="#34D39918" stroke="#34D39944" stroke-width="1"/><text x="810" y="202" font-family="DejaVu Sans" font-size="11" fill="#34D399" font-weight="400" text-anchor="start">diff</text><text x="900" y="200" font-family="DejaVu Sans" font-size="11.5" fill="#B6C3D8" font-weight="400" text-anchor="start">payments-review</text><text x="1080" y="200" font-family="DejaVu Sans Mono" font-size="11.5" fill="#93B7FF" font-weight="400" text-anchor="start">#142</text><text x="1140" y="200" font-family="DejaVu Sans" font-size="11.5" fill="#7E8CA6" font-weight="400" text-anchor="start">Fixer · Hermes</text><rect x="1325.43" y="188" width="66.57" height="22" rx="11" ry="11" fill="#0F2E24" stroke="#34D39955" stroke-width="1"/><circle cx="1337.43" cy="199" r="3.4" fill="#34D399"/><text x="1346.43" y="203" font-family="DejaVu Sans" font-size="11.5" fill="#34D399" font-weight="600" text-anchor="start">Passed</text><!--pw:66.57--><rect x="532" y="220" width="872" height="44" rx="8" ry="8" fill="#0E1626" stroke="none" stroke-width="1" opacity="0.45"/><rect x="540" y="227" width="26" height="26" rx="6" ry="6" fill="#3D7DFF22" stroke="#3D7DFF55" stroke-width="1"/><text x="553" y="245" font-family="DejaVu Sans" font-size="12" fill="#3D7DFF" font-weight="700" text-anchor="middle">C</text><text x="576" y="239" font-family="DejaVu Sans Mono" font-size="12.5" fill="#E8EEF9" font-weight="600" text-anchor="start">findings.md</text><text x="576" y="255" font-family="DejaVu Sans" font-size="10" fill="#586581" font-weight="400" text-anchor="start">3 findings</text><rect x="800" y="232" width="60.81" height="20" rx="6" ry="6" fill="#3D7DFF18" stroke="#3D7DFF44" stroke-width="1"/><text x="810" y="246" font-family="DejaVu Sans" font-size="11" fill="#3D7DFF" font-weight="400" text-anchor="start">comment</text><text x="900" y="244" font-family="DejaVu Sans" font-size="11.5" fill="#B6C3D8" font-weight="400" text-anchor="start">payments-review</text><text x="1080" y="244" font-family="DejaVu Sans Mono" font-size="11.5" fill="#93B7FF" font-weight="400" text-anchor="start">#142</text><text x="1140" y="244" font-family="DejaVu Sans" font-size="11.5" fill="#7E8CA6" font-weight="400" text-anchor="start">Reviewer · OpenClaw</text><rect x="1325.43" y="232" width="66.57" height="22" rx="11" ry="11" fill="#0F2E24" stroke="#34D39955" stroke-width="1"/><circle cx="1337.43" cy="243" r="3.4" fill="#34D399"/><text x="1346.43" y="247" font-family="DejaVu Sans" font-size="11.5" fill="#34D399" font-weight="600" text-anchor="start">Passed</text><!--pw:66.57--><rect x="540" y="271" width="26" height="26" rx="6" ry="6" fill="#34D39922" stroke="#34D39955" stroke-width="1"/><text x="553" y="289" font-family="DejaVu Sans" font-size="12" fill="#34D399" font-weight="700" text-anchor="middle">D</text><text x="576" y="283" font-family="DejaVu Sans Mono" font-size="12.5" fill="#E8EEF9" font-weight="600" text-anchor="start">lint-fixes.diff</text><text x="576" y="299" font-family="DejaVu Sans" font-size="10" fill="#586581" font-weight="400" text-anchor="start">+8 −3</text><rect x="800" y="276" width="43.32" height="20" rx="6" ry="6" fill="#34D39918" stroke="#34D39944" stroke-width="1"/><text x="810" y="290" font-family="DejaVu Sans" font-size="11" fill="#34D399" font-weight="400" text-anchor="start">diff</text><text x="900" y="288" font-family="DejaVu Sans" font-size="11.5" fill="#B6C3D8" font-weight="400" text-anchor="start">infra-lint</text><text x="1080" y="288" font-family="DejaVu Sans Mono" font-size="11.5" fill="#93B7FF" font-weight="400" text-anchor="start">#143</text><text x="1140" y="288" font-family="DejaVu Sans" font-size="11.5" fill="#7E8CA6" font-weight="400" text-anchor="start">Fixer · Hermes</text><rect x="1325.43" y="276" width="66.57" height="22" rx="11" ry="11" fill="#0F2E24" stroke="#34D39955" stroke-width="1"/><circle cx="1337.43" cy="287" r="3.4" fill="#34D399"/><text x="1346.43" y="291" font-family="DejaVu Sans" font-size="11.5" fill="#34D399" font-weight="600" text-anchor="start">Passed</text><!--pw:66.57--><rect x="532" y="308" width="872" height="44" rx="8" ry="8" fill="#0E1626" stroke="none" stroke-width="1" opacity="0.45"/><rect x="540" y="315" width="26" height="26" rx="6" ry="6" fill="#93B7FF22" stroke="#93B7FF55" stroke-width="1"/><text x="553" y="333" font-family="DejaVu Sans" font-size="12" fill="#93B7FF" font-weight="700" text-anchor="middle">R</text><text x="576" y="327" font-family="DejaVu Sans Mono" font-size="12.5" fill="#E8EEF9" font-weight="600" text-anchor="start">contract.json</text><text x="576" y="343" font-family="DejaVu Sans" font-size="10" fill="#586581" font-weight="400" text-anchor="start">schema v3</text><rect x="800" y="320" width="54.980000000000004" height="20" rx="6" ry="6" fill="#93B7FF18" stroke="#93B7FF44" stroke-width="1"/><text x="810" y="334" font-family="DejaVu Sans" font-size="11" fill="#93B7FF" font-weight="400" text-anchor="start">report</text><text x="900" y="332" font-family="DejaVu Sans" font-size="11.5" fill="#B6C3D8" font-weight="400" text-anchor="start">api-contract</text><text x="1080" y="332" font-family="DejaVu Sans Mono" font-size="11.5" fill="#93B7FF" font-weight="400" text-anchor="start">#138</text><text x="1140" y="332" font-family="DejaVu Sans" font-size="11.5" fill="#7E8CA6" font-weight="400" text-anchor="start">Tester · Hermes</text><rect x="1325.43" y="320" width="66.57" height="22" rx="11" ry="11" fill="#331521" stroke="#FB718555" stroke-width="1"/><circle cx="1337.43" cy="331" r="3.4" fill="#FB7185"/><text x="1346.43" y="335" font-family="DejaVu Sans" font-size="11.5" fill="#FB7185" font-weight="600" text-anchor="start">Failed</text><!--pw:66.57--><rect x="540" y="359" width="26" height="26" rx="6" ry="6" fill="#B6C3D822" stroke="#B6C3D855" stroke-width="1"/><text x="553" y="377" font-family="DejaVu Sans" font-size="12" fill="#B6C3D8" font-weight="700" text-anchor="middle">F</text><text x="576" y="371" font-family="DejaVu Sans Mono" font-size="12.5" fill="#E8EEF9" font-weight="600" text-anchor="start">portal-guide.md</text><text x="576" y="387" font-family="DejaVu Sans" font-size="10" fill="#586581" font-weight="400" text-anchor="start">new file</text><rect x="800" y="364" width="43.32" height="20" rx="6" ry="6" fill="#B6C3D818" stroke="#B6C3D844" stroke-width="1"/><text x="810" y="378" font-family="DejaVu Sans" font-size="11" fill="#B6C3D8" font-weight="400" text-anchor="start">file</text><text x="900" y="376" font-family="DejaVu Sans" font-size="11.5" fill="#B6C3D8" font-weight="400" text-anchor="start">docs-sync</text><text x="1080" y="376" font-family="DejaVu Sans Mono" font-size="11.5" fill="#93B7FF" font-weight="400" text-anchor="start">#141</text><text x="1140" y="376" font-family="DejaVu Sans" font-size="11.5" fill="#7E8CA6" font-weight="400" text-anchor="start">Writer · OpenClaw</text><rect x="1325.43" y="364" width="66.57" height="22" rx="11" ry="11" fill="#0F2E24" stroke="#34D39955" stroke-width="1"/><circle cx="1337.43" cy="375" r="3.4" fill="#34D399"/><text x="1346.43" y="379" font-family="DejaVu Sans" font-size="11.5" fill="#34D399" font-weight="600" text-anchor="start">Passed</text><!--pw:66.57--><rect x="532" y="396" width="872" height="44" rx="8" ry="8" fill="#0E1626" stroke="none" stroke-width="1" opacity="0.45"/><rect x="540" y="403" width="26" height="26" rx="6" ry="6" fill="#93B7FF22" stroke="#93B7FF55" stroke-width="1"/><text x="553" y="421" font-family="DejaVu Sans" font-size="12" fill="#93B7FF" font-weight="700" text-anchor="middle">R</text><text x="576" y="415" font-family="DejaVu Sans Mono" font-size="12.5" fill="#E8EEF9" font-weight="600" text-anchor="start">test-report.xml</text><text x="576" y="431" font-family="DejaVu Sans" font-size="10" fill="#586581" font-weight="400" text-anchor="start">128 tests</text><rect x="800" y="408" width="54.980000000000004" height="20" rx="6" ry="6" fill="#93B7FF18" stroke="#93B7FF44" stroke-width="1"/><text x="810" y="422" font-family="DejaVu Sans" font-size="11" fill="#93B7FF" font-weight="400" text-anchor="start">report</text><text x="900" y="420" font-family="DejaVu Sans" font-size="11.5" fill="#B6C3D8" font-weight="400" text-anchor="start">checkout-hardening</text><text x="1080" y="420" font-family="DejaVu Sans Mono" font-size="11.5" fill="#93B7FF" font-weight="400" text-anchor="start">#139</text><text x="1140" y="420" font-family="DejaVu Sans" font-size="11.5" fill="#7E8CA6" font-weight="400" text-anchor="start">Tester · Hermes</text><rect x="1301.05" y="408" width="90.95" height="22" rx="11" ry="11" fill="#182234" stroke="#64748B55" stroke-width="1"/><circle cx="1313.05" cy="419" r="3.4" fill="#64748B"/><text x="1322.05" y="423" font-family="DejaVu Sans" font-size="11.5" fill="#64748B" font-weight="600" text-anchor="start">Superseded</text><!--pw:90.95--><rect x="540" y="447" width="26" height="26" rx="6" ry="6" fill="#B6C3D822" stroke="#B6C3D855" stroke-width="1"/><text x="553" y="465" font-family="DejaVu Sans" font-size="12" fill="#B6C3D8" font-weight="700" text-anchor="middle">F</text><text x="576" y="459" font-family="DejaVu Sans Mono" font-size="12.5" fill="#E8EEF9" font-weight="600" text-anchor="start">refund.spec.ts</text><text x="576" y="475" font-family="DejaVu Sans" font-size="10" fill="#586581" font-weight="400" text-anchor="start">new file</text><rect x="800" y="452" width="43.32" height="20" rx="6" ry="6" fill="#B6C3D818" stroke="#B6C3D844" stroke-width="1"/><text x="810" y="466" font-family="DejaVu Sans" font-size="11" fill="#B6C3D8" font-weight="400" text-anchor="start">file</text><text x="900" y="464" font-family="DejaVu Sans" font-size="11.5" fill="#B6C3D8" font-weight="400" text-anchor="start">payments-review</text><text x="1080" y="464" font-family="DejaVu Sans Mono" font-size="11.5" fill="#93B7FF" font-weight="400" text-anchor="start">#142</text><text x="1140" y="464" font-family="DejaVu Sans" font-size="11.5" fill="#7E8CA6" font-weight="400" text-anchor="start">Fixer · Hermes</text><rect x="1325.43" y="452" width="66.57" height="22" rx="11" ry="11" fill="#0F2E24" stroke="#34D39955" stroke-width="1"/><circle cx="1337.43" cy="463" r="3.4" fill="#34D399"/><text x="1346.43" y="467" font-family="DejaVu Sans" font-size="11.5" fill="#34D399" font-weight="600" text-anchor="start">Passed</text><!--pw:66.57--><rect x="532" y="484" width="872" height="44" rx="8" ry="8" fill="#0E1626" stroke="none" stroke-width="1" opacity="0.45"/><rect x="540" y="491" width="26" height="26" rx="6" ry="6" fill="#3D7DFF22" stroke="#3D7DFF55" stroke-width="1"/><text x="553" y="509" font-family="DejaVu Sans" font-size="12" fill="#3D7DFF" font-weight="700" text-anchor="middle">C</text><text x="576" y="503" font-family="DejaVu Sans Mono" font-size="12.5" fill="#E8EEF9" font-weight="600" text-anchor="start">triage-notes.md</text><text x="576" y="519" font-family="DejaVu Sans" font-size="10" fill="#586581" font-weight="400" text-anchor="start">6 items</text><rect x="800" y="496" width="60.81" height="20" rx="6" ry="6" fill="#3D7DFF18" stroke="#3D7DFF44" stroke-width="1"/><text x="810" y="510" font-family="DejaVu Sans" font-size="11" fill="#3D7DFF" font-weight="400" text-anchor="start">comment</text><text x="900" y="508" font-family="DejaVu Sans" font-size="11.5" fill="#B6C3D8" font-weight="400" text-anchor="start">nightly-triage</text><text x="1080" y="508" font-family="DejaVu Sans Mono" font-size="11.5" fill="#93B7FF" font-weight="400" text-anchor="start">#137</text><text x="1140" y="508" font-family="DejaVu Sans" font-size="11.5" fill="#7E8CA6" font-weight="400" text-anchor="start">Triager · OpenClaw</text><rect x="1325.43" y="496" width="66.57" height="22" rx="11" ry="11" fill="#0F2E24" stroke="#34D39955" stroke-width="1"/><circle cx="1337.43" cy="507" r="3.4" fill="#34D399"/><text x="1346.43" y="511" font-family="DejaVu Sans" font-size="11.5" fill="#34D399" font-weight="600" text-anchor="start">Passed</text><!--pw:66.57--><rect x="540" y="535" width="26" height="26" rx="6" ry="6" fill="#7E8CA622" stroke="#7E8CA655" stroke-width="1"/><text x="553" y="553" font-family="DejaVu Sans" font-size="12" fill="#7E8CA6" font-weight="700" text-anchor="middle">L</text><text x="576" y="547" font-family="DejaVu Sans Mono" font-size="12.5" fill="#E8EEF9" font-weight="600" text-anchor="start">run-138.log</text><text x="576" y="563" font-family="DejaVu Sans" font-size="10" fill="#586581" font-weight="400" text-anchor="start">audit trail</text><rect x="800" y="540" width="37.49" height="20" rx="6" ry="6" fill="#7E8CA618" stroke="#7E8CA644" stroke-width="1"/><text x="810" y="554" font-family="DejaVu Sans" font-size="11" fill="#7E8CA6" font-weight="400" text-anchor="start">log</text><text x="900" y="552" font-family="DejaVu Sans" font-size="11.5" fill="#B6C3D8" font-weight="400" text-anchor="start">api-contract</text><text x="1080" y="552" font-family="DejaVu Sans Mono" font-size="11.5" fill="#93B7FF" font-weight="400" text-anchor="start">#138</text><text x="1140" y="552" font-family="DejaVu Sans" font-size="11.5" fill="#7E8CA6" font-weight="400" text-anchor="start">controller</text><rect x="1325.43" y="540" width="66.57" height="22" rx="11" ry="11" fill="#0F2E24" stroke="#7E8CA655" stroke-width="1"/><circle cx="1337.43" cy="551" r="3.4" fill="#7E8CA6"/><text x="1346.43" y="555" font-family="DejaVu Sans" font-size="11.5" fill="#7E8CA6" font-weight="600" text-anchor="start">Passed</text><!--pw:66.57--><rect x="532" y="572" width="872" height="44" rx="8" ry="8" fill="#0E1626" stroke="none" stroke-width="1" opacity="0.45"/><rect x="540" y="579" width="26" height="26" rx="6" ry="6" fill="#A78BFA22" stroke="#A78BFA55" stroke-width="1"/><text x="553" y="597" font-family="DejaVu Sans" font-size="12" fill="#A78BFA" font-weight="700" text-anchor="middle">I</text><text x="576" y="591" font-family="DejaVu Sans Mono" font-size="12.5" fill="#E8EEF9" font-weight="600" text-anchor="start">coverage.svg</text><text x="576" y="607" font-family="DejaVu Sans" font-size="10" fill="#586581" font-weight="400" text-anchor="start">+2.1%</text><rect x="800" y="584" width="49.150000000000006" height="20" rx="6" ry="6" fill="#A78BFA18" stroke="#A78BFA44" stroke-width="1"/><text x="810" y="598" font-family="DejaVu Sans" font-size="11" fill="#A78BFA" font-weight="400" text-anchor="start">image</text><text x="900" y="596" font-family="DejaVu Sans" font-size="11.5" fill="#B6C3D8" font-weight="400" text-anchor="start">checkout-hardening</text><text x="1080" y="596" font-family="DejaVu Sans Mono" font-size="11.5" fill="#93B7FF" font-weight="400" text-anchor="start">#139</text><text x="1140" y="596" font-family="DejaVu Sans" font-size="11.5" fill="#7E8CA6" font-weight="400" text-anchor="start">Tester · Hermes</text><rect x="1301.05" y="584" width="90.95" height="22" rx="11" ry="11" fill="#182234" stroke="#64748B55" stroke-width="1"/><circle cx="1313.05" cy="595" r="3.4" fill="#64748B"/><text x="1322.05" y="599" font-family="DejaVu Sans" font-size="11.5" fill="#64748B" font-weight="600" text-anchor="start">Superseded</text><!--pw:90.95--><rect x="540" y="642" width="856" height="1" rx="0" ry="0" fill="#1A2438" stroke="none" stroke-width="1"/><text x="540" y="666" font-family="DejaVu Sans" font-size="11" fill="#586581" font-weight="400" text-anchor="start">Read-only catalog — opening a build shows the artifact inspection view. KSquad never mutates a produced artifact (scope guard · R6).</text></svg>