<svg xmlns="http://www.w3.org/2000/svg" width="1440" height="900" viewBox="0 0 1440 900" font-family="DejaVu Sans"><defs><linearGradient id="ringTop" x1="0" y1="0" x2="0" y2="1"><stop offset="0" stop-color="#93B7FF"/><stop offset="1" stop-color="#3D7DFF"/></linearGradient><linearGradient id="ringBot" x1="0" y1="0" x2="0" y2="1"><stop offset="0" stop-color="#3D7DFF"/><stop offset="1" stop-color="#2E4E8C"/></linearGradient></defs><rect x="0" y="0" width="1440" height="900" rx="0" ry="0" fill="#0B1220" stroke="none" stroke-width="1"/><rect x="0" y="0" width="236" height="900" rx="0" ry="0" fill="#0D1728" stroke="none" stroke-width="1"/><rect x="235" y="0" width="1" height="900" rx="0" ry="0" fill="#25324B" stroke="none" stroke-width="1"/><g transform="translate(30,34) scale(0.33735) translate(-50,-50)"><rect x="29" y="45" width="42" height="42" rx="13" fill="none" stroke="url(#ringBot)" stroke-width="9"/><rect x="29" y="13" width="42" height="42" rx="13" fill="none" stroke="url(#ringTop)" stroke-width="9"/><rect x="41" y="41" width="18" height="18" rx="5" fill="#93B7FF"/><rect x="44.5" y="9.5" width="11" height="11" rx="3" fill="#93B7FF"/><rect x="44.5" y="79.5" width="11" height="11" rx="3" fill="#2E4E8C"/></g><text x="52" y="32" font-family="DejaVu Sans" font-size="17" fill="#E8EEF9" font-weight="700" text-anchor="start" letter-spacing="0.2">K<tspan fill="#3D7DFF">8</tspan>squad</text><text x="52" y="46" font-family="DejaVu Sans" font-size="10" fill="#586581" font-weight="400" text-anchor="start" letter-spacing="0.4">operator console</text><g fill="none" stroke="#7E8CA6" stroke-width="1.6" stroke-linecap="round" stroke-linejoin="round"><path d="M25 98 v14 h14"/><path d="M28 108 l3 -4 l3 2 l4 -6"/></g><text x="52" y="110" font-family="DejaVu Sans" font-size="13.5" fill="#B6C3D8" font-weight="500" text-anchor="start">Dashboard</text><g fill="none" stroke="#7E8CA6" stroke-width="1.6" stroke-linecap="round" stroke-linejoin="round"><rect x="24" y="143" width="6.5" height="6.5" rx="1.5"/><rect x="33.5" y="143" width="6.5" height="6.5" rx="1.5"/><rect x="24" y="152.5" width="6.5" height="6.5" rx="1.5"/><rect x="33.5" y="152.5" width="6.5" height="6.5" rx="1.5"/></g><text x="52" y="156" font-family="DejaVu Sans" font-size="13.5" fill="#B6C3D8" font-weight="500" text-anchor="start">Overview</text><g fill="none" stroke="#7E8CA6" stroke-width="1.6" stroke-linecap="round" stroke-linejoin="round"><path d="M24 197 h4 l2 -5 l3 10 l2 -5 h3"/></g><text x="52" y="202" font-family="DejaVu Sans" font-size="13.5" fill="#B6C3D8" font-weight="500" text-anchor="start">Runs</text><g fill="none" stroke="#7E8CA6" stroke-width="1.6" stroke-linecap="round" stroke-linejoin="round"><path d="M32 236 l6.5 3.5 v7 l-6.5 3.5 l-6.5 -3.5 v-7 z"/><path d="M25.5 239.5 l6.5 3.5 l6.5 -3.5"/><path d="M32 243 v7"/></g><text x="52" y="248" font-family="DejaVu Sans" font-size="13.5" fill="#B6C3D8" font-weight="500" text-anchor="start">Builds</text><g fill="none" stroke="#7E8CA6" stroke-width="1.6" stroke-linecap="round" stroke-linejoin="round"><rect x="25" y="282" width="14" height="10" rx="2.5"/><path d="M29 292 v3 l3 -3"/><path d="M28 285.5 h8 M28 288.5 h5"/></g><text x="52" y="294" font-family="DejaVu Sans" font-size="13.5" fill="#B6C3D8" font-weight="500" text-anchor="start">Discussion</text><g fill="none" stroke="#7E8CA6" stroke-width="1.6" stroke-linecap="round" stroke-linejoin="round"><rect x="25" y="327" width="13" height="16" rx="1.5"/><path d="M25 338 h13"/><path d="M28.5 327 v11"/></g><text x="52" y="340" font-family="DejaVu Sans" font-size="13.5" fill="#B6C3D8" font-weight="500" text-anchor="start">Projects</text><rect x="10" y="362" width="216" height="38" rx="9" ry="9" fill="#16244A" stroke="#3D7DFF44" stroke-width="1"/><rect x="10" y="362" width="3" height="38" rx="2" ry="2" fill="#3D7DFF" stroke="none" stroke-width="1"/><g fill="none" stroke="#93B7FF" stroke-width="1.6" stroke-linecap="round" stroke-linejoin="round"><rect x="25.5" y="377" width="13" height="10" rx="2.5"/><path d="M32 374 v3"/><circle cx="32" cy="374" r="1.2" fill="#93B7FF"/><circle cx="29.5" cy="382" r="1" fill="#93B7FF"/><circle cx="34.5" cy="382" r="1" fill="#93B7FF"/></g><text x="52" y="386" font-family="DejaVu Sans" font-size="13.5" fill="#E8EEF9" font-weight="600" text-anchor="start">Agents</text><g fill="none" stroke="#7E8CA6" stroke-width="1.6" stroke-linecap="round" stroke-linejoin="round"><circle cx="28.5" cy="424" r="3.5"/><path d="M31 426.5 l6 6 M35 430.5 l1.5 -1.5 M37 432.5 l1.5 -1.5"/></g><text x="52" y="432" font-family="DejaVu Sans" font-size="13.5" fill="#B6C3D8" font-weight="500" text-anchor="start">Credentials</text><rect x="16" y="468" width="204" height="40" rx="9" ry="9" fill="#3D7DFF" stroke="none" stroke-width="1"/><text x="112" y="493" font-family="DejaVu Sans" font-size="13.5" fill="#fff" font-weight="600" text-anchor="middle">+  Compose</text><rect x="16" y="826" width="204" height="54" rx="9" ry="9" fill="#0E1626" stroke="#25324B" stroke-width="1"/><circle cx="34" cy="853" r="3.5" fill="#34D399"/><text x="48" y="849" font-family="DejaVu Sans Mono" font-size="12.5" fill="#B6C3D8" font-weight="600" text-anchor="start">prod-euc1</text><text x="48" y="866" font-family="DejaVu Sans" font-size="10.5" fill="#586581" font-weight="400" text-anchor="start">context · connected</text><rect x="236" y="0" width="1204" height="60" rx="0" ry="0" fill="#0B1220" stroke="none" stroke-width="1"/><rect x="236" y="59" width="1204" height="1" rx="0" ry="0" fill="#25324B" stroke="none" stroke-width="1"/><text x="260" y="30" font-family="DejaVu Sans" font-size="17" fill="#E8EEF9" font-weight="700" text-anchor="start">Team configuration</text><text x="260" y="47" font-family="DejaVu Sans" font-size="11.5" fill="#7E8CA6" font-weight="400" text-anchor="start">Your organization · read-only roster (Agent · Role · Runtime)</text><circle cx="1400" cy="30" r="15" fill="#1A2842" stroke="#25324B"/><text x="1400" y="34" font-family="DejaVu Sans" font-size="11.5" fill="#93B7FF" font-weight="700" text-anchor="middle">PN</text><rect x="1283.6" y="15" width="84.4" height="30" rx="8" ry="8" fill="#0E1626" stroke="#25324B" stroke-width="1"/><circle cx="1297.6" cy="30" r="3" fill="#3D7DFF"/><text x="1307.6" y="34" font-family="DejaVu Sans Mono" font-size="12" fill="#B6C3D8" font-weight="400" text-anchor="start">ns: all</text><rect x="1071.6" y="15" width="200" height="30" rx="8" ry="8" fill="#0E1626" stroke="#25324B" stroke-width="1"/><circle cx="1086.6" cy="30" r="4.5" fill="none" stroke="#586581" stroke-width="1.5"/><path d="M1090.1 33.5 l3 3" stroke="#586581" stroke-width="1.5" stroke-linecap="round"/><text x="1101.6" y="34" font-family="DejaVu Sans" font-size="12" fill="#586581" font-weight="400" text-anchor="start">Search agents, teams…</text><text x="260" y="92" font-family="DejaVu Sans" font-size="12" fill="#B6C3D8" font-weight="600" text-anchor="start">IsItObservable Labs  ·  CEO + 4 teams · 15 active agents · reporting lines shown · +15 OpenCode backups</text><text x="1416" y="92" font-family="DejaVu Sans" font-size="11" fill="#586581" font-weight="400" text-anchor="end">Source: Agent registry (live)  ·  read-only</text><rect x="260" y="104" width="1164" height="1" rx="0" ry="0" fill="#25324B" stroke="none" stroke-width="1"/><rect x="260" y="122" width="372" height="296" rx="12" ry="12" fill="#131D31" stroke="#25324B" stroke-width="1"/><path d="M280 184.0 V384.0" stroke="#3D7DFF44" stroke-width="1.4" fill="none"/><text x="278" y="149" font-family="DejaVu Sans" font-size="12.5" fill="#B6C3D8" font-weight="700" text-anchor="start" letter-spacing="0.4">Engineering</text><rect x="560" y="134" width="58" height="20" rx="10.0" ry="10.0" fill="#0E1626" stroke="#25324B" stroke-width="1"/><text x="571" y="148.0" font-family="DejaVu Sans" font-size="10" fill="#7E8CA6" font-weight="600" text-anchor="start">6 agents</text><rect x="274" y="160" width="344" height="1" rx="0" ry="0" fill="#1A2438" stroke="none" stroke-width="1"/><circle cx="280" cy="184.0" r="4" fill="#34D399"/><circle cx="280" cy="184.0" r="4" fill="none" stroke="#34D399" stroke-width="1.5" opacity="0.5"><animate attributeName="r" from="4" to="9" dur="1.6s" repeatCount="indefinite"/><animate attributeName="opacity" from="0.5" to="0" dur="1.6s" repeatCount="indefinite"/></circle><text x="296" y="181" font-family="DejaVu Sans" font-size="13" fill="#E8EEF9" font-weight="700" text-anchor="start">Architect</text><rect x="382.5" y="170" width="42" height="17" rx="8.5" ry="8.5" fill="#3D7DFF" stroke="#3D7DFF" stroke-width="1"/><text x="393.5" y="182.5" font-family="DejaVu Sans" font-size="9" fill="#fff" font-weight="600" text-anchor="start">LEAD</text><text x="296" y="196" font-family="DejaVu Sans" font-size="10.5" fill="#7E8CA6" font-weight="400" text-anchor="start">Solution design  ·  reports to CEO</text><rect x="527.4" y="173.0" width="90.6" height="22" rx="11.0" ry="11.0" fill="#16244A" stroke="#3D7DFF55" stroke-width="1"/><text x="538.4" y="188.0" font-family="DejaVu Sans Mono" font-size="11" fill="#93B7FF" font-weight="600" text-anchor="start">Claude Code</text><rect x="274" y="204" width="344" height="1" rx="0" ry="0" fill="#1A2438" stroke="none" stroke-width="1"/><circle cx="280" cy="224.0" r="4" fill="#64748B"/><text x="296" y="221" font-family="DejaVu Sans" font-size="13" fill="#E8EEF9" font-weight="700" text-anchor="start">Claude Code</text><text x="296" y="236" font-family="DejaVu Sans" font-size="10.5" fill="#7E8CA6" font-weight="400" text-anchor="start">Feature engineer</text><rect x="527.4" y="213.0" width="90.6" height="22" rx="11.0" ry="11.0" fill="#16244A" stroke="#3D7DFF55" stroke-width="1"/><text x="538.4" y="228.0" font-family="DejaVu Sans Mono" font-size="11" fill="#93B7FF" font-weight="600" text-anchor="start">Claude Code</text><rect x="274" y="244" width="344" height="1" rx="0" ry="0" fill="#1A2438" stroke="none" stroke-width="1"/><circle cx="280" cy="264.0" r="4" fill="#64748B"/><text x="296" y="261" font-family="DejaVu Sans" font-size="13" fill="#E8EEF9" font-weight="700" text-anchor="start">Code Reviewer</text><text x="296" y="276" font-family="DejaVu Sans" font-size="10.5" fill="#7E8CA6" font-weight="400" text-anchor="start">Adversarial review</text><rect x="527.4" y="253.0" width="90.6" height="22" rx="11.0" ry="11.0" fill="#16244A" stroke="#3D7DFF55" stroke-width="1"/><text x="538.4" y="268.0" font-family="DejaVu Sans Mono" font-size="11" fill="#93B7FF" font-weight="600" text-anchor="start">Claude Code</text><rect x="274" y="284" width="344" height="1" rx="0" ry="0" fill="#1A2438" stroke="none" stroke-width="1"/><circle cx="280" cy="304.0" r="4" fill="#64748B"/><text x="296" y="301" font-family="DejaVu Sans" font-size="13" fill="#E8EEF9" font-weight="700" text-anchor="start">Testing Architect</text><text x="296" y="316" font-family="DejaVu Sans" font-size="10.5" fill="#7E8CA6" font-weight="400" text-anchor="start">E2E &amp; QA automation</text><rect x="527.4" y="293.0" width="90.6" height="22" rx="11.0" ry="11.0" fill="#16244A" stroke="#3D7DFF55" stroke-width="1"/><text x="538.4" y="308.0" font-family="DejaVu Sans Mono" font-size="11" fill="#93B7FF" font-weight="600" text-anchor="start">Claude Code</text><rect x="274" y="324" width="344" height="1" rx="0" ry="0" fill="#1A2438" stroke="none" stroke-width="1"/><circle cx="280" cy="344.0" r="4" fill="#64748B"/><text x="296" y="341" font-family="DejaVu Sans" font-size="13" fill="#E8EEF9" font-weight="700" text-anchor="start">DevOps Engineer</text><text x="296" y="356" font-family="DejaVu Sans" font-size="10.5" fill="#7E8CA6" font-weight="400" text-anchor="start">CI/CD &amp; deploy</text><rect x="527.4" y="333.0" width="90.6" height="22" rx="11.0" ry="11.0" fill="#16244A" stroke="#3D7DFF55" stroke-width="1"/><text x="538.4" y="348.0" font-family="DejaVu Sans Mono" font-size="11" fill="#93B7FF" font-weight="600" text-anchor="start">Claude Code</text><rect x="274" y="364" width="344" height="1" rx="0" ry="0" fill="#1A2438" stroke="none" stroke-width="1"/><circle cx="280" cy="384.0" r="4" fill="#34D399"/><circle cx="280" cy="384.0" r="4" fill="none" stroke="#34D399" stroke-width="1.5" opacity="0.5"><animate attributeName="r" from="4" to="9" dur="1.6s" repeatCount="indefinite"/><animate attributeName="opacity" from="0.5" to="0" dur="1.6s" repeatCount="indefinite"/></circle><text x="296" y="381" font-family="DejaVu Sans" font-size="13" fill="#E8EEF9" font-weight="700" text-anchor="start">Observability Agent</text><text x="296" y="396" font-family="DejaVu Sans" font-size="10.5" fill="#7E8CA6" font-weight="400" text-anchor="start">OTel &amp; telemetry</text><rect x="527.4" y="373.0" width="90.6" height="22" rx="11.0" ry="11.0" fill="#16244A" stroke="#3D7DFF55" stroke-width="1"/><text x="538.4" y="388.0" font-family="DejaVu Sans Mono" font-size="11" fill="#93B7FF" font-weight="600" text-anchor="start">Claude Code</text><rect x="260" y="434" width="372" height="216" rx="12" ry="12" fill="#131D31" stroke="#25324B" stroke-width="1"/><path d="M280 496.0 V616.0" stroke="#3D7DFF44" stroke-width="1.4" fill="none"/><text x="278" y="461" font-family="DejaVu Sans" font-size="12.5" fill="#B6C3D8" font-weight="700" text-anchor="start" letter-spacing="0.4">Platform &amp; Ops</text><rect x="560" y="446" width="58" height="20" rx="10.0" ry="10.0" fill="#0E1626" stroke="#25324B" stroke-width="1"/><text x="571" y="460.0" font-family="DejaVu Sans" font-size="10" fill="#7E8CA6" font-weight="600" text-anchor="start">4 agents</text><rect x="274" y="472" width="344" height="1" rx="0" ry="0" fill="#1A2438" stroke="none" stroke-width="1"/><circle cx="280" cy="496.0" r="4" fill="#64748B"/><text x="296" y="493" font-family="DejaVu Sans" font-size="13" fill="#E8EEF9" font-weight="700" text-anchor="start">ProxOps</text><rect x="365.5" y="482" width="42" height="17" rx="8.5" ry="8.5" fill="#3D7DFF" stroke="#3D7DFF" stroke-width="1"/><text x="376.5" y="494.5" font-family="DejaVu Sans" font-size="9" fill="#fff" font-weight="600" text-anchor="start">LEAD</text><text x="296" y="508" font-family="DejaVu Sans" font-size="10.5" fill="#7E8CA6" font-weight="400" text-anchor="start">Proxmox / cluster  ·  reports to CEO</text><rect x="527.4" y="485.0" width="90.6" height="22" rx="11.0" ry="11.0" fill="#16244A" stroke="#3D7DFF55" stroke-width="1"/><text x="538.4" y="500.0" font-family="DejaVu Sans Mono" font-size="11" fill="#93B7FF" font-weight="600" text-anchor="start">Claude Code</text><rect x="274" y="516" width="344" height="1" rx="0" ry="0" fill="#1A2438" stroke="none" stroke-width="1"/><circle cx="280" cy="536.0" r="4" fill="#34D399"/><circle cx="280" cy="536.0" r="4" fill="none" stroke="#34D399" stroke-width="1.5" opacity="0.5"><animate attributeName="r" from="4" to="9" dur="1.6s" repeatCount="indefinite"/><animate attributeName="opacity" from="0.5" to="0" dur="1.6s" repeatCount="indefinite"/></circle><text x="296" y="533" font-family="DejaVu Sans" font-size="13" fill="#E8EEF9" font-weight="700" text-anchor="start">GitHub Monitor</text><text x="296" y="548" font-family="DejaVu Sans" font-size="10.5" fill="#7E8CA6" font-weight="400" text-anchor="start">PR / CI watch</text><rect x="553.8" y="525.0" width="64.19999999999999" height="22" rx="11.0" ry="11.0" fill="#0E1626" stroke="#25324B" stroke-width="1"/><text x="564.8" y="540.0" font-family="DejaVu Sans Mono" font-size="11" fill="#B6C3D8" font-weight="600" text-anchor="start">Process</text><rect x="274" y="556" width="344" height="1" rx="0" ry="0" fill="#1A2438" stroke="none" stroke-width="1"/><circle cx="280" cy="576.0" r="4" fill="#64748B"/><text x="296" y="573" font-family="DejaVu Sans" font-size="13" fill="#E8EEF9" font-weight="700" text-anchor="start">Alfred</text><text x="296" y="588" font-family="DejaVu Sans" font-size="10.5" fill="#7E8CA6" font-weight="400" text-anchor="start">Gateway agent</text><rect x="547.2" y="565.0" width="70.8" height="22" rx="11.0" ry="11.0" fill="#0E1626" stroke="#25324B" stroke-width="1"/><text x="558.2" y="580.0" font-family="DejaVu Sans Mono" font-size="11" fill="#B6C3D8" font-weight="600" text-anchor="start">OpenClaw</text><rect x="274" y="596" width="344" height="1" rx="0" ry="0" fill="#1A2438" stroke="none" stroke-width="1"/><circle cx="280" cy="616.0" r="4" fill="#64748B"/><text x="296" y="613" font-family="DejaVu Sans" font-size="13" fill="#E8EEF9" font-weight="700" text-anchor="start">Saver</text><text x="296" y="628" font-family="DejaVu Sans" font-size="10.5" fill="#7E8CA6" font-weight="400" text-anchor="start">Local inference</text><rect x="560.4" y="605.0" width="57.599999999999994" height="22" rx="11.0" ry="11.0" fill="#0E1626" stroke="#25324B" stroke-width="1"/><text x="571.4" y="620.0" font-family="DejaVu Sans Mono" font-size="11" fill="#B6C3D8" font-weight="600" text-anchor="start">Ollama</text><rect x="656" y="122" width="372" height="256" rx="12" ry="12" fill="#131D31" stroke="#25324B" stroke-width="1"/><path d="M676 184.0 V344.0" stroke="#3D7DFF44" stroke-width="1.4" fill="none"/><text x="674" y="149" font-family="DejaVu Sans" font-size="12.5" fill="#B6C3D8" font-weight="700" text-anchor="start" letter-spacing="0.4">Product &amp; Content</text><rect x="956" y="134" width="58" height="20" rx="10.0" ry="10.0" fill="#0E1626" stroke="#25324B" stroke-width="1"/><text x="967" y="148.0" font-family="DejaVu Sans" font-size="10" fill="#7E8CA6" font-weight="600" text-anchor="start">5 agents</text><rect x="670" y="160" width="344" height="1" rx="0" ry="0" fill="#1A2438" stroke="none" stroke-width="1"/><circle cx="676" cy="184.0" r="4" fill="#64748B"/><text x="692" y="181" font-family="DejaVu Sans" font-size="13" fill="#E8EEF9" font-weight="700" text-anchor="start">Product Manager</text><rect x="829.5" y="170" width="42" height="17" rx="8.5" ry="8.5" fill="#3D7DFF" stroke="#3D7DFF" stroke-width="1"/><text x="840.5" y="182.5" font-family="DejaVu Sans" font-size="9" fill="#fff" font-weight="600" text-anchor="start">LEAD</text><text x="692" y="196" font-family="DejaVu Sans" font-size="10.5" fill="#7E8CA6" font-weight="400" text-anchor="start">PRD &amp; scope  ·  reports to CEO</text><rect x="923.4" y="173.0" width="90.6" height="22" rx="11.0" ry="11.0" fill="#16244A" stroke="#3D7DFF55" stroke-width="1"/><text x="934.4" y="188.0" font-family="DejaVu Sans Mono" font-size="11" fill="#93B7FF" font-weight="600" text-anchor="start">Claude Code</text><rect x="670" y="204" width="344" height="1" rx="0" ry="0" fill="#1A2438" stroke="none" stroke-width="1"/><circle cx="676" cy="224.0" r="4" fill="#34D399"/><circle cx="676" cy="224.0" r="4" fill="none" stroke="#34D399" stroke-width="1.5" opacity="0.5"><animate attributeName="r" from="4" to="9" dur="1.6s" repeatCount="indefinite"/><animate attributeName="opacity" from="0.5" to="0" dur="1.6s" repeatCount="indefinite"/></circle><text x="692" y="221" font-family="DejaVu Sans" font-size="13" fill="#E8EEF9" font-weight="700" text-anchor="start">Story Writer</text><text x="692" y="236" font-family="DejaVu Sans" font-size="10.5" fill="#7E8CA6" font-weight="400" text-anchor="start">Epics &amp; stories</text><rect x="923.4" y="213.0" width="90.6" height="22" rx="11.0" ry="11.0" fill="#16244A" stroke="#3D7DFF55" stroke-width="1"/><text x="934.4" y="228.0" font-family="DejaVu Sans Mono" font-size="11" fill="#93B7FF" font-weight="600" text-anchor="start">Claude Code</text><rect x="670" y="244" width="344" height="1" rx="0" ry="0" fill="#1A2438" stroke="none" stroke-width="1"/><circle cx="676" cy="264.0" r="4" fill="#64748B"/><text x="692" y="261" font-family="DejaVu Sans" font-size="13" fill="#E8EEF9" font-weight="700" text-anchor="start">Content Writer</text><text x="692" y="276" font-family="DejaVu Sans" font-size="10.5" fill="#7E8CA6" font-weight="400" text-anchor="start">Docs &amp; copy</text><rect x="923.4" y="253.0" width="90.6" height="22" rx="11.0" ry="11.0" fill="#16244A" stroke="#3D7DFF55" stroke-width="1"/><text x="934.4" y="268.0" font-family="DejaVu Sans Mono" font-size="11" fill="#93B7FF" font-weight="600" text-anchor="start">Claude Code</text><rect x="670" y="284" width="344" height="1" rx="0" ry="0" fill="#1A2438" stroke="none" stroke-width="1"/><circle cx="676" cy="304.0" r="4" fill="#34D399"/><circle cx="676" cy="304.0" r="4" fill="none" stroke="#34D399" stroke-width="1.5" opacity="0.5"><animate attributeName="r" from="4" to="9" dur="1.6s" repeatCount="indefinite"/><animate attributeName="opacity" from="0.5" to="0" dur="1.6s" repeatCount="indefinite"/></circle><text x="692" y="301" font-family="DejaVu Sans" font-size="13" fill="#E8EEF9" font-weight="700" text-anchor="start">Graphic Designer</text><text x="692" y="316" font-family="DejaVu Sans" font-size="10.5" fill="#7E8CA6" font-weight="400" text-anchor="start">UX &amp; visual system</text><rect x="923.4" y="293.0" width="90.6" height="22" rx="11.0" ry="11.0" fill="#16244A" stroke="#3D7DFF55" stroke-width="1"/><text x="934.4" y="308.0" font-family="DejaVu Sans Mono" font-size="11" fill="#93B7FF" font-weight="600" text-anchor="start">Claude Code</text><rect x="670" y="324" width="344" height="1" rx="0" ry="0" fill="#1A2438" stroke="none" stroke-width="1"/><circle cx="676" cy="344.0" r="4" fill="#64748B"/><text x="692" y="341" font-family="DejaVu Sans" font-size="13" fill="#E8EEF9" font-weight="700" text-anchor="start">Video Creator</text><text x="692" y="356" font-family="DejaVu Sans" font-size="10.5" fill="#7E8CA6" font-weight="400" text-anchor="start">Media production</text><rect x="923.4" y="333.0" width="90.6" height="22" rx="11.0" ry="11.0" fill="#16244A" stroke="#3D7DFF55" stroke-width="1"/><text x="934.4" y="348.0" font-family="DejaVu Sans Mono" font-size="11" fill="#93B7FF" font-weight="600" text-anchor="start">Claude Code</text><rect x="656" y="394" width="372" height="176" rx="12" ry="12" fill="#131D31" stroke="#25324B" stroke-width="1"/><path d="M676 456.0 V536.0" stroke="#3D7DFF44" stroke-width="1.4" fill="none"/><text x="674" y="421" font-family="DejaVu Sans" font-size="12.5" fill="#B6C3D8" font-weight="700" text-anchor="start" letter-spacing="0.4">Research</text><rect x="956" y="406" width="58" height="20" rx="10.0" ry="10.0" fill="#0E1626" stroke="#25324B" stroke-width="1"/><text x="967" y="420.0" font-family="DejaVu Sans" font-size="10" fill="#7E8CA6" font-weight="600" text-anchor="start">3 agents</text><rect x="670" y="432" width="344" height="1" rx="0" ry="0" fill="#1A2438" stroke="none" stroke-width="1"/><circle cx="676" cy="456.0" r="4" fill="#64748B"/><text x="692" y="453" font-family="DejaVu Sans" font-size="13" fill="#E8EEF9" font-weight="700" text-anchor="start">Research Engineer</text><rect x="846.5" y="442" width="42" height="17" rx="8.5" ry="8.5" fill="#3D7DFF" stroke="#3D7DFF" stroke-width="1"/><text x="857.5" y="454.5" font-family="DejaVu Sans" font-size="9" fill="#fff" font-weight="600" text-anchor="start">LEAD</text><text x="692" y="468" font-family="DejaVu Sans" font-size="10.5" fill="#7E8CA6" font-weight="400" text-anchor="start">Tech &amp; domain research  ·  reports to CEO</text><rect x="923.4" y="445.0" width="90.6" height="22" rx="11.0" ry="11.0" fill="#16244A" stroke="#3D7DFF55" stroke-width="1"/><text x="934.4" y="460.0" font-family="DejaVu Sans Mono" font-size="11" fill="#93B7FF" font-weight="600" text-anchor="start">Claude Code</text><rect x="670" y="476" width="344" height="1" rx="0" ry="0" fill="#1A2438" stroke="none" stroke-width="1"/><circle cx="676" cy="496.0" r="4" fill="#64748B"/><text x="692" y="493" font-family="DejaVu Sans" font-size="13" fill="#E8EEF9" font-weight="700" text-anchor="start">Brainstormer</text><text x="692" y="508" font-family="DejaVu Sans" font-size="10.5" fill="#7E8CA6" font-weight="400" text-anchor="start">Ideation &amp; concepts</text><rect x="923.4" y="485.0" width="90.6" height="22" rx="11.0" ry="11.0" fill="#16244A" stroke="#3D7DFF55" stroke-width="1"/><text x="934.4" y="500.0" font-family="DejaVu Sans Mono" font-size="11" fill="#93B7FF" font-weight="600" text-anchor="start">Claude Code</text><rect x="670" y="516" width="344" height="1" rx="0" ry="0" fill="#1A2438" stroke="none" stroke-width="1"/><circle cx="676" cy="536.0" r="4" fill="#64748B"/><text x="692" y="533" font-family="DejaVu Sans" font-size="13" fill="#E8EEF9" font-weight="700" text-anchor="start">Challenger</text><text x="692" y="548" font-family="DejaVu Sans" font-size="10.5" fill="#7E8CA6" font-weight="400" text-anchor="start">Red-team / critique</text><rect x="923.4" y="525.0" width="90.6" height="22" rx="11.0" ry="11.0" fill="#16244A" stroke="#3D7DFF55" stroke-width="1"/><text x="934.4" y="540.0" font-family="DejaVu Sans Mono" font-size="11" fill="#93B7FF" font-weight="600" text-anchor="start">Claude Code</text><rect x="1052" y="122" width="372" height="212" rx="12" ry="12" fill="#131D31" stroke="#25324B" stroke-width="1"/><text x="1070" y="149" font-family="DejaVu Sans" font-size="12.5" fill="#B6C3D8" font-weight="700" text-anchor="start" letter-spacing="0.4">REPORTING LINE</text><text x="1410" y="149" font-family="DejaVu Sans" font-size="10" fill="#586581" font-weight="400" text-anchor="end">leadership</text><rect x="1066" y="160" width="344" height="1" rx="0" ry="0" fill="#1A2438" stroke="none" stroke-width="1"/><rect x="1070" y="167" width="134" height="26" rx="6" ry="6" fill="#16244A" stroke="#3D7DFF66" stroke-width="1"/><text x="1081" y="184.0" font-family="DejaVu Sans" font-size="11.5" fill="#93B7FF" font-weight="600" text-anchor="start">BigBoss · CEO</text><path d="M1082 193 V300" stroke="#3D7DFF66" stroke-width="1.4" fill="none"/><path d="M1082 210 h12" stroke="#3D7DFF66" stroke-width="1.4" fill="none"/><circle cx="1094" cy="210" r="2.6" fill="#93B7FF"/><text x="1102" y="214" font-family="DejaVu Sans" font-size="12" fill="#E8EEF9" font-weight="700" text-anchor="start">Architect</text><text x="1408" y="214" font-family="DejaVu Sans" font-size="9.5" fill="#7E8CA6" font-weight="400" text-anchor="end">Engineering</text><path d="M1082 240 h12" stroke="#3D7DFF66" stroke-width="1.4" fill="none"/><circle cx="1094" cy="240" r="2.6" fill="#93B7FF"/><text x="1102" y="244" font-family="DejaVu Sans" font-size="12" fill="#E8EEF9" font-weight="700" text-anchor="start">Research Engineer</text><text x="1408" y="244" font-family="DejaVu Sans" font-size="9.5" fill="#7E8CA6" font-weight="400" text-anchor="end">Research</text><path d="M1082 270 h12" stroke="#3D7DFF66" stroke-width="1.4" fill="none"/><circle cx="1094" cy="270" r="2.6" fill="#93B7FF"/><text x="1102" y="274" font-family="DejaVu Sans" font-size="12" fill="#E8EEF9" font-weight="700" text-anchor="start">Product Manager</text><text x="1408" y="274" font-family="DejaVu Sans" font-size="9.5" fill="#7E8CA6" font-weight="400" text-anchor="end">Product &amp; Content</text><path d="M1082 300 h12" stroke="#3D7DFF66" stroke-width="1.4" fill="none"/><circle cx="1094" cy="300" r="2.6" fill="#93B7FF"/><text x="1102" y="304" font-family="DejaVu Sans" font-size="12" fill="#E8EEF9" font-weight="700" text-anchor="start">ProxOps</text><text x="1408" y="304" font-family="DejaVu Sans" font-size="9.5" fill="#7E8CA6" font-weight="400" text-anchor="end">Platform &amp; Ops</text><rect x="1052" y="350" width="372" height="252" rx="12" ry="12" fill="#131D31" stroke="#25324B" stroke-width="1"/><text x="1070" y="377" font-family="DejaVu Sans" font-size="12.5" fill="#B6C3D8" font-weight="700" text-anchor="start" letter-spacing="0.4">RUNTIMES</text><rect x="1066" y="388" width="344" height="1" rx="0" ry="0" fill="#1A2438" stroke="none" stroke-width="1"/><rect x="1070" y="396" width="90.6" height="22" rx="11.0" ry="11.0" fill="#16244A" stroke="#3D7DFF55" stroke-width="1"/><text x="1081" y="411.0" font-family="DejaVu Sans Mono" font-size="11" fill="#93B7FF" font-weight="600" text-anchor="start">Claude Code</text><text x="1172.6" y="411" font-family="DejaVu Sans" font-size="10.5" fill="#7E8CA6" font-weight="400" text-anchor="start">14 agents · claude_local</text><rect x="1070" y="430" width="70.8" height="22" rx="11.0" ry="11.0" fill="#0E1626" stroke="#25324B" stroke-width="1"/><text x="1081" y="445.0" font-family="DejaVu Sans Mono" font-size="11" fill="#B6C3D8" font-weight="600" text-anchor="start">OpenCode</text><text x="1152.8" y="445" font-family="DejaVu Sans" font-size="10.5" fill="#7E8CA6" font-weight="400" text-anchor="start">15 backups · opencode_local</text><rect x="1070" y="464" width="57.599999999999994" height="22" rx="11.0" ry="11.0" fill="#0E1626" stroke="#25324B" stroke-width="1"/><text x="1081" y="479.0" font-family="DejaVu Sans Mono" font-size="11" fill="#B6C3D8" font-weight="600" text-anchor="start">Ollama</text><text x="1139.6" y="479" font-family="DejaVu Sans" font-size="10.5" fill="#7E8CA6" font-weight="400" text-anchor="start">Saver · ollama_agent</text><rect x="1070" y="498" width="70.8" height="22" rx="11.0" ry="11.0" fill="#0E1626" stroke="#25324B" stroke-width="1"/><text x="1081" y="513.0" font-family="DejaVu Sans Mono" font-size="11" fill="#B6C3D8" font-weight="600" text-anchor="start">OpenClaw</text><text x="1152.8" y="513" font-family="DejaVu Sans" font-size="10.5" fill="#7E8CA6" font-weight="400" text-anchor="start">Alfred · openclaw_gateway</text><rect x="1070" y="532" width="64.19999999999999" height="22" rx="11.0" ry="11.0" fill="#0E1626" stroke="#25324B" stroke-width="1"/><text x="1081" y="547.0" font-family="DejaVu Sans Mono" font-size="11" fill="#B6C3D8" font-weight="600" text-anchor="start">Process</text><text x="1146.2" y="547" font-family="DejaVu Sans" font-size="10.5" fill="#7E8CA6" font-weight="400" text-anchor="start">GitHub Monitor · CI watcher</text><rect x="1066" y="568" width="344" height="1" rx="0" ry="0" fill="#1A2438" stroke="none" stroke-width="1"/><text x="1070" y="590" font-family="DejaVu Sans" font-size="10" fill="#586581" font-weight="400" text-anchor="start">Each primary has a 1:1 OpenCode backup (failover).</text><text x="260" y="872" font-family="DejaVu Sans" font-size="11" fill="#586581" font-weight="400" text-anchor="start">★ LEAD = team lead (reports to CEO) · members report to their lead (spine in each card).  Read-only — manage in Compose. Live status via SSE.</text></svg>