<svg xmlns="http://www.w3.org/2000/svg" width="1440" height="900" viewBox="0 0 1440 900" font-family="DejaVu Sans"><rect x="0" y="0" width="1440" height="900" rx="0" ry="0" fill="#F6F8FC" stroke="none" stroke-width="1"/><rect x="0" y="0" width="236" height="900" rx="0" ry="0" fill="#EEF2F8" stroke="none" stroke-width="1"/><rect x="235" y="0" width="1" height="900" rx="0" ry="0" fill="#D4DCEA" stroke="none" stroke-width="1"/><line x1="40" y1="264" x2="40" y2="420" stroke="#D4DCEA" stroke-width="1.4"/><line x1="40" y1="420" x2="48" y2="420" stroke="#D4DCEA" stroke-width="1.4"/><line x1="40" y1="388" x2="48" y2="388" stroke="#D4DCEA" stroke-width="1.4"/><line x1="40" y1="356" x2="48" y2="356" stroke="#D4DCEA" stroke-width="1.4"/><line x1="40" y1="324" x2="48" y2="324" stroke="#D4DCEA" stroke-width="1.4"/><line x1="40" y1="292" x2="48" y2="292" stroke="#D4DCEA" stroke-width="1.4"/><g transform="translate(30,34) scale(0.33735) translate(-50,-50)"><rect x="29" y="45" width="42" height="42" rx="13" fill="none" stroke="#3D7DFF" stroke-width="9"/><rect x="29" y="13" width="42" height="42" rx="13" fill="none" stroke="#3D7DFF" stroke-width="9"/><rect x="45" y="25.5" width="10" height="10" rx="2.8" fill="#2563EB"/><rect x="45" y="64.5" width="10" height="10" rx="2.8" fill="#2563EB"/><rect x="42.5" y="42.5" width="15" height="15" rx="4.2" fill="#2563EB"/></g><text x="52" y="32" font-family="DejaVu Sans" font-size="17" fill="#0B1220" font-weight="700" text-anchor="start" letter-spacing="0.2">KSquad</text><text x="52" y="46" font-family="DejaVu Sans" font-size="10" fill="#6C7688" font-weight="400" text-anchor="start" letter-spacing="0.4">operator console</text><text x="20" y="82" font-family="DejaVu Sans" font-size="10" fill="#6C7688" font-weight="700" text-anchor="start" letter-spacing="1.6">GLOBAL</text><g fill="none" stroke="#64748B" stroke-width="1.6" stroke-linecap="round" stroke-linejoin="round"><line x1="24" y1="120" x2="24" y2="115"/><line x1="30" y1="120" x2="30" y2="111"/><line x1="36" y1="120" x2="36" y2="114"/><line x1="22" y1="122" x2="38" y2="122"/></g><text x="52" y="119.5" font-family="DejaVu Sans" font-size="13.5" fill="#33415C" font-weight="500" text-anchor="start">Dashboard</text><g fill="none" stroke="#64748B" stroke-width="1.6" stroke-linecap="round" stroke-linejoin="round"><rect x="23" y="144" width="6.4" height="6.4" rx="1.3"/><rect x="30.6" y="144" width="6.4" height="6.4" rx="1.3"/><rect x="23" y="151.6" width="6.4" height="6.4" rx="1.3"/><rect x="30.6" y="151.6" width="6.4" height="6.4" rx="1.3"/></g><text x="52" y="155.5" font-family="DejaVu Sans" font-size="13.5" fill="#33415C" font-weight="500" text-anchor="start">Overview</text><g fill="none" stroke="#64748B" stroke-width="1.5" stroke-linecap="round" stroke-linejoin="round"><circle cx="30" cy="182.5" r="2.3"/><circle cx="24" cy="191" r="2"/><circle cx="36" cy="191" r="2"/><line x1="30" y1="185" x2="25" y2="189"/><line x1="30" y1="185" x2="35" y2="189"/></g><text x="52" y="191.5" font-family="DejaVu Sans" font-size="13.5" fill="#33415C" font-weight="500" text-anchor="start">Agents</text><rect x="150" y="177" width="66" height="20" rx="10.0" ry="10.0" fill="#F1F5FA" stroke="#D4DCEA" stroke-width="1"/><text x="161" y="191.0" font-family="DejaVu Sans" font-size="9.5" fill="#64748B" font-weight="600" text-anchor="start">filter ▾</text><text x="20" y="212" font-family="DejaVu Sans" font-size="10" fill="#6C7688" font-weight="700" text-anchor="start" letter-spacing="1.6">PROJECT</text><rect x="12" y="230" width="212" height="40" rx="10" ry="10" fill="#E5EDFF" stroke="#3D7DFF" stroke-width="1.6"/><rect x="12" y="230" width="3" height="40" rx="2" ry="2" fill="#3D7DFF" stroke="none" stroke-width="1"/><g fill="none" stroke="#2563EB" stroke-width="1.6" stroke-linecap="round" stroke-linejoin="round"><path d="M24 245 h5 l2 2.5 h8 v9.5 a1.4 1.4 0 0 1 -1.4 1.4 h-12.2 a1.4 1.4 0 0 1 -1.4 -1.4 z"/></g><text x="50" y="245" font-family="DejaVu Sans" font-size="13" fill="#0B1220" font-weight="700" text-anchor="start">ksquad-console</text><text x="50" y="260" font-family="DejaVu Sans" font-size="9.5" fill="#6C7688" font-weight="400" text-anchor="start">project dashboard · switch ▾</text><path d="M208 246 l4 4 l4 -4" fill="none" stroke="#64748B" stroke-width="1.6" stroke-linecap="round" stroke-linejoin="round"/><g fill="none" stroke="#64748B" stroke-width="1.6" stroke-linecap="round" stroke-linejoin="round"><path d="M54 285 l7 4 v6 l-7 4 l-7 -4 v-6 z"/><path d="M47 289 l7 4 l7 -4"/><path d="M54 293 v6.5"/></g><text x="74" y="296.5" font-family="DejaVu Sans" font-size="12.5" fill="#33415C" font-weight="500" text-anchor="start">Build</text><g fill="none" stroke="#64748B" stroke-width="1.5" stroke-linecap="round" stroke-linejoin="round"><path d="M48 317 h6 l4 4 v9.7 a1.3 1.3 0 0 1 -1.3 1.3 h-8.7 a1.3 1.3 0 0 1 -1.3 -1.3 v-12.4 a1.3 1.3 0 0 1 1.3 -1.3 z"/><path d="M54 317 v4 h4"/><line x1="51" y1="325" x2="57" y2="325"/><line x1="51" y1="328" x2="57" y2="328"/></g><text x="74" y="328.5" font-family="DejaVu Sans" font-size="12.5" fill="#33415C" font-weight="500" text-anchor="start">Files</text><g fill="none" stroke="#64748B" stroke-width="1.5" stroke-linecap="round" stroke-linejoin="round"><rect x="47" y="349" width="14" height="14" rx="2.5"/><path d="M50 352.8 l1.6 1.6 l3 -3.4"/><line x1="50" y1="359" x2="58.5" y2="359"/></g><text x="74" y="360.5" font-family="DejaVu Sans" font-size="12.5" fill="#33415C" font-weight="500" text-anchor="start">Tickets</text><g fill="none" stroke="#64748B" stroke-width="1.6" stroke-linecap="round" stroke-linejoin="round"><path d="M46 388 h3 l2 -5 l3 10 l2 -5 h3"/></g><text x="74" y="392.5" font-family="DejaVu Sans" font-size="12.5" fill="#33415C" font-weight="500" text-anchor="start">Runs</text><g fill="none" stroke="#64748B" stroke-width="1.5" stroke-linecap="round" stroke-linejoin="round"><path d="M47 414 h14 a1.5 1.5 0 0 1 1.5 1.5 v6 a1.5 1.5 0 0 1 -1.5 1.5 h-8 l-4 3.2 v-3.2 h-2 a1.5 1.5 0 0 1 -1.5 -1.5 v-6 a1.5 1.5 0 0 1 1.5 -1.5 z"/></g><text x="74" y="424.5" font-family="DejaVu Sans" font-size="12.5" fill="#33415C" font-weight="500" text-anchor="start">Discussion</text><text x="20" y="442" font-family="DejaVu Sans" font-size="10" fill="#6C7688" font-weight="700" text-anchor="start" letter-spacing="1.6">SETTINGS</text><g fill="none" stroke="#64748B" stroke-width="1.5" stroke-linecap="round" stroke-linejoin="round"><circle cx="30" cy="475" r="3.4"/><line x1="34.2" y1="475.0" x2="37.2" y2="475.0"/><line x1="32.1" y1="478.6" x2="33.6" y2="481.2"/><line x1="27.9" y1="478.6" x2="26.4" y2="481.2"/><line x1="25.8" y1="475.0" x2="22.8" y2="475.0"/><line x1="27.9" y1="471.4" x2="26.4" y2="468.8"/><line x1="32.1" y1="471.4" x2="33.6" y2="468.8"/></g><text x="52" y="479.5" font-family="DejaVu Sans" font-size="13.5" fill="#33415C" font-weight="500" text-anchor="start">Configuration</text><g fill="none" stroke="#64748B" stroke-width="1.5" stroke-linecap="round" stroke-linejoin="round"><circle cx="26.5" cy="509" r="3.2"/><path d="M28.8 511.3 l6 6 M33 515.5 l1.6 -1.6 M34.8 517.3 l1.6 -1.6"/></g><text x="52" y="515.5" font-family="DejaVu Sans" font-size="13.5" fill="#33415C" font-weight="500" text-anchor="start">Credentials</text><rect x="16" y="820" width="204" height="40" rx="9" ry="9" fill="#3D7DFF" stroke="none" stroke-width="1"/><text x="112" y="845" font-family="DejaVu Sans" font-size="13.5" fill="#fff" font-weight="600" text-anchor="middle">+  Compose</text><rect x="16" y="868" width="204" height="24" rx="8" ry="8" fill="#F1F5FA" stroke="#D4DCEA" stroke-width="1"/><circle cx="32" cy="880" r="3" fill="#059669"/><text x="44" y="884" font-family="DejaVu Sans Mono" font-size="10.5" fill="#64748B" font-weight="400" text-anchor="start">prod-euc1 · connected</text><rect x="236" y="0" width="1204" height="60" rx="0" ry="0" fill="#F6F8FC" stroke="none" stroke-width="1"/><rect x="236" y="59" width="1204" height="1" rx="0" ry="0" fill="#D4DCEA" stroke="none" stroke-width="1"/><rect x="260" y="11" width="147.60000000000002" height="28" rx="8" ry="8" fill="#F1F5FA" stroke="#D4DCEA" stroke-width="1"/><g fill="none" stroke="#2563EB" stroke-width="1.6" stroke-linecap="round" stroke-linejoin="round"><path d="M267 20 h5 l2 2.5 h8 v9.5 a1.4 1.4 0 0 1 -1.4 1.4 h-12.2 a1.4 1.4 0 0 1 -1.4 -1.4 z"/></g><text x="287" y="29.5" font-family="DejaVu Sans" font-size="12.5" fill="#0B1220" font-weight="600" text-anchor="start">ksquad-console</text><path d="M393.6 24 l4 4 l4 -4" fill="none" stroke="#64748B" stroke-width="1.5" stroke-linecap="round" stroke-linejoin="round"/><text x="419.6" y="30" font-family="DejaVu Sans" font-size="15" fill="#6C7688" font-weight="600" text-anchor="start">›</text><text x="435.6" y="30" font-family="DejaVu Sans" font-size="14" fill="#0B1220" font-weight="700" text-anchor="start">Navigation</text><text x="260" y="48" font-family="DejaVu Sans" font-size="11" fill="#64748B" font-weight="400" text-anchor="start">Information architecture · Project-rooted hierarchy</text><circle cx="1400" cy="30" r="15" fill="#ECF1F8" stroke="#D4DCEA"/><text x="1400" y="34" font-family="DejaVu Sans" font-size="11.5" fill="#2563EB" font-weight="700" text-anchor="middle">PN</text><rect x="1283.6" y="15" width="84.4" height="30" rx="8" ry="8" fill="#F1F5FA" stroke="#D4DCEA" stroke-width="1"/><circle cx="1297.6" cy="30" r="3" fill="#3D7DFF"/><text x="1307.6" y="34" font-family="DejaVu Sans Mono" font-size="12" fill="#33415C" font-weight="400" text-anchor="start">ns: all</text><rect x="1071.6" y="15" width="200" height="30" rx="8" ry="8" fill="#F1F5FA" stroke="#D4DCEA" stroke-width="1"/><circle cx="1086.6" cy="30" r="4.5" fill="none" stroke="#6C7688" stroke-width="1.5"/><path d="M1090.1 33.5 l3 3" stroke="#6C7688" stroke-width="1.5" stroke-linecap="round"/><text x="1101.6" y="34" font-family="DejaVu Sans" font-size="12" fill="#6C7688" font-weight="400" text-anchor="start">Search tickets, runs, artifacts…</text><text x="260" y="90" font-family="DejaVu Sans" font-size="20" fill="#0B1220" font-weight="700" text-anchor="start">Navigation IA — Project-rooted hierarchy</text><text x="260" y="110" font-family="DejaVu Sans" font-size="12" fill="#64748B" font-weight="400" text-anchor="start">The console is organized by a selected Project, not a flat screen list. Dashboard + Overview stay global; everything under Project is scoped to it.</text><rect x="260" y="122" width="1164" height="1" rx="0" ry="0" fill="#D4DCEA" stroke="none" stroke-width="1"/><rect x="260" y="140" width="700" height="198" rx="13" ry="13" fill="#FFFFFF" stroke="#D4DCEA" stroke-width="1"/><text x="278" y="166" font-family="DejaVu Sans" font-size="12.5" fill="#33415C" font-weight="700" text-anchor="start" letter-spacing="0.6">GLOBAL</text><text x="340" y="166" font-family="DejaVu Sans" font-size="10.5" fill="#6C7688" font-weight="400" text-anchor="start">fleet &amp; squad — not project-scoped</text><rect x="274" y="180" width="672" height="1" rx="0" ry="0" fill="#ECF1F8" stroke="none" stroke-width="1"/><rect x="272" y="196" width="3" height="28" rx="2" ry="2" fill="#64748B" stroke="none" stroke-width="1"/><g fill="none" stroke="#64748B" stroke-width="1.6" stroke-linecap="round" stroke-linejoin="round"><line x1="288" y1="215" x2="288" y2="210"/><line x1="294" y1="215" x2="294" y2="206"/><line x1="300" y1="215" x2="300" y2="209"/><line x1="286" y1="217" x2="302" y2="217"/></g><text x="312" y="208" font-family="DejaVu Sans" font-size="13.5" fill="#0B1220" font-weight="700" text-anchor="start">Dashboard</text><text x="312" y="223" font-family="DejaVu Sans" font-size="10.5" fill="#64748B" font-weight="400" text-anchor="start">fleet health · consumption · live agent↔task↔project map</text><rect x="744" y="200" width="84" height="20" rx="10.0" ry="10.0" fill="#F1F5FA" stroke="#D4DCEA" stroke-width="1"/><text x="755" y="214.0" font-family="DejaVu Sans Mono" font-size="10" fill="#33415C" font-weight="600" text-anchor="start">screen 8.8</text><rect x="836" y="200" width="66" height="20" rx="10.0" ry="10.0" fill="#F1F5FA" stroke="#D4DCEA" stroke-width="1"/><text x="847" y="214.0" font-family="DejaVu Sans" font-size="10" fill="#64748B" font-weight="600" text-anchor="start">global</text><rect x="272" y="242" width="3" height="28" rx="2" ry="2" fill="#64748B" stroke="none" stroke-width="1"/><g fill="none" stroke="#64748B" stroke-width="1.6" stroke-linecap="round" stroke-linejoin="round"><rect x="287" y="249" width="6.4" height="6.4" rx="1.3"/><rect x="294.6" y="249" width="6.4" height="6.4" rx="1.3"/><rect x="287" y="256.6" width="6.4" height="6.4" rx="1.3"/><rect x="294.6" y="256.6" width="6.4" height="6.4" rx="1.3"/></g><text x="312" y="254" font-family="DejaVu Sans" font-size="13.5" fill="#0B1220" font-weight="700" text-anchor="start">Overview</text><text x="312" y="269" font-family="DejaVu Sans" font-size="10.5" fill="#64748B" font-weight="400" text-anchor="start">squad status · active agents · recent activity</text><rect x="744" y="246" width="84" height="20" rx="10.0" ry="10.0" fill="#F1F5FA" stroke="#D4DCEA" stroke-width="1"/><text x="755" y="260.0" font-family="DejaVu Sans Mono" font-size="10" fill="#33415C" font-weight="600" text-anchor="start">screen 8.1</text><rect x="836" y="246" width="66" height="20" rx="10.0" ry="10.0" fill="#F1F5FA" stroke="#D4DCEA" stroke-width="1"/><text x="847" y="260.0" font-family="DejaVu Sans" font-size="10" fill="#64748B" font-weight="600" text-anchor="start">global</text><rect x="272" y="288" width="3" height="28" rx="2" ry="2" fill="#64748B" stroke="none" stroke-width="1"/><g fill="none" stroke="#64748B" stroke-width="1.5" stroke-linecap="round" stroke-linejoin="round"><circle cx="294" cy="297.5" r="2.3"/><circle cx="288" cy="306" r="2"/><circle cx="300" cy="306" r="2"/><line x1="294" y1="300" x2="289" y2="304"/><line x1="294" y1="300" x2="299" y2="304"/></g><text x="312" y="300" font-family="DejaVu Sans" font-size="13.5" fill="#0B1220" font-weight="700" text-anchor="start">Agents</text><text x="312" y="315" font-family="DejaVu Sans" font-size="10.5" fill="#64748B" font-weight="400" text-anchor="start">org diagram + agent detail — filterable by squad / project</text><rect x="744" y="292" width="84" height="20" rx="10.0" ry="10.0" fill="#F1F5FA" stroke="#D4DCEA" stroke-width="1"/><text x="755" y="306.0" font-family="DejaVu Sans Mono" font-size="10" fill="#33415C" font-weight="600" text-anchor="start">8.10 / 8.11</text><rect x="836" y="292" width="66" height="20" rx="10.0" ry="10.0" fill="#F1F5FA" stroke="#D4DCEA" stroke-width="1"/><text x="847" y="306.0" font-family="DejaVu Sans" font-size="10" fill="#64748B" font-weight="600" text-anchor="start">global</text><rect x="260" y="356" width="700" height="326" rx="13" ry="13" fill="#FFFFFF" stroke="#3D7DFF44" stroke-width="1"/><text x="278" y="382" font-family="DejaVu Sans" font-size="12.5" fill="#2563EB" font-weight="700" text-anchor="start" letter-spacing="0.6">PROJECT</text><text x="348" y="382" font-family="DejaVu Sans" font-size="10.5" fill="#6C7688" font-weight="400" text-anchor="start">root context — the selector scopes the four sub-sections</text><rect x="274" y="396" width="672" height="1" rx="0" ry="0" fill="#ECF1F8" stroke="none" stroke-width="1"/><rect x="272" y="408" width="676" height="44" rx="10" ry="10" fill="#E5EDFF" stroke="#3D7DFF66" stroke-width="1"/><rect x="272" y="408" width="3" height="44" rx="2" ry="2" fill="#3D7DFF" stroke="none" stroke-width="1"/><g fill="none" stroke="#2563EB" stroke-width="1.6" stroke-linecap="round" stroke-linejoin="round"><path d="M286 425 h5 l2 2.5 h8 v9.5 a1.4 1.4 0 0 1 -1.4 1.4 h-12.2 a1.4 1.4 0 0 1 -1.4 -1.4 z"/></g><text x="312" y="426" font-family="DejaVu Sans" font-size="13.5" fill="#0B1220" font-weight="700" text-anchor="start">ksquad-console</text><text x="312" y="441" font-family="DejaVu Sans" font-size="10" fill="#6C7688" font-weight="400" text-anchor="start">click → project dashboard · scopes Build · Files · Tickets · Runs · Discussion</text><path d="M924 426 l4 4 l4 -4" fill="none" stroke="#64748B" stroke-width="1.6" stroke-linecap="round" stroke-linejoin="round"/><rect x="782" y="419" width="118" height="22" rx="11.0" ry="11.0" fill="#F1F5FA" stroke="#D4DCEA" stroke-width="1"/><text x="793" y="434.0" font-family="DejaVu Sans" font-size="10.5" fill="#64748B" font-weight="600" text-anchor="start">3 projects  ▾</text><line x1="282" y1="464" x2="282" y2="650" stroke="#3D7DFF66" stroke-width="1.5"/><rect x="272" y="468" width="3" height="28" rx="2" ry="2" fill="#3D7DFF" stroke="none" stroke-width="1"/><line x1="282" y1="482" x2="296" y2="482" stroke="#D4DCEA" stroke-width="1.4"/><g fill="none" stroke="#2563EB" stroke-width="1.6" stroke-linecap="round" stroke-linejoin="round"><path d="M312 475 l7 4 v6 l-7 4 l-7 -4 v-6 z"/><path d="M305 479 l7 4 l7 -4"/><path d="M312 483 v6.5"/></g><text x="330" y="480" font-family="DejaVu Sans" font-size="13.5" fill="#0B1220" font-weight="700" text-anchor="start">Build</text><text x="330" y="495" font-family="DejaVu Sans" font-size="10.5" fill="#64748B" font-weight="400" text-anchor="start">build browser — checkout→review→fix→test→publish</text><rect x="744" y="472" width="84" height="20" rx="10.0" ry="10.0" fill="#F1F5FA" stroke="#D4DCEA" stroke-width="1"/><text x="755" y="486.0" font-family="DejaVu Sans Mono" font-size="10" fill="#33415C" font-weight="600" text-anchor="start">screen 8.7</text><rect x="836" y="472" width="108" height="20" rx="10.0" ry="10.0" fill="#E5EDFF" stroke="#3D7DFF55" stroke-width="1"/><text x="847" y="486.0" font-family="DejaVu Sans" font-size="10" fill="#2563EB" font-weight="600" text-anchor="start">project-scoped</text><rect x="272" y="510" width="3" height="28" rx="2" ry="2" fill="#3D7DFF" stroke="none" stroke-width="1"/><line x1="282" y1="524" x2="296" y2="524" stroke="#D4DCEA" stroke-width="1.4"/><g fill="none" stroke="#2563EB" stroke-width="1.5" stroke-linecap="round" stroke-linejoin="round"><path d="M306 517 h6 l4 4 v9.7 a1.3 1.3 0 0 1 -1.3 1.3 h-8.7 a1.3 1.3 0 0 1 -1.3 -1.3 v-12.4 a1.3 1.3 0 0 1 1.3 -1.3 z"/><path d="M312 517 v4 h4"/><line x1="309" y1="525" x2="315" y2="525"/><line x1="309" y1="528" x2="315" y2="528"/></g><text x="330" y="522" font-family="DejaVu Sans" font-size="13.5" fill="#0B1220" font-weight="700" text-anchor="start">Files</text><text x="330" y="537" font-family="DejaVu Sans" font-size="10.5" fill="#64748B" font-weight="400" text-anchor="start">file explorer — browse &amp; visualize project files</text><rect x="744" y="514" width="84" height="20" rx="10.0" ry="10.0" fill="#F1F5FA" stroke="#D4DCEA" stroke-width="1"/><text x="755" y="528.0" font-family="DejaVu Sans Mono" font-size="10" fill="#33415C" font-weight="600" text-anchor="start">screen 19</text><rect x="836" y="514" width="46" height="20" rx="10.0" ry="10.0" fill="#3D7DFF" stroke="#3D7DFF" stroke-width="1"/><text x="847" y="528.0" font-family="DejaVu Sans" font-size="10" fill="#fff" font-weight="600" text-anchor="start">NEW</text><rect x="272" y="552" width="3" height="28" rx="2" ry="2" fill="#3D7DFF" stroke="none" stroke-width="1"/><line x1="282" y1="566" x2="296" y2="566" stroke="#D4DCEA" stroke-width="1.4"/><g fill="none" stroke="#2563EB" stroke-width="1.5" stroke-linecap="round" stroke-linejoin="round"><rect x="305" y="559" width="14" height="14" rx="2.5"/><path d="M308 562.8 l1.6 1.6 l3 -3.4"/><line x1="308" y1="569" x2="316.5" y2="569"/></g><text x="330" y="564" font-family="DejaVu Sans" font-size="13.5" fill="#0B1220" font-weight="700" text-anchor="start">Tickets</text><text x="330" y="579" font-family="DejaVu Sans" font-size="10.5" fill="#64748B" font-weight="400" text-anchor="start">work-item tree — parents → sub-tickets</text><rect x="744" y="556" width="84" height="20" rx="10.0" ry="10.0" fill="#F1F5FA" stroke="#D4DCEA" stroke-width="1"/><text x="755" y="570.0" font-family="DejaVu Sans Mono" font-size="10" fill="#33415C" font-weight="600" text-anchor="start">screen 8.14</text><rect x="836" y="556" width="46" height="20" rx="10.0" ry="10.0" fill="#3D7DFF" stroke="#3D7DFF" stroke-width="1"/><text x="847" y="570.0" font-family="DejaVu Sans" font-size="10" fill="#fff" font-weight="600" text-anchor="start">NEW</text><rect x="272" y="594" width="3" height="28" rx="2" ry="2" fill="#3D7DFF" stroke="none" stroke-width="1"/><line x1="282" y1="608" x2="296" y2="608" stroke="#D4DCEA" stroke-width="1.4"/><g fill="none" stroke="#2563EB" stroke-width="1.6" stroke-linecap="round" stroke-linejoin="round"><path d="M304 608 h3 l2 -5 l3 10 l2 -5 h3"/></g><text x="330" y="606" font-family="DejaVu Sans" font-size="13.5" fill="#0B1220" font-weight="700" text-anchor="start">Runs</text><text x="330" y="621" font-family="DejaVu Sans" font-size="10.5" fill="#64748B" font-weight="400" text-anchor="start">run stream (SSE) + run history</text><rect x="744" y="598" width="84" height="20" rx="10.0" ry="10.0" fill="#F1F5FA" stroke="#D4DCEA" stroke-width="1"/><text x="755" y="612.0" font-family="DejaVu Sans Mono" font-size="10" fill="#33415C" font-weight="600" text-anchor="start">screen 8.2</text><rect x="836" y="598" width="108" height="20" rx="10.0" ry="10.0" fill="#E5EDFF" stroke="#3D7DFF55" stroke-width="1"/><text x="847" y="612.0" font-family="DejaVu Sans" font-size="10" fill="#2563EB" font-weight="600" text-anchor="start">project-scoped</text><rect x="272" y="636" width="3" height="28" rx="2" ry="2" fill="#3D7DFF" stroke="none" stroke-width="1"/><line x1="282" y1="650" x2="296" y2="650" stroke="#D4DCEA" stroke-width="1.4"/><g fill="none" stroke="#2563EB" stroke-width="1.5" stroke-linecap="round" stroke-linejoin="round"><path d="M305 644 h14 a1.5 1.5 0 0 1 1.5 1.5 v6 a1.5 1.5 0 0 1 -1.5 1.5 h-8 l-4 3.2 v-3.2 h-2 a1.5 1.5 0 0 1 -1.5 -1.5 v-6 a1.5 1.5 0 0 1 1.5 -1.5 z"/></g><text x="330" y="648" font-family="DejaVu Sans" font-size="13.5" fill="#0B1220" font-weight="700" text-anchor="start">Discussion</text><text x="330" y="663" font-family="DejaVu Sans" font-size="10.5" fill="#64748B" font-weight="400" text-anchor="start">coordination room — threaded record</text><rect x="744" y="640" width="84" height="20" rx="10.0" ry="10.0" fill="#F1F5FA" stroke="#D4DCEA" stroke-width="1"/><text x="755" y="654.0" font-family="DejaVu Sans Mono" font-size="10" fill="#33415C" font-weight="600" text-anchor="start">screen 10.3</text><rect x="836" y="640" width="108" height="20" rx="10.0" ry="10.0" fill="#E5EDFF" stroke="#3D7DFF55" stroke-width="1"/><text x="847" y="654.0" font-family="DejaVu Sans" font-size="10" fill="#2563EB" font-weight="600" text-anchor="start">project-scoped</text><rect x="260" y="700" width="700" height="152" rx="13" ry="13" fill="#FFFFFF" stroke="#D4DCEA" stroke-width="1"/><text x="278" y="726" font-family="DejaVu Sans" font-size="12.5" fill="#33415C" font-weight="700" text-anchor="start" letter-spacing="0.6">SETTINGS</text><text x="356" y="726" font-family="DejaVu Sans" font-size="10.5" fill="#6C7688" font-weight="400" text-anchor="start">platform configuration</text><rect x="274" y="740" width="672" height="1" rx="0" ry="0" fill="#ECF1F8" stroke="none" stroke-width="1"/><rect x="272" y="756" width="3" height="28" rx="2" ry="2" fill="#64748B" stroke="none" stroke-width="1"/><g fill="none" stroke="#64748B" stroke-width="1.5" stroke-linecap="round" stroke-linejoin="round"><circle cx="294" cy="770" r="3.4"/><line x1="298.2" y1="770.0" x2="301.2" y2="770.0"/><line x1="296.1" y1="773.6" x2="297.6" y2="776.2"/><line x1="291.9" y1="773.6" x2="290.4" y2="776.2"/><line x1="289.8" y1="770.0" x2="286.8" y2="770.0"/><line x1="291.9" y1="766.4" x2="290.4" y2="763.8"/><line x1="296.1" y1="766.4" x2="297.6" y2="763.8"/></g><text x="312" y="768" font-family="DejaVu Sans" font-size="13.5" fill="#0B1220" font-weight="700" text-anchor="start">Configuration</text><text x="312" y="783" font-family="DejaVu Sans" font-size="10.5" fill="#64748B" font-weight="400" text-anchor="start">OTelConfig CRD + platform settings</text><rect x="744" y="760" width="84" height="20" rx="10.0" ry="10.0" fill="#F1F5FA" stroke="#D4DCEA" stroke-width="1"/><text x="755" y="774.0" font-family="DejaVu Sans Mono" font-size="10" fill="#33415C" font-weight="600" text-anchor="start">screen 8.12</text><rect x="836" y="760" width="66" height="20" rx="10.0" ry="10.0" fill="#F1F5FA" stroke="#D4DCEA" stroke-width="1"/><text x="847" y="774.0" font-family="DejaVu Sans" font-size="10" fill="#64748B" font-weight="600" text-anchor="start">global</text><rect x="272" y="802" width="3" height="28" rx="2" ry="2" fill="#64748B" stroke="none" stroke-width="1"/><g fill="none" stroke="#64748B" stroke-width="1.5" stroke-linecap="round" stroke-linejoin="round"><circle cx="290.5" cy="814" r="3.2"/><path d="M292.8 816.3 l6 6 M297 820.5 l1.6 -1.6 M298.8 822.3 l1.6 -1.6"/></g><text x="312" y="814" font-family="DejaVu Sans" font-size="13.5" fill="#0B1220" font-weight="700" text-anchor="start">Credentials</text><text x="312" y="829" font-family="DejaVu Sans" font-size="10.5" fill="#64748B" font-weight="400" text-anchor="start">credential / auth state per runtime</text><rect x="744" y="806" width="84" height="20" rx="10.0" ry="10.0" fill="#F1F5FA" stroke="#D4DCEA" stroke-width="1"/><text x="755" y="820.0" font-family="DejaVu Sans Mono" font-size="10" fill="#33415C" font-weight="600" text-anchor="start">screen 8.6</text><rect x="836" y="806" width="66" height="20" rx="10.0" ry="10.0" fill="#F1F5FA" stroke="#D4DCEA" stroke-width="1"/><text x="847" y="820.0" font-family="DejaVu Sans" font-size="10" fill="#64748B" font-weight="600" text-anchor="start">global</text><rect x="992" y="140" width="432" height="118" rx="12" ry="12" fill="#F1F5FA" stroke="#D4DCEA" stroke-width="1"/><rect x="992" y="140" width="3" height="118" rx="2" ry="2" fill="#3D7DFF" stroke="none" stroke-width="1"/><text x="1010" y="166" font-family="DejaVu Sans" font-size="12.5" fill="#0B1220" font-weight="700" text-anchor="start">Project context selector</text><text x="1010" y="186" font-family="DejaVu Sans" font-size="11" fill="#64748B" font-weight="400" text-anchor="start">Top-of-rail dropdown sets the active Project.</text><text x="1010" y="203" font-family="DejaVu Sans" font-size="11" fill="#64748B" font-weight="400" text-anchor="start">Clicking the name loads the project dashboard</text><text x="1010" y="220" font-family="DejaVu Sans" font-size="11" fill="#64748B" font-weight="400" text-anchor="start">(screen 19) on the main frame; the chevron</text><text x="1010" y="237" font-family="DejaVu Sans" font-size="11" fill="#64748B" font-weight="400" text-anchor="start">switches project and re-scopes every sub-section.</text><rect x="992" y="274" width="432" height="118" rx="12" ry="12" fill="#F1F5FA" stroke="#D4DCEA" stroke-width="1"/><rect x="992" y="274" width="3" height="118" rx="2" ry="2" fill="#3D7DFF" stroke="none" stroke-width="1"/><text x="1010" y="300" font-family="DejaVu Sans" font-size="12.5" fill="#0B1220" font-weight="700" text-anchor="start">Breadcrumb  —  Project › section</text><rect x="1018" y="321" width="147.60000000000002" height="28" rx="8" ry="8" fill="#F1F5FA" stroke="#D4DCEA" stroke-width="1"/><g fill="none" stroke="#2563EB" stroke-width="1.6" stroke-linecap="round" stroke-linejoin="round"><path d="M1025 330 h5 l2 2.5 h8 v9.5 a1.4 1.4 0 0 1 -1.4 1.4 h-12.2 a1.4 1.4 0 0 1 -1.4 -1.4 z"/></g><text x="1045" y="339.5" font-family="DejaVu Sans" font-size="12.5" fill="#0B1220" font-weight="600" text-anchor="start">ksquad-console</text><path d="M1151.6 334 l4 4 l4 -4" fill="none" stroke="#64748B" stroke-width="1.5" stroke-linecap="round" stroke-linejoin="round"/><text x="1177.6" y="340" font-family="DejaVu Sans" font-size="15" fill="#6C7688" font-weight="600" text-anchor="start">›</text><text x="1193.6" y="340" font-family="DejaVu Sans" font-size="14" fill="#0B1220" font-weight="700" text-anchor="start">Tickets</text><text x="1010" y="360" font-family="DejaVu Sans" font-size="11" fill="#64748B" font-weight="400" text-anchor="start">Always shows the Project root then the current</text><text x="1010" y="377" font-family="DejaVu Sans" font-size="11" fill="#64748B" font-weight="400" text-anchor="start">section. The Project chip is a quick-switch.</text><rect x="992" y="408" width="432" height="118" rx="12" ry="12" fill="#F1F5FA" stroke="#D4DCEA" stroke-width="1"/><rect x="992" y="408" width="3" height="118" rx="2" ry="2" fill="#3D7DFF" stroke="none" stroke-width="1"/><text x="1010" y="434" font-family="DejaVu Sans" font-size="12.5" fill="#0B1220" font-weight="700" text-anchor="start">Project sub-navigation</text><g transform="translate(1010,442) scale(0.84)"><rect x="0" y="30" width="460" height="1" rx="0" ry="0" fill="#D4DCEA" stroke="none" stroke-width="1"/><text x="46.0" y="20" font-family="DejaVu Sans" font-size="13" fill="#64748B" font-weight="500" text-anchor="middle">Overview</text><text x="126.0" y="20" font-family="DejaVu Sans" font-size="13" fill="#64748B" font-weight="500" text-anchor="middle">Build</text><text x="194.0" y="20" font-family="DejaVu Sans" font-size="13" fill="#64748B" font-weight="500" text-anchor="middle">Files</text><text x="270.0" y="20" font-family="DejaVu Sans" font-size="13" fill="#0B1220" font-weight="700" text-anchor="middle">Tickets</text><rect x="238" y="29" width="64" height="2.5" rx="1.5" ry="1.5" fill="#3D7DFF" stroke="none" stroke-width="1"/><text x="342.0" y="20" font-family="DejaVu Sans" font-size="13" fill="#64748B" font-weight="500" text-anchor="middle">Runs</text><text x="426.0" y="20" font-family="DejaVu Sans" font-size="13" fill="#64748B" font-weight="500" text-anchor="middle">Discussion</text></g><text x="1010" y="494" font-family="DejaVu Sans" font-size="11" fill="#64748B" font-weight="400" text-anchor="start">Overview (dashboard) · Build · Files · Tickets ·</text><text x="1010" y="511" font-family="DejaVu Sans" font-size="11" fill="#64748B" font-weight="400" text-anchor="start">Runs · Discussion — a tab strip mirrored as the</text><text x="1010" y="528" font-family="DejaVu Sans" font-size="11" fill="#64748B" font-weight="400" text-anchor="start">indented rail sub-items.</text><rect x="992" y="542" width="432" height="96" rx="12" ry="12" fill="#F1F5FA" stroke="#D4DCEA" stroke-width="1"/><rect x="992" y="542" width="3" height="96" rx="2" ry="2" fill="#3D7DFF" stroke="none" stroke-width="1"/><text x="1010" y="568" font-family="DejaVu Sans" font-size="12.5" fill="#0B1220" font-weight="700" text-anchor="start">Scoping rule</text><text x="1010" y="588" font-family="DejaVu Sans" font-size="11" fill="#64748B" font-weight="400" text-anchor="start">Global (Dashboard, Overview, Agents, Settings)</text><text x="1010" y="605" font-family="DejaVu Sans" font-size="11" fill="#64748B" font-weight="400" text-anchor="start">read across the fleet. Everything under Project</text><text x="1010" y="622" font-family="DejaVu Sans" font-size="11" fill="#64748B" font-weight="400" text-anchor="start">is filtered to project_id — mirrors the CRD model.</text><text x="260" y="884" font-family="DejaVu Sans" font-size="11" fill="#6C7688" font-weight="400" text-anchor="start">IA / nav only — existing screen content (8.1–8.12) is unchanged; App Router nested layouts re-wrap it.  Realizes CEO 2026-08-12 directive · Stories 8.13 + 8.14.</text></svg>