<svg xmlns="http://www.w3.org/2000/svg" width="1440" height="900" viewBox="0 0 1440 900" font-family="DejaVu Sans"><rect x="0" y="0" width="1440" height="900" rx="0" ry="0" fill="#F6F8FC" stroke="none" stroke-width="1"/><rect x="0" y="0" width="236" height="900" rx="0" ry="0" fill="#EEF2F8" stroke="none" stroke-width="1"/><rect x="235" y="0" width="1" height="900" rx="0" ry="0" fill="#D4DCEA" stroke="none" stroke-width="1"/><line x1="40" y1="170" x2="40" y2="294" stroke="#D4DCEA" stroke-width="1.4"/><line x1="40" y1="294" x2="48" y2="294" stroke="#D4DCEA" stroke-width="1.4"/><line x1="40" y1="262" x2="48" y2="262" stroke="#D4DCEA" stroke-width="1.4"/><line x1="40" y1="230" x2="48" y2="230" stroke="#D4DCEA" stroke-width="1.4"/><line x1="40" y1="198" x2="48" y2="198" stroke="#D4DCEA" stroke-width="1.4"/><g transform="translate(30,34) scale(0.33735) translate(-50,-50)"><rect x="29" y="45" width="42" height="42" rx="13" fill="none" stroke="#3D7DFF" stroke-width="9"/><rect x="29" y="13" width="42" height="42" rx="13" fill="none" stroke="#3D7DFF" stroke-width="9"/><rect x="45" y="25.5" width="10" height="10" rx="2.8" fill="#2563EB"/><rect x="45" y="64.5" width="10" height="10" rx="2.8" fill="#2563EB"/><rect x="42.5" y="42.5" width="15" height="15" rx="4.2" fill="#2563EB"/></g><text x="52" y="32" font-family="DejaVu Sans" font-size="17" fill="#0B1220" font-weight="700" text-anchor="start" letter-spacing="0.2">KSquad</text><text x="52" y="46" font-family="DejaVu Sans" font-size="10" fill="#6C7688" font-weight="400" text-anchor="start" letter-spacing="0.4">operator console</text><g fill="none" stroke="#64748B" stroke-width="1.5" stroke-linecap="round" stroke-linejoin="round"><rect x="22" y="87" width="16" height="12" rx="2"/><path d="M22 88.5 l8 5.5 l8 -5.5"/></g><text x="52" y="97.5" font-family="DejaVu Sans" font-size="13.5" fill="#33415C" font-weight="500" text-anchor="start">Mailbox</text><rect x="192" y="82" width="24" height="20" rx="10" ry="10" fill="#E11D48" stroke="none" stroke-width="1"/><text x="204" y="96" font-family="DejaVu Sans" font-size="11.5" fill="#fff" font-weight="700" text-anchor="middle">3</text><text x="20" y="118" font-family="DejaVu Sans" font-size="10" fill="#6C7688" font-weight="700" text-anchor="start" letter-spacing="1.6">PROJECT</text><rect x="12" y="136" width="212" height="40" rx="10" ry="10" fill="#E5EDFF" stroke="#3D7DFF" stroke-width="1.6"/><rect x="12" y="136" width="3" height="40" rx="2" ry="2" fill="#3D7DFF" stroke="none" stroke-width="1"/><g fill="none" stroke="#2563EB" stroke-width="1.6" stroke-linecap="round" stroke-linejoin="round"><path d="M24 151 h5 l2 2.5 h8 v9.5 a1.4 1.4 0 0 1 -1.4 1.4 h-12.2 a1.4 1.4 0 0 1 -1.4 -1.4 z"/></g><text x="50" y="151" font-family="DejaVu Sans" font-size="13" fill="#0B1220" font-weight="700" text-anchor="start">ksquad-console</text><text x="50" y="166" font-family="DejaVu Sans" font-size="9.5" fill="#6C7688" font-weight="400" text-anchor="start">project dashboard · switch ▾</text><path d="M208 152 l4 4 l4 -4" fill="none" stroke="#64748B" stroke-width="1.6" stroke-linecap="round" stroke-linejoin="round"/><g fill="none" stroke="#64748B" stroke-width="1.5" stroke-linecap="round" stroke-linejoin="round"><rect x="47" y="191" width="14" height="14" rx="2.5"/><path d="M50 194.8 l1.6 1.6 l3 -3.4"/><line x1="50" y1="201" x2="58.5" y2="201"/></g><text x="74" y="202.5" font-family="DejaVu Sans" font-size="12.5" fill="#33415C" font-weight="500" text-anchor="start">Issues</text><g fill="none" stroke="#64748B" stroke-width="1.5" stroke-linecap="round" stroke-linejoin="round"><path d="M47 224 h14 a1.5 1.5 0 0 1 1.5 1.5 v6 a1.5 1.5 0 0 1 -1.5 1.5 h-8 l-4 3.2 v-3.2 h-2 a1.5 1.5 0 0 1 -1.5 -1.5 v-6 a1.5 1.5 0 0 1 1.5 -1.5 z"/></g><text x="74" y="234.5" font-family="DejaVu Sans" font-size="12.5" fill="#33415C" font-weight="500" text-anchor="start">Discussion</text><g fill="none" stroke="#64748B" stroke-width="1.5" stroke-linecap="round" stroke-linejoin="round"><rect x="46" y="255" width="16" height="14" rx="2"/><line x1="51.3" y1="255" x2="51.3" y2="269"/><line x1="56.7" y1="255" x2="56.7" y2="269"/><line x1="48.7" y1="259" x2="48.7" y2="263"/><line x1="54" y1="259" x2="54" y2="265.5"/><line x1="59.3" y1="259" x2="59.3" y2="261.5"/></g><text x="74" y="266.5" font-family="DejaVu Sans" font-size="12.5" fill="#33415C" font-weight="500" text-anchor="start">Project Board</text><g fill="none" stroke="#64748B" stroke-width="1.5" stroke-linecap="round" stroke-linejoin="round"><path d="M48 287 h6 l4 4 v9.7 a1.3 1.3 0 0 1 -1.3 1.3 h-8.7 a1.3 1.3 0 0 1 -1.3 -1.3 v-12.4 a1.3 1.3 0 0 1 1.3 -1.3 z"/><path d="M54 287 v4 h4"/><line x1="51" y1="295" x2="57" y2="295"/><line x1="51" y1="298" x2="57" y2="298"/></g><text x="74" y="298.5" font-family="DejaVu Sans" font-size="12.5" fill="#33415C" font-weight="500" text-anchor="start">File Explorer</text><text x="20" y="316" font-family="DejaVu Sans" font-size="10" fill="#6C7688" font-weight="700" text-anchor="start" letter-spacing="1.6">GLOBAL</text><g fill="none" stroke="#64748B" stroke-width="1.6" stroke-linecap="round" stroke-linejoin="round"><rect x="23" y="342" width="6.4" height="6.4" rx="1.3"/><rect x="30.6" y="342" width="6.4" height="6.4" rx="1.3"/><rect x="23" y="349.6" width="6.4" height="6.4" rx="1.3"/><rect x="30.6" y="349.6" width="6.4" height="6.4" rx="1.3"/></g><text x="52" y="353.5" font-family="DejaVu Sans" font-size="13.5" fill="#33415C" font-weight="500" text-anchor="start">Overview</text><g fill="none" stroke="#64748B" stroke-width="1.5" stroke-linecap="round" stroke-linejoin="round"><circle cx="30" cy="380.5" r="2.3"/><circle cx="24" cy="389" r="2"/><circle cx="36" cy="389" r="2"/><line x1="30" y1="383" x2="25" y2="387"/><line x1="30" y1="383" x2="35" y2="387"/></g><text x="52" y="389.5" font-family="DejaVu Sans" font-size="13.5" fill="#33415C" font-weight="500" text-anchor="start">Agents</text><rect x="158" y="375" width="58" height="20" rx="10.0" ry="10.0" fill="#F1F5FA" stroke="#D4DCEA" stroke-width="1"/><text x="169" y="389.0" font-family="DejaVu Sans" font-size="9.5" fill="#64748B" font-weight="600" text-anchor="start">2 orgs</text><g fill="none" stroke="#64748B" stroke-width="1.5" stroke-linecap="round" stroke-linejoin="round"><circle cx="25.5" cy="418" r="2.4"/><path d="M21.5 427 a4 4 0 0 1 8 0"/><circle cx="34.5" cy="418" r="2.4"/><path d="M30.5 427 a4 4 0 0 1 8 0"/></g><text x="52" y="425.5" font-family="DejaVu Sans" font-size="13.5" fill="#33415C" font-weight="500" text-anchor="start">Teams</text><g fill="none" stroke="#64748B" stroke-width="1.5" stroke-linecap="round" stroke-linejoin="round"><path d="M24 451 h3.6 a2 2 0 1 1 4.8 0 h3.6 v3.6 a2 2 0 1 0 0 4.8 v3.6 h-12 z"/></g><text x="52" y="461.5" font-family="DejaVu Sans" font-size="13.5" fill="#33415C" font-weight="500" text-anchor="start">Skills</text><text x="20" y="482" font-family="DejaVu Sans" font-size="10" fill="#6C7688" font-weight="700" text-anchor="start" letter-spacing="1.6">SETTINGS</text><g fill="none" stroke="#64748B" stroke-width="1.5" stroke-linecap="round" stroke-linejoin="round"><circle cx="25" cy="520" r="1.4" fill="#64748B"/><path d="M25 516 a6 6 0 0 1 6 6"/><path d="M25 512 a10 10 0 0 1 10 10"/></g><text x="52" y="519.5" font-family="DejaVu Sans" font-size="13.5" fill="#33415C" font-weight="500" text-anchor="start">OpenTelemetry</text><g fill="none" stroke="#64748B" stroke-width="1.5" stroke-linecap="round" stroke-linejoin="round"><circle cx="26.5" cy="549" r="3.2"/><path d="M28.8 551.3 l6 6 M33 555.5 l1.6 -1.6 M34.8 557.3 l1.6 -1.6"/></g><text x="52" y="555.5" font-family="DejaVu Sans" font-size="13.5" fill="#33415C" font-weight="500" text-anchor="start">Credentials</text><g fill="none" stroke="#64748B" stroke-width="1.5" stroke-linecap="round" stroke-linejoin="round"><line x1="27" y1="580" x2="27" y2="583.5"/><line x1="33" y1="580" x2="33" y2="583.5"/><path d="M24 583.5 h12 v2.5 a6 6 0 0 1 -12 0 z"/><line x1="30" y1="591.5" x2="30" y2="594.5"/></g><text x="52" y="591.5" font-family="DejaVu Sans" font-size="13.5" fill="#33415C" font-weight="500" text-anchor="start">Plugins</text><g fill="none" stroke="#64748B" stroke-width="1.5" stroke-linecap="round" stroke-linejoin="round"><circle cx="27.5" cy="619.5" r="2.6"/><path d="M22 629.5 a5.5 5.5 0 0 1 11 0"/><path d="M34.5 617 l3.2 1 v2.6 a3.2 3.2 0 0 1 -3.2 3 a3.2 3.2 0 0 1 -3.2 -3 v-2.6 z"/></g><text x="52" y="627.5" font-family="DejaVu Sans" font-size="13.5" fill="#33415C" font-weight="500" text-anchor="start">Users &amp; Roles</text><rect x="16" y="820" width="204" height="40" rx="9" ry="9" fill="#3D7DFF" stroke="none" stroke-width="1"/><text x="112" y="845" font-family="DejaVu Sans" font-size="13.5" fill="#fff" font-weight="600" text-anchor="middle">+  Compose</text><rect x="16" y="868" width="204" height="24" rx="8" ry="8" fill="#F1F5FA" stroke="#D4DCEA" stroke-width="1"/><circle cx="32" cy="880" r="3" fill="#059669"/><text x="44" y="884" font-family="DejaVu Sans Mono" font-size="10.5" fill="#64748B" font-weight="400" text-anchor="start">prod-euc1 · connected</text><rect x="236" y="0" width="1204" height="60" rx="0" ry="0" fill="#F6F8FC" stroke="none" stroke-width="1"/><rect x="236" y="59" width="1204" height="1" rx="0" ry="0" fill="#D4DCEA" stroke="none" stroke-width="1"/><rect x="260" y="11" width="147.60000000000002" height="28" rx="8" ry="8" fill="#F1F5FA" stroke="#D4DCEA" stroke-width="1"/><g fill="none" stroke="#2563EB" stroke-width="1.6" stroke-linecap="round" stroke-linejoin="round"><path d="M267 20 h5 l2 2.5 h8 v9.5 a1.4 1.4 0 0 1 -1.4 1.4 h-12.2 a1.4 1.4 0 0 1 -1.4 -1.4 z"/></g><text x="287" y="29.5" font-family="DejaVu Sans" font-size="12.5" fill="#0B1220" font-weight="600" text-anchor="start">ksquad-console</text><path d="M393.6 24 l4 4 l4 -4" fill="none" stroke="#64748B" stroke-width="1.5" stroke-linecap="round" stroke-linejoin="round"/><text x="419.6" y="30" font-family="DejaVu Sans" font-size="15" fill="#6C7688" font-weight="600" text-anchor="start">›</text><text x="435.6" y="30" font-family="DejaVu Sans" font-size="14" fill="#0B1220" font-weight="700" text-anchor="start">Navigation</text><text x="260" y="48" font-family="DejaVu Sans" font-size="11" fill="#64748B" font-weight="400" text-anchor="start">Information architecture · Project-rooted hierarchy</text><circle cx="1400" cy="30" r="15" fill="#ECF1F8" stroke="#D4DCEA"/><text x="1400" y="34" font-family="DejaVu Sans" font-size="11.5" fill="#2563EB" font-weight="700" text-anchor="middle">PN</text><rect x="1283.6" y="15" width="84.4" height="30" rx="8" ry="8" fill="#F1F5FA" stroke="#D4DCEA" stroke-width="1"/><circle cx="1297.6" cy="30" r="3" fill="#3D7DFF"/><text x="1307.6" y="34" font-family="DejaVu Sans Mono" font-size="12" fill="#33415C" font-weight="400" text-anchor="start">ns: all</text><rect x="1071.6" y="15" width="200" height="30" rx="8" ry="8" fill="#F1F5FA" stroke="#D4DCEA" stroke-width="1"/><circle cx="1086.6" cy="30" r="4.5" fill="none" stroke="#6C7688" stroke-width="1.5"/><path d="M1090.1 33.5 l3 3" stroke="#6C7688" stroke-width="1.5" stroke-linecap="round"/><text x="1101.6" y="34" font-family="DejaVu Sans" font-size="12" fill="#6C7688" font-weight="400" text-anchor="start">Search tickets, runs, artifacts…</text><text x="260" y="90" font-family="DejaVu Sans" font-size="20" fill="#0B1220" font-weight="700" text-anchor="start">Navigation IA — CEO 2026-08-12 revision (ISI-2321)</text><text x="260" y="110" font-family="DejaVu Sans" font-size="12" fill="#64748B" font-weight="400" text-anchor="start">Mailbox tops the rail; Project scopes Issues · Discussion · Project Board · File Explorer; Overview/Agents/Teams/Skills stay global; Settings expands to four.</text><rect x="260" y="122" width="1164" height="1" rx="0" ry="0" fill="#D4DCEA" stroke="none" stroke-width="1"/><rect x="260" y="134" width="700" height="52" rx="13" ry="13" fill="#FFFFFF" stroke="#3D7DFF44" stroke-width="1"/><rect x="260" y="134" width="3" height="52" rx="2" ry="2" fill="#3D7DFF" stroke="none" stroke-width="1"/><g fill="none" stroke="#2563EB" stroke-width="1.5" stroke-linecap="round" stroke-linejoin="round"><rect x="282" y="155" width="16" height="12" rx="2"/><path d="M282 156.5 l8 5.5 l8 -5.5"/></g><text x="312" y="158" font-family="DejaVu Sans" font-size="14" fill="#0B1220" font-weight="700" text-anchor="start">Mailbox</text><text x="312" y="174" font-family="DejaVu Sans" font-size="10.5" fill="#64748B" font-weight="400" text-anchor="start">global inbox — pending approvals + agent messages · top of rail</text><rect x="750" y="149" width="88" height="22" rx="11" ry="11" fill="#E11D4822" stroke="#E11D4866" stroke-width="1"/><circle cx="764" cy="160" r="3.4" fill="#E11D48"/><text x="774" y="164" font-family="DejaVu Sans" font-size="11" fill="#E11D48" font-weight="700" text-anchor="start">3 pending</text><rect x="842" y="150" width="46" height="20" rx="10.0" ry="10.0" fill="#3D7DFF" stroke="#3D7DFF" stroke-width="1"/><text x="853" y="164.0" font-family="DejaVu Sans" font-size="10" fill="#fff" font-weight="600" text-anchor="start">NEW</text><rect x="260" y="202" width="700" height="236" rx="13" ry="13" fill="#FFFFFF" stroke="#D4DCEA" stroke-width="1"/><text x="278" y="228" font-family="DejaVu Sans" font-size="12.5" fill="#33415C" font-weight="700" text-anchor="start" letter-spacing="0.6">GLOBAL</text><text x="340" y="228" font-family="DejaVu Sans" font-size="10.5" fill="#6C7688" font-weight="400" text-anchor="start">fleet &amp; squad — not project-scoped</text><rect x="274" y="242" width="672" height="1" rx="0" ry="0" fill="#ECF1F8" stroke="none" stroke-width="1"/><rect x="272" y="258" width="3" height="28" rx="2" ry="2" fill="#64748B" stroke="none" stroke-width="1"/><g fill="none" stroke="#64748B" stroke-width="1.6" stroke-linecap="round" stroke-linejoin="round"><rect x="287" y="265" width="6.4" height="6.4" rx="1.3"/><rect x="294.6" y="265" width="6.4" height="6.4" rx="1.3"/><rect x="287" y="272.6" width="6.4" height="6.4" rx="1.3"/><rect x="294.6" y="272.6" width="6.4" height="6.4" rx="1.3"/></g><text x="312" y="270" font-family="DejaVu Sans" font-size="13.5" fill="#0B1220" font-weight="700" text-anchor="start">Overview</text><text x="312" y="285" font-family="DejaVu Sans" font-size="10.5" fill="#64748B" font-weight="400" text-anchor="start">squad status · active agents · recent activity</text><rect x="744" y="262" width="84" height="20" rx="10.0" ry="10.0" fill="#F1F5FA" stroke="#D4DCEA" stroke-width="1"/><text x="755" y="276.0" font-family="DejaVu Sans Mono" font-size="10" fill="#33415C" font-weight="600" text-anchor="start">screen 8.1</text><rect x="836" y="262" width="66" height="20" rx="10.0" ry="10.0" fill="#F1F5FA" stroke="#D4DCEA" stroke-width="1"/><text x="847" y="276.0" font-family="DejaVu Sans" font-size="10" fill="#64748B" font-weight="600" text-anchor="start">global</text><rect x="272" y="302" width="3" height="28" rx="2" ry="2" fill="#3D7DFF" stroke="none" stroke-width="1"/><g fill="none" stroke="#2563EB" stroke-width="1.5" stroke-linecap="round" stroke-linejoin="round"><circle cx="294" cy="311.5" r="2.3"/><circle cx="288" cy="320" r="2"/><circle cx="300" cy="320" r="2"/><line x1="294" y1="314" x2="289" y2="318"/><line x1="294" y1="314" x2="299" y2="318"/></g><text x="312" y="314" font-family="DejaVu Sans" font-size="13.5" fill="#0B1220" font-weight="700" text-anchor="start">Agents</text><text x="312" y="329" font-family="DejaVu Sans" font-size="10.5" fill="#64748B" font-weight="400" text-anchor="start">dual org views — Role-Based swimlanes ⇄ Leadership tree</text><rect x="744" y="306" width="84" height="20" rx="10.0" ry="10.0" fill="#F1F5FA" stroke="#D4DCEA" stroke-width="1"/><text x="755" y="320.0" font-family="DejaVu Sans Mono" font-size="10" fill="#33415C" font-weight="600" text-anchor="start">20 / 21</text><rect x="836" y="306" width="46" height="20" rx="10.0" ry="10.0" fill="#3D7DFF" stroke="#3D7DFF" stroke-width="1"/><text x="847" y="320.0" font-family="DejaVu Sans" font-size="10" fill="#fff" font-weight="600" text-anchor="start">NEW</text><rect x="272" y="346" width="3" height="28" rx="2" ry="2" fill="#3D7DFF" stroke="none" stroke-width="1"/><g fill="none" stroke="#2563EB" stroke-width="1.5" stroke-linecap="round" stroke-linejoin="round"><circle cx="289.5" cy="357" r="2.4"/><path d="M285.5 366 a4 4 0 0 1 8 0"/><circle cx="298.5" cy="357" r="2.4"/><path d="M294.5 366 a4 4 0 0 1 8 0"/></g><text x="312" y="358" font-family="DejaVu Sans" font-size="13.5" fill="#0B1220" font-weight="700" text-anchor="start">Teams</text><text x="312" y="373" font-family="DejaVu Sans" font-size="10.5" fill="#64748B" font-weight="400" text-anchor="start">squad organization — Team → Agent → Role</text><rect x="744" y="350" width="84" height="20" rx="10.0" ry="10.0" fill="#F1F5FA" stroke="#D4DCEA" stroke-width="1"/><text x="755" y="364.0" font-family="DejaVu Sans Mono" font-size="10" fill="#33415C" font-weight="600" text-anchor="start">screen 09</text><rect x="836" y="350" width="46" height="20" rx="10.0" ry="10.0" fill="#3D7DFF" stroke="#3D7DFF" stroke-width="1"/><text x="847" y="364.0" font-family="DejaVu Sans" font-size="10" fill="#fff" font-weight="600" text-anchor="start">NEW</text><rect x="272" y="390" width="3" height="28" rx="2" ry="2" fill="#3D7DFF" stroke="none" stroke-width="1"/><g fill="none" stroke="#2563EB" stroke-width="1.5" stroke-linecap="round" stroke-linejoin="round"><path d="M288 398 h3.6 a2 2 0 1 1 4.8 0 h3.6 v3.6 a2 2 0 1 0 0 4.8 v3.6 h-12 z"/></g><text x="312" y="402" font-family="DejaVu Sans" font-size="13.5" fill="#0B1220" font-weight="700" text-anchor="start">Skills</text><text x="312" y="417" font-family="DejaVu Sans" font-size="10.5" fill="#64748B" font-weight="400" text-anchor="start">skills registry — bind runtime + skills to roles</text><rect x="744" y="394" width="84" height="20" rx="10.0" ry="10.0" fill="#F1F5FA" stroke="#D4DCEA" stroke-width="1"/><text x="755" y="408.0" font-family="DejaVu Sans Mono" font-size="10" fill="#33415C" font-weight="600" text-anchor="start">screen —</text><rect x="836" y="394" width="46" height="20" rx="10.0" ry="10.0" fill="#3D7DFF" stroke="#3D7DFF" stroke-width="1"/><text x="847" y="408.0" font-family="DejaVu Sans" font-size="10" fill="#fff" font-weight="600" text-anchor="start">NEW</text><rect x="260" y="454" width="700" height="284" rx="13" ry="13" fill="#FFFFFF" stroke="#3D7DFF44" stroke-width="1"/><text x="278" y="480" font-family="DejaVu Sans" font-size="12.5" fill="#2563EB" font-weight="700" text-anchor="start" letter-spacing="0.6">PROJECT</text><text x="348" y="480" font-family="DejaVu Sans" font-size="10.5" fill="#6C7688" font-weight="400" text-anchor="start">root context — the selector scopes the four sub-sections</text><rect x="274" y="494" width="672" height="1" rx="0" ry="0" fill="#ECF1F8" stroke="none" stroke-width="1"/><rect x="272" y="506" width="676" height="44" rx="10" ry="10" fill="#E5EDFF" stroke="#3D7DFF66" stroke-width="1"/><rect x="272" y="506" width="3" height="44" rx="2" ry="2" fill="#3D7DFF" stroke="none" stroke-width="1"/><g fill="none" stroke="#2563EB" stroke-width="1.6" stroke-linecap="round" stroke-linejoin="round"><path d="M286 523 h5 l2 2.5 h8 v9.5 a1.4 1.4 0 0 1 -1.4 1.4 h-12.2 a1.4 1.4 0 0 1 -1.4 -1.4 z"/></g><text x="312" y="524" font-family="DejaVu Sans" font-size="13.5" fill="#0B1220" font-weight="700" text-anchor="start">ksquad-console</text><text x="312" y="539" font-family="DejaVu Sans" font-size="10" fill="#6C7688" font-weight="400" text-anchor="start">click → project dashboard · scopes Issues · Discussion · Project Board · File Explorer</text><path d="M924 524 l4 4 l4 -4" fill="none" stroke="#64748B" stroke-width="1.6" stroke-linecap="round" stroke-linejoin="round"/><rect x="782" y="517" width="118" height="22" rx="11.0" ry="11.0" fill="#F1F5FA" stroke="#D4DCEA" stroke-width="1"/><text x="793" y="532.0" font-family="DejaVu Sans" font-size="10.5" fill="#64748B" font-weight="600" text-anchor="start">3 projects  ▾</text><line x1="282" y1="562" x2="282" y2="706" stroke="#3D7DFF66" stroke-width="1.5"/><rect x="272" y="566" width="3" height="28" rx="2" ry="2" fill="#3D7DFF" stroke="none" stroke-width="1"/><line x1="282" y1="580" x2="296" y2="580" stroke="#D4DCEA" stroke-width="1.4"/><g fill="none" stroke="#2563EB" stroke-width="1.5" stroke-linecap="round" stroke-linejoin="round"><rect x="305" y="573" width="14" height="14" rx="2.5"/><path d="M308 576.8 l1.6 1.6 l3 -3.4"/><line x1="308" y1="583" x2="316.5" y2="583"/></g><text x="330" y="578" font-family="DejaVu Sans" font-size="13.5" fill="#0B1220" font-weight="700" text-anchor="start">Issues</text><text x="330" y="593" font-family="DejaVu Sans" font-size="10.5" fill="#64748B" font-weight="400" text-anchor="start">work-item tree — parents → sub-issues</text><rect x="744" y="570" width="84" height="20" rx="10.0" ry="10.0" fill="#F1F5FA" stroke="#D4DCEA" stroke-width="1"/><text x="755" y="584.0" font-family="DejaVu Sans Mono" font-size="10" fill="#33415C" font-weight="600" text-anchor="start">screen 8.14</text><rect x="836" y="570" width="46" height="20" rx="10.0" ry="10.0" fill="#3D7DFF" stroke="#3D7DFF" stroke-width="1"/><text x="847" y="584.0" font-family="DejaVu Sans" font-size="10" fill="#fff" font-weight="600" text-anchor="start">NEW</text><rect x="272" y="608" width="3" height="28" rx="2" ry="2" fill="#3D7DFF" stroke="none" stroke-width="1"/><line x1="282" y1="622" x2="296" y2="622" stroke="#D4DCEA" stroke-width="1.4"/><g fill="none" stroke="#2563EB" stroke-width="1.5" stroke-linecap="round" stroke-linejoin="round"><path d="M305 616 h14 a1.5 1.5 0 0 1 1.5 1.5 v6 a1.5 1.5 0 0 1 -1.5 1.5 h-8 l-4 3.2 v-3.2 h-2 a1.5 1.5 0 0 1 -1.5 -1.5 v-6 a1.5 1.5 0 0 1 1.5 -1.5 z"/></g><text x="330" y="620" font-family="DejaVu Sans" font-size="13.5" fill="#0B1220" font-weight="700" text-anchor="start">Discussion</text><text x="330" y="635" font-family="DejaVu Sans" font-size="10.5" fill="#64748B" font-weight="400" text-anchor="start">coordination room — threaded record</text><rect x="744" y="612" width="84" height="20" rx="10.0" ry="10.0" fill="#F1F5FA" stroke="#D4DCEA" stroke-width="1"/><text x="755" y="626.0" font-family="DejaVu Sans Mono" font-size="10" fill="#33415C" font-weight="600" text-anchor="start">screen 10.3</text><rect x="836" y="612" width="108" height="20" rx="10.0" ry="10.0" fill="#E5EDFF" stroke="#3D7DFF55" stroke-width="1"/><text x="847" y="626.0" font-family="DejaVu Sans" font-size="10" fill="#2563EB" font-weight="600" text-anchor="start">project-scoped</text><rect x="272" y="650" width="3" height="28" rx="2" ry="2" fill="#3D7DFF" stroke="none" stroke-width="1"/><line x1="282" y1="664" x2="296" y2="664" stroke="#D4DCEA" stroke-width="1.4"/><g fill="none" stroke="#2563EB" stroke-width="1.5" stroke-linecap="round" stroke-linejoin="round"><rect x="304" y="657" width="16" height="14" rx="2"/><line x1="309.3" y1="657" x2="309.3" y2="671"/><line x1="314.7" y1="657" x2="314.7" y2="671"/><line x1="306.7" y1="661" x2="306.7" y2="665"/><line x1="312" y1="661" x2="312" y2="667.5"/><line x1="317.3" y1="661" x2="317.3" y2="663.5"/></g><text x="330" y="662" font-family="DejaVu Sans" font-size="13.5" fill="#0B1220" font-weight="700" text-anchor="start">Project Board</text><text x="330" y="677" font-family="DejaVu Sans" font-size="10.5" fill="#64748B" font-weight="400" text-anchor="start">kanban lanes — todo · in-progress · review · done</text><rect x="744" y="654" width="84" height="20" rx="10.0" ry="10.0" fill="#F1F5FA" stroke="#D4DCEA" stroke-width="1"/><text x="755" y="668.0" font-family="DejaVu Sans Mono" font-size="10" fill="#33415C" font-weight="600" text-anchor="start">screen —</text><rect x="836" y="654" width="46" height="20" rx="10.0" ry="10.0" fill="#3D7DFF" stroke="#3D7DFF" stroke-width="1"/><text x="847" y="668.0" font-family="DejaVu Sans" font-size="10" fill="#fff" font-weight="600" text-anchor="start">NEW</text><rect x="272" y="692" width="3" height="28" rx="2" ry="2" fill="#3D7DFF" stroke="none" stroke-width="1"/><line x1="282" y1="706" x2="296" y2="706" stroke="#D4DCEA" stroke-width="1.4"/><g fill="none" stroke="#2563EB" stroke-width="1.5" stroke-linecap="round" stroke-linejoin="round"><path d="M306 699 h6 l4 4 v9.7 a1.3 1.3 0 0 1 -1.3 1.3 h-8.7 a1.3 1.3 0 0 1 -1.3 -1.3 v-12.4 a1.3 1.3 0 0 1 1.3 -1.3 z"/><path d="M312 699 v4 h4"/><line x1="309" y1="707" x2="315" y2="707"/><line x1="309" y1="710" x2="315" y2="710"/></g><text x="330" y="704" font-family="DejaVu Sans" font-size="13.5" fill="#0B1220" font-weight="700" text-anchor="start">File Explorer</text><text x="330" y="719" font-family="DejaVu Sans" font-size="10.5" fill="#64748B" font-weight="400" text-anchor="start">browse &amp; visualize project files</text><rect x="744" y="696" width="84" height="20" rx="10.0" ry="10.0" fill="#F1F5FA" stroke="#D4DCEA" stroke-width="1"/><text x="755" y="710.0" font-family="DejaVu Sans Mono" font-size="10" fill="#33415C" font-weight="600" text-anchor="start">screen 19</text><rect x="836" y="696" width="46" height="20" rx="10.0" ry="10.0" fill="#3D7DFF" stroke="#3D7DFF" stroke-width="1"/><text x="847" y="710.0" font-family="DejaVu Sans" font-size="10" fill="#fff" font-weight="600" text-anchor="start">NEW</text><rect x="992" y="140" width="432" height="112" rx="12" ry="12" fill="#F1F5FA" stroke="#D4DCEA" stroke-width="1"/><rect x="992" y="140" width="3" height="112" rx="2" ry="2" fill="#3D7DFF" stroke="none" stroke-width="1"/><text x="1010" y="166" font-family="DejaVu Sans" font-size="12.5" fill="#0B1220" font-weight="700" text-anchor="start">Project context selector</text><text x="1010" y="186" font-family="DejaVu Sans" font-size="11" fill="#64748B" font-weight="400" text-anchor="start">Top-of-rail dropdown sets the active Project.</text><text x="1010" y="203" font-family="DejaVu Sans" font-size="11" fill="#64748B" font-weight="400" text-anchor="start">Clicking the name loads the project dashboard;</text><text x="1010" y="220" font-family="DejaVu Sans" font-size="11" fill="#64748B" font-weight="400" text-anchor="start">the chevron switches project &amp; re-scopes the four</text><text x="1010" y="237" font-family="DejaVu Sans" font-size="11" fill="#64748B" font-weight="400" text-anchor="start">sub-sections (Issues · Discussion · Board · Files).</text><rect x="992" y="264" width="432" height="112" rx="12" ry="12" fill="#F1F5FA" stroke="#D4DCEA" stroke-width="1"/><rect x="992" y="264" width="3" height="112" rx="2" ry="2" fill="#3D7DFF" stroke="none" stroke-width="1"/><text x="1010" y="290" font-family="DejaVu Sans" font-size="12.5" fill="#0B1220" font-weight="700" text-anchor="start">Breadcrumb  —  Project › section</text><rect x="1018" y="311" width="147.60000000000002" height="28" rx="8" ry="8" fill="#F1F5FA" stroke="#D4DCEA" stroke-width="1"/><g fill="none" stroke="#2563EB" stroke-width="1.6" stroke-linecap="round" stroke-linejoin="round"><path d="M1025 320 h5 l2 2.5 h8 v9.5 a1.4 1.4 0 0 1 -1.4 1.4 h-12.2 a1.4 1.4 0 0 1 -1.4 -1.4 z"/></g><text x="1045" y="329.5" font-family="DejaVu Sans" font-size="12.5" fill="#0B1220" font-weight="600" text-anchor="start">ksquad-console</text><path d="M1151.6 324 l4 4 l4 -4" fill="none" stroke="#64748B" stroke-width="1.5" stroke-linecap="round" stroke-linejoin="round"/><text x="1177.6" y="330" font-family="DejaVu Sans" font-size="15" fill="#6C7688" font-weight="600" text-anchor="start">›</text><text x="1193.6" y="330" font-family="DejaVu Sans" font-size="14" fill="#0B1220" font-weight="700" text-anchor="start">Issues</text><text x="1010" y="350" font-family="DejaVu Sans" font-size="11" fill="#64748B" font-weight="400" text-anchor="start">Always shows the Project root then the current</text><text x="1010" y="367" font-family="DejaVu Sans" font-size="11" fill="#64748B" font-weight="400" text-anchor="start">section. The Project chip is a quick-switch.</text><rect x="992" y="388" width="432" height="118" rx="12" ry="12" fill="#F1F5FA" stroke="#D4DCEA" stroke-width="1"/><rect x="992" y="388" width="3" height="118" rx="2" ry="2" fill="#3D7DFF" stroke="none" stroke-width="1"/><text x="1010" y="414" font-family="DejaVu Sans" font-size="12.5" fill="#0B1220" font-weight="700" text-anchor="start">Project sub-navigation</text><g transform="translate(1010,422) scale(0.84)"><rect x="0" y="30" width="460" height="1" rx="0" ry="0" fill="#D4DCEA" stroke="none" stroke-width="1"/><text x="38.0" y="20" font-family="DejaVu Sans" font-size="13" fill="#0B1220" font-weight="700" text-anchor="middle">Issues</text><rect x="10" y="29" width="56" height="2.5" rx="1.5" ry="1.5" fill="#3D7DFF" stroke="none" stroke-width="1"/><text x="130.0" y="20" font-family="DejaVu Sans" font-size="13" fill="#64748B" font-weight="500" text-anchor="middle">Discussion</text><text x="250.0" y="20" font-family="DejaVu Sans" font-size="13" fill="#64748B" font-weight="500" text-anchor="middle">Project Board</text><text x="382.0" y="20" font-family="DejaVu Sans" font-size="13" fill="#64748B" font-weight="500" text-anchor="middle">File Explorer</text></g><text x="1010" y="474" font-family="DejaVu Sans" font-size="11" fill="#64748B" font-weight="400" text-anchor="start">Issues · Discussion · Project Board · File</text><text x="1010" y="491" font-family="DejaVu Sans" font-size="11" fill="#64748B" font-weight="400" text-anchor="start">Explorer — a tab strip mirrored as the indented</text><text x="1010" y="508" font-family="DejaVu Sans" font-size="11" fill="#64748B" font-weight="400" text-anchor="start">rail sub-items.</text><rect x="992" y="520" width="432" height="220" rx="13" ry="13" fill="#FFFFFF" stroke="#D4DCEA" stroke-width="1"/><text x="1010" y="546" font-family="DejaVu Sans" font-size="12.5" fill="#33415C" font-weight="700" text-anchor="start" letter-spacing="0.6">SETTINGS</text><text x="1088" y="546" font-family="DejaVu Sans" font-size="10.5" fill="#6C7688" font-weight="400" text-anchor="start">platform config</text><rect x="1006" y="560" width="404" height="1" rx="0" ry="0" fill="#ECF1F8" stroke="none" stroke-width="1"/><rect x="1004" y="576" width="3" height="28" rx="2" ry="2" fill="#64748B" stroke="none" stroke-width="1"/><g fill="none" stroke="#64748B" stroke-width="1.5" stroke-linecap="round" stroke-linejoin="round"><circle cx="1021" cy="595" r="1.4" fill="#64748B"/><path d="M1021 591 a6 6 0 0 1 6 6"/><path d="M1021 587 a10 10 0 0 1 10 10"/></g><text x="1044" y="588" font-family="DejaVu Sans" font-size="13.5" fill="#0B1220" font-weight="700" text-anchor="start">OpenTelemetry</text><text x="1044" y="603" font-family="DejaVu Sans" font-size="10.5" fill="#64748B" font-weight="400" text-anchor="start">OTelConfig — traces·metrics·logs</text><rect x="1208" y="580" width="84" height="20" rx="10.0" ry="10.0" fill="#F1F5FA" stroke="#D4DCEA" stroke-width="1"/><text x="1219" y="594.0" font-family="DejaVu Sans Mono" font-size="10" fill="#33415C" font-weight="600" text-anchor="start">8.12</text><rect x="1300" y="580" width="66" height="20" rx="10.0" ry="10.0" fill="#F1F5FA" stroke="#D4DCEA" stroke-width="1"/><text x="1311" y="594.0" font-family="DejaVu Sans" font-size="10" fill="#64748B" font-weight="600" text-anchor="start">global</text><rect x="1004" y="616" width="3" height="28" rx="2" ry="2" fill="#64748B" stroke="none" stroke-width="1"/><g fill="none" stroke="#64748B" stroke-width="1.5" stroke-linecap="round" stroke-linejoin="round"><circle cx="1022.5" cy="628" r="3.2"/><path d="M1024.8 630.3 l6 6 M1029 634.5 l1.6 -1.6 M1030.8 636.3 l1.6 -1.6"/></g><text x="1044" y="628" font-family="DejaVu Sans" font-size="13.5" fill="#0B1220" font-weight="700" text-anchor="start">Credentials</text><text x="1044" y="643" font-family="DejaVu Sans" font-size="10.5" fill="#64748B" font-weight="400" text-anchor="start">auth state per runtime</text><rect x="1208" y="620" width="84" height="20" rx="10.0" ry="10.0" fill="#F1F5FA" stroke="#D4DCEA" stroke-width="1"/><text x="1219" y="634.0" font-family="DejaVu Sans Mono" font-size="10" fill="#33415C" font-weight="600" text-anchor="start">8.6</text><rect x="1300" y="620" width="66" height="20" rx="10.0" ry="10.0" fill="#F1F5FA" stroke="#D4DCEA" stroke-width="1"/><text x="1311" y="634.0" font-family="DejaVu Sans" font-size="10" fill="#64748B" font-weight="600" text-anchor="start">global</text><rect x="1004" y="656" width="3" height="28" rx="2" ry="2" fill="#3D7DFF" stroke="none" stroke-width="1"/><g fill="none" stroke="#2563EB" stroke-width="1.5" stroke-linecap="round" stroke-linejoin="round"><line x1="1023" y1="663" x2="1023" y2="666.5"/><line x1="1029" y1="663" x2="1029" y2="666.5"/><path d="M1020 666.5 h12 v2.5 a6 6 0 0 1 -12 0 z"/><line x1="1026" y1="674.5" x2="1026" y2="677.5"/></g><text x="1044" y="668" font-family="DejaVu Sans" font-size="13.5" fill="#0B1220" font-weight="700" text-anchor="start">Plugins</text><text x="1044" y="683" font-family="DejaVu Sans" font-size="10.5" fill="#64748B" font-weight="400" text-anchor="start">adapter / plugin registry</text><rect x="1208" y="660" width="84" height="20" rx="10.0" ry="10.0" fill="#F1F5FA" stroke="#D4DCEA" stroke-width="1"/><text x="1219" y="674.0" font-family="DejaVu Sans Mono" font-size="10" fill="#33415C" font-weight="600" text-anchor="start">new</text><rect x="1300" y="660" width="46" height="20" rx="10.0" ry="10.0" fill="#3D7DFF" stroke="#3D7DFF" stroke-width="1"/><text x="1311" y="674.0" font-family="DejaVu Sans" font-size="10" fill="#fff" font-weight="600" text-anchor="start">NEW</text><rect x="1004" y="696" width="3" height="28" rx="2" ry="2" fill="#3D7DFF" stroke="none" stroke-width="1"/><g fill="none" stroke="#2563EB" stroke-width="1.5" stroke-linecap="round" stroke-linejoin="round"><circle cx="1023.5" cy="706.5" r="2.6"/><path d="M1018 716.5 a5.5 5.5 0 0 1 11 0"/><path d="M1030.5 704 l3.2 1 v2.6 a3.2 3.2 0 0 1 -3.2 3 a3.2 3.2 0 0 1 -3.2 -3 v-2.6 z"/></g><text x="1044" y="708" font-family="DejaVu Sans" font-size="13.5" fill="#0B1220" font-weight="700" text-anchor="start">Users &amp; Roles</text><text x="1044" y="723" font-family="DejaVu Sans" font-size="10.5" fill="#64748B" font-weight="400" text-anchor="start">access levels + membership</text><rect x="1208" y="700" width="84" height="20" rx="10.0" ry="10.0" fill="#F1F5FA" stroke="#D4DCEA" stroke-width="1"/><text x="1219" y="714.0" font-family="DejaVu Sans Mono" font-size="10" fill="#33415C" font-weight="600" text-anchor="start">15</text><rect x="1300" y="700" width="46" height="20" rx="10.0" ry="10.0" fill="#3D7DFF" stroke="#3D7DFF" stroke-width="1"/><text x="1311" y="714.0" font-family="DejaVu Sans" font-size="10" fill="#fff" font-weight="600" text-anchor="start">NEW</text><rect x="992" y="754" width="432" height="92" rx="12" ry="12" fill="#F1F5FA" stroke="#D4DCEA" stroke-width="1"/><rect x="992" y="754" width="3" height="92" rx="2" ry="2" fill="#3D7DFF" stroke="none" stroke-width="1"/><text x="1010" y="780" font-family="DejaVu Sans" font-size="12.5" fill="#0B1220" font-weight="700" text-anchor="start">Scoping rule</text><text x="1010" y="800" font-family="DejaVu Sans" font-size="11" fill="#64748B" font-weight="400" text-anchor="start">Global (Mailbox, Overview, Agents, Teams, Skills,</text><text x="1010" y="817" font-family="DejaVu Sans" font-size="11" fill="#64748B" font-weight="400" text-anchor="start">Settings) read across the fleet. Everything under</text><text x="1010" y="834" font-family="DejaVu Sans" font-size="11" fill="#64748B" font-weight="400" text-anchor="start">Project is filtered to project_id — CRD model.</text><text x="260" y="878" font-family="DejaVu Sans" font-size="11" fill="#6C7688" font-weight="400" text-anchor="start">IA / nav only — screen content is re-wrapped by App Router nested layouts.  Realizes CEO 2026-08-12 nav-IA revision · ISI-2321 (Mailbox · Teams · Skills · Settings tree · Project sub-items).</text></svg>