<svg xmlns="http://www.w3.org/2000/svg" width="1440" height="900" viewBox="0 0 1440 900" font-family="DejaVu Sans"><rect x="0" y="0" width="1440" height="900" rx="0" ry="0" fill="#0B1220" stroke="none" stroke-width="1"/><rect x="0" y="0" width="236" height="900" rx="0" ry="0" fill="#0D1728" stroke="none" stroke-width="1"/><rect x="235" y="0" width="1" height="900" rx="0" ry="0" fill="#25324B" stroke="none" stroke-width="1"/><line x1="40" y1="264" x2="40" y2="388" stroke="#25324B" stroke-width="1.4"/><line x1="40" y1="388" x2="48" y2="388" stroke="#25324B" stroke-width="1.4"/><line x1="40" y1="356" x2="48" y2="356" stroke="#25324B" stroke-width="1.4"/><line x1="40" y1="324" x2="48" y2="324" stroke="#25324B" stroke-width="1.4"/><line x1="40" y1="292" x2="48" y2="292" stroke="#25324B" stroke-width="1.4"/><g transform="translate(30,34) scale(0.33735) translate(-50,-50)"><rect x="29" y="45" width="42" height="42" rx="13" fill="none" stroke="#3D7DFF" stroke-width="9"/><rect x="29" y="13" width="42" height="42" rx="13" fill="none" stroke="#3D7DFF" stroke-width="9"/><rect x="45" y="25.5" width="10" height="10" rx="2.8" fill="#93B7FF"/><rect x="45" y="64.5" width="10" height="10" rx="2.8" fill="#93B7FF"/><rect x="42.5" y="42.5" width="15" height="15" rx="4.2" fill="#93B7FF"/></g><text x="52" y="32" font-family="DejaVu Sans" font-size="17" fill="#E8EEF9" font-weight="700" text-anchor="start" letter-spacing="0.2">KSquad</text><text x="52" y="46" font-family="DejaVu Sans" font-size="10" fill="#586581" font-weight="400" text-anchor="start" letter-spacing="0.4">operator console</text><text x="20" y="82" font-family="DejaVu Sans" font-size="10" fill="#586581" font-weight="700" text-anchor="start" letter-spacing="1.6">GLOBAL</text><g fill="none" stroke="#7E8CA6" stroke-width="1.6" stroke-linecap="round" stroke-linejoin="round"><line x1="24" y1="120" x2="24" y2="115"/><line x1="30" y1="120" x2="30" y2="111"/><line x1="36" y1="120" x2="36" y2="114"/><line x1="22" y1="122" x2="38" y2="122"/></g><text x="52" y="119.5" font-family="DejaVu Sans" font-size="13.5" fill="#B6C3D8" font-weight="500" text-anchor="start">Dashboard</text><g fill="none" stroke="#7E8CA6" stroke-width="1.6" stroke-linecap="round" stroke-linejoin="round"><rect x="23" y="144" width="6.4" height="6.4" rx="1.3"/><rect x="30.6" y="144" width="6.4" height="6.4" rx="1.3"/><rect x="23" y="151.6" width="6.4" height="6.4" rx="1.3"/><rect x="30.6" y="151.6" width="6.4" height="6.4" rx="1.3"/></g><text x="52" y="155.5" font-family="DejaVu Sans" font-size="13.5" fill="#B6C3D8" font-weight="500" text-anchor="start">Overview</text><g fill="none" stroke="#7E8CA6" stroke-width="1.5" stroke-linecap="round" stroke-linejoin="round"><circle cx="30" cy="182.5" r="2.3"/><circle cx="24" cy="191" r="2"/><circle cx="36" cy="191" r="2"/><line x1="30" y1="185" x2="25" y2="189"/><line x1="30" y1="185" x2="35" y2="189"/></g><text x="52" y="191.5" font-family="DejaVu Sans" font-size="13.5" fill="#B6C3D8" font-weight="500" text-anchor="start">Agents</text><rect x="150" y="177" width="66" height="20" rx="10.0" ry="10.0" fill="#0E1626" stroke="#25324B" stroke-width="1"/><text x="161" y="191.0" font-family="DejaVu Sans" font-size="9.5" fill="#7E8CA6" font-weight="600" text-anchor="start">filter ▾</text><text x="20" y="212" font-family="DejaVu Sans" font-size="10" fill="#586581" font-weight="700" text-anchor="start" letter-spacing="1.6">PROJECT</text><rect x="12" y="230" width="212" height="40" rx="10" ry="10" fill="#16244A" stroke="#3D7DFF66" stroke-width="1"/><rect x="12" y="230" width="3" height="40" rx="2" ry="2" fill="#3D7DFF" stroke="none" stroke-width="1"/><g fill="none" stroke="#93B7FF" stroke-width="1.6" stroke-linecap="round" stroke-linejoin="round"><path d="M24 245 h5 l2 2.5 h8 v9.5 a1.4 1.4 0 0 1 -1.4 1.4 h-12.2 a1.4 1.4 0 0 1 -1.4 -1.4 z"/></g><text x="50" y="245" font-family="DejaVu Sans" font-size="13" fill="#E8EEF9" font-weight="700" text-anchor="start">ksquad-console</text><text x="50" y="260" font-family="DejaVu Sans" font-size="9.5" fill="#586581" font-weight="400" text-anchor="start">active project · switch ▾</text><path d="M208 246 l4 4 l4 -4" fill="none" stroke="#7E8CA6" stroke-width="1.6" stroke-linecap="round" stroke-linejoin="round"/><g fill="none" stroke="#7E8CA6" stroke-width="1.6" stroke-linecap="round" stroke-linejoin="round"><path d="M54 285 l7 4 v6 l-7 4 l-7 -4 v-6 z"/><path d="M47 289 l7 4 l7 -4"/><path d="M54 293 v6.5"/></g><text x="74" y="296.5" font-family="DejaVu Sans" font-size="12.5" fill="#B6C3D8" font-weight="500" text-anchor="start">Build</text><rect x="28" y="310" width="198" height="28" rx="8" ry="8" fill="#16244A" stroke="#3D7DFF44" stroke-width="1"/><rect x="28" y="310" width="3" height="28" rx="2" ry="2" fill="#3D7DFF" stroke="none" stroke-width="1"/><g fill="none" stroke="#93B7FF" stroke-width="1.5" stroke-linecap="round" stroke-linejoin="round"><rect x="47" y="317" width="14" height="14" rx="2.5"/><path d="M50 320.8 l1.6 1.6 l3 -3.4"/><line x1="50" y1="327" x2="58.5" y2="327"/></g><text x="74" y="328.5" font-family="DejaVu Sans" font-size="12.5" fill="#E8EEF9" font-weight="600" text-anchor="start">Tickets</text><g fill="none" stroke="#7E8CA6" stroke-width="1.6" stroke-linecap="round" stroke-linejoin="round"><path d="M46 356 h3 l2 -5 l3 10 l2 -5 h3"/></g><text x="74" y="360.5" font-family="DejaVu Sans" font-size="12.5" fill="#B6C3D8" font-weight="500" text-anchor="start">Runs</text><g fill="none" stroke="#7E8CA6" stroke-width="1.5" stroke-linecap="round" stroke-linejoin="round"><path d="M47 382 h14 a1.5 1.5 0 0 1 1.5 1.5 v6 a1.5 1.5 0 0 1 -1.5 1.5 h-8 l-4 3.2 v-3.2 h-2 a1.5 1.5 0 0 1 -1.5 -1.5 v-6 a1.5 1.5 0 0 1 1.5 -1.5 z"/></g><text x="74" y="392.5" font-family="DejaVu Sans" font-size="12.5" fill="#B6C3D8" font-weight="500" text-anchor="start">Discussion</text><text x="20" y="410" font-family="DejaVu Sans" font-size="10" fill="#586581" font-weight="700" text-anchor="start" letter-spacing="1.6">SETTINGS</text><g fill="none" stroke="#7E8CA6" stroke-width="1.5" stroke-linecap="round" stroke-linejoin="round"><circle cx="30" cy="443" r="3.4"/><line x1="34.2" y1="443.0" x2="37.2" y2="443.0"/><line x1="32.1" y1="446.6" x2="33.6" y2="449.2"/><line x1="27.9" y1="446.6" x2="26.4" y2="449.2"/><line x1="25.8" y1="443.0" x2="22.8" y2="443.0"/><line x1="27.9" y1="439.4" x2="26.4" y2="436.8"/><line x1="32.1" y1="439.4" x2="33.6" y2="436.8"/></g><text x="52" y="447.5" font-family="DejaVu Sans" font-size="13.5" fill="#B6C3D8" font-weight="500" text-anchor="start">Configuration</text><g fill="none" stroke="#7E8CA6" stroke-width="1.5" stroke-linecap="round" stroke-linejoin="round"><circle cx="26.5" cy="477" r="3.2"/><path d="M28.8 479.3 l6 6 M33 483.5 l1.6 -1.6 M34.8 485.3 l1.6 -1.6"/></g><text x="52" y="483.5" font-family="DejaVu Sans" font-size="13.5" fill="#B6C3D8" font-weight="500" text-anchor="start">Credentials</text><rect x="16" y="820" width="204" height="40" rx="9" ry="9" fill="#3D7DFF" stroke="none" stroke-width="1"/><text x="112" y="845" font-family="DejaVu Sans" font-size="13.5" fill="#fff" font-weight="600" text-anchor="middle">+  Compose</text><rect x="16" y="868" width="204" height="24" rx="8" ry="8" fill="#0E1626" stroke="#25324B" stroke-width="1"/><circle cx="32" cy="880" r="3" fill="#34D399"/><text x="44" y="884" font-family="DejaVu Sans Mono" font-size="10.5" fill="#7E8CA6" font-weight="400" text-anchor="start">prod-euc1 · connected</text><rect x="236" y="0" width="1204" height="60" rx="0" ry="0" fill="#0B1220" stroke="none" stroke-width="1"/><rect x="236" y="59" width="1204" height="1" rx="0" ry="0" fill="#25324B" stroke="none" stroke-width="1"/><rect x="260" y="11" width="147.60000000000002" height="28" rx="8" ry="8" fill="#0E1626" stroke="#25324B" stroke-width="1"/><g fill="none" stroke="#93B7FF" stroke-width="1.6" stroke-linecap="round" stroke-linejoin="round"><path d="M267 20 h5 l2 2.5 h8 v9.5 a1.4 1.4 0 0 1 -1.4 1.4 h-12.2 a1.4 1.4 0 0 1 -1.4 -1.4 z"/></g><text x="287" y="29.5" font-family="DejaVu Sans" font-size="12.5" fill="#E8EEF9" font-weight="600" text-anchor="start">ksquad-console</text><path d="M393.6 24 l4 4 l4 -4" fill="none" stroke="#7E8CA6" stroke-width="1.5" stroke-linecap="round" stroke-linejoin="round"/><text x="419.6" y="30" font-family="DejaVu Sans" font-size="15" fill="#586581" font-weight="600" text-anchor="start">›</text><text x="435.6" y="30" font-family="DejaVu Sans" font-size="14" fill="#E8EEF9" font-weight="700" text-anchor="start">Tickets</text><text x="260" y="48" font-family="DejaVu Sans" font-size="11" fill="#7E8CA6" font-weight="400" text-anchor="start">Work items scoped to this project · status · assignee · comments · artifacts</text><circle cx="1400" cy="30" r="15" fill="#1A2842" stroke="#25324B"/><text x="1400" y="34" font-family="DejaVu Sans" font-size="11.5" fill="#93B7FF" font-weight="700" text-anchor="middle">PN</text><rect x="1283.6" y="15" width="84.4" height="30" rx="8" ry="8" fill="#0E1626" stroke="#25324B" stroke-width="1"/><circle cx="1297.6" cy="30" r="3" fill="#3D7DFF"/><text x="1307.6" y="34" font-family="DejaVu Sans Mono" font-size="12" fill="#B6C3D8" font-weight="400" text-anchor="start">ns: all</text><rect x="1071.6" y="15" width="200" height="30" rx="8" ry="8" fill="#0E1626" stroke="#25324B" stroke-width="1"/><circle cx="1086.6" cy="30" r="4.5" fill="none" stroke="#586581" stroke-width="1.5"/><path d="M1090.1 33.5 l3 3" stroke="#586581" stroke-width="1.5" stroke-linecap="round"/><text x="1101.6" y="34" font-family="DejaVu Sans" font-size="12" fill="#586581" font-weight="400" text-anchor="start">Search tickets, runs, artifacts…</text><rect x="260" y="104" width="460" height="1" rx="0" ry="0" fill="#25324B" stroke="none" stroke-width="1"/><text x="294.0" y="94" font-family="DejaVu Sans" font-size="13" fill="#7E8CA6" font-weight="500" text-anchor="middle">Build</text><text x="370.0" y="94" font-family="DejaVu Sans" font-size="13" fill="#E8EEF9" font-weight="700" text-anchor="middle">Tickets</text><rect x="338" y="103" width="64" height="2.5" rx="1.5" ry="1.5" fill="#3D7DFF" stroke="none" stroke-width="1"/><text x="442.0" y="94" font-family="DejaVu Sans" font-size="13" fill="#7E8CA6" font-weight="500" text-anchor="middle">Runs</text><text x="526.0" y="94" font-family="DejaVu Sans" font-size="13" fill="#7E8CA6" font-weight="500" text-anchor="middle">Discussion</text><text x="1416" y="92" font-family="DejaVu Sans" font-size="10.5" fill="#586581" font-weight="400" text-anchor="end">project_id = ksquad-console · Epic 2 coordination record · read-only</text><rect x="260" y="122" width="102" height="34" rx="9" ry="9" fill="#131D31" stroke="#25324B" stroke-width="1"/><circle cx="276" cy="139" r="4" fill="#64748B"/><text x="288" y="143" font-family="DejaVu Sans" font-size="12" fill="#B6C3D8" font-weight="600" text-anchor="start">open</text><text x="346" y="143" font-family="DejaVu Sans" font-size="13.5" fill="#E8EEF9" font-weight="700" text-anchor="end">9</text><rect x="374" y="122" width="126" height="34" rx="9" ry="9" fill="#131D31" stroke="#25324B" stroke-width="1"/><circle cx="390" cy="139" r="4" fill="#93B7FF"/><text x="402" y="143" font-family="DejaVu Sans" font-size="12" fill="#B6C3D8" font-weight="600" text-anchor="start">claimed</text><text x="484" y="143" font-family="DejaVu Sans" font-size="13.5" fill="#E8EEF9" font-weight="700" text-anchor="end">4</text><rect x="512" y="122" width="126" height="34" rx="9" ry="9" fill="#131D31" stroke="#25324B" stroke-width="1"/><circle cx="528" cy="139" r="4" fill="#FB7185"/><text x="540" y="143" font-family="DejaVu Sans" font-size="12" fill="#B6C3D8" font-weight="600" text-anchor="start">blocked</text><text x="622" y="143" font-family="DejaVu Sans" font-size="13.5" fill="#E8EEF9" font-weight="700" text-anchor="end">2</text><rect x="650" y="122" width="102" height="34" rx="9" ry="9" fill="#131D31" stroke="#25324B" stroke-width="1"/><circle cx="666" cy="139" r="4" fill="#34D399"/><text x="678" y="143" font-family="DejaVu Sans" font-size="12" fill="#B6C3D8" font-weight="600" text-anchor="start">done</text><text x="736" y="143" font-family="DejaVu Sans" font-size="13.5" fill="#E8EEF9" font-weight="700" text-anchor="end">9</text><text x="770" y="144" font-family="DejaVu Sans" font-size="12" fill="#7E8CA6" font-weight="600" text-anchor="start">24 work items</text><rect x="1306" y="122" width="118" height="34" rx="6" ry="6" fill="#131D31" stroke="#25324B" stroke-width="1"/><text x="1317" y="143.0" font-family="DejaVu Sans" font-size="10.5" fill="#7E8CA6" font-weight="600" text-anchor="start">sort: updated ▾</text><rect x="260" y="174" width="452" height="62" rx="10" ry="10" fill="#16244A" stroke="#3D7DFF55" stroke-width="1"/><rect x="260" y="174" width="3" height="62" rx="2" ry="2" fill="#3D7DFF" stroke="none" stroke-width="1"/><circle cx="280" cy="196" r="4" fill="#93B7FF"/><circle cx="280" cy="196" r="4" fill="none" stroke="#93B7FF" stroke-width="1.5" opacity="0.5"><animate attributeName="r" from="4" to="9" dur="1.6s" repeatCount="indefinite"/><animate attributeName="opacity" from="0.5" to="0" dur="1.6s" repeatCount="indefinite"/></circle><text x="294" y="200" font-family="DejaVu Sans Mono" font-size="11.5" fill="#93B7FF" font-weight="700" text-anchor="start">ISI-2291</text><rect x="620" y="185" width="78" height="20" rx="10.0" ry="10.0" fill="#16244A" stroke="#3D7DFF55" stroke-width="1"/><text x="631" y="199.0" font-family="DejaVu Sans" font-size="10" fill="#93B7FF" font-weight="600" text-anchor="start">claimed</text><text x="606" y="200" font-family="DejaVu Sans" font-size="10" fill="#586581" font-weight="400" text-anchor="end">12m</text><text x="294" y="220" font-family="DejaVu Sans" font-size="12.5" fill="#E8EEF9" font-weight="600" text-anchor="start">Console nav-rail + breadcrumb IA mocks</text><circle cx="688" cy="216" r="10" fill="#1A2842" stroke="#25324B"/><text x="688" y="219.5" font-family="DejaVu Sans" font-size="7.5" fill="#93B7FF" font-weight="700" text-anchor="middle">GD</text><path d="M616 212 h11 a1.4 1.4 0 0 1 1.4 1.4 v4.5 a1.4 1.4 0 0 1 -1.4 1.4 h-6 l-3 2.4 v-2.4 h-2 a1.4 1.4 0 0 1 -1.4 -1.4 v-4.5 a1.4 1.4 0 0 1 1.4 -1.4 z" fill="none" stroke="#586581" stroke-width="1.3" stroke-linecap="round" stroke-linejoin="round"/><text x="636" y="221" font-family="DejaVu Sans Mono" font-size="10.5" fill="#7E8CA6" font-weight="400" text-anchor="start">6</text><rect x="260" y="246" width="452" height="62" rx="10" ry="10" fill="#131D31" stroke="#25324B" stroke-width="1"/><circle cx="280" cy="268" r="4" fill="#93B7FF"/><circle cx="280" cy="268" r="4" fill="none" stroke="#93B7FF" stroke-width="1.5" opacity="0.5"><animate attributeName="r" from="4" to="9" dur="1.6s" repeatCount="indefinite"/><animate attributeName="opacity" from="0.5" to="0" dur="1.6s" repeatCount="indefinite"/></circle><text x="294" y="272" font-family="DejaVu Sans Mono" font-size="11.5" fill="#B6C3D8" font-weight="700" text-anchor="start">ISI-2288</text><rect x="620" y="257" width="78" height="20" rx="10.0" ry="10.0" fill="#16244A" stroke="#3D7DFF55" stroke-width="1"/><text x="631" y="271.0" font-family="DejaVu Sans" font-size="10" fill="#93B7FF" font-weight="600" text-anchor="start">claimed</text><text x="606" y="272" font-family="DejaVu Sans" font-size="10" fill="#586581" font-weight="400" text-anchor="end">1h</text><text x="294" y="292" font-family="DejaVu Sans" font-size="12.5" fill="#E8EEF9" font-weight="500" text-anchor="start">Settings page — OTelConfig + platform</text><circle cx="688" cy="288" r="10" fill="#1A2842" stroke="#25324B"/><text x="688" y="291.5" font-family="DejaVu Sans" font-size="7.5" fill="#93B7FF" font-weight="700" text-anchor="middle">UX</text><path d="M616 284 h11 a1.4 1.4 0 0 1 1.4 1.4 v4.5 a1.4 1.4 0 0 1 -1.4 1.4 h-6 l-3 2.4 v-2.4 h-2 a1.4 1.4 0 0 1 -1.4 -1.4 v-4.5 a1.4 1.4 0 0 1 1.4 -1.4 z" fill="none" stroke="#586581" stroke-width="1.3" stroke-linecap="round" stroke-linejoin="round"/><text x="636" y="293" font-family="DejaVu Sans Mono" font-size="10.5" fill="#7E8CA6" font-weight="400" text-anchor="start">3</text><rect x="260" y="318" width="452" height="62" rx="10" ry="10" fill="#131D31" stroke="#25324B" stroke-width="1"/><circle cx="280" cy="340" r="4" fill="#64748B"/><text x="294" y="344" font-family="DejaVu Sans Mono" font-size="11.5" fill="#B6C3D8" font-weight="700" text-anchor="start">ISI-2289</text><rect x="620" y="329" width="78" height="20" rx="10.0" ry="10.0" fill="#182234" stroke="#64748B55" stroke-width="1"/><text x="631" y="343.0" font-family="DejaVu Sans" font-size="10" fill="#64748B" font-weight="600" text-anchor="start">open</text><text x="606" y="344" font-family="DejaVu Sans" font-size="10" fill="#586581" font-weight="400" text-anchor="end">2h</text><text x="294" y="364" font-family="DejaVu Sans" font-size="12.5" fill="#E8EEF9" font-weight="500" text-anchor="start">OTelConfig CRD — controller + schema</text><circle cx="688" cy="360" r="10" fill="#1A2842" stroke="#25324B"/><text x="688" y="363.5" font-family="DejaVu Sans" font-size="7.5" fill="#93B7FF" font-weight="700" text-anchor="middle">OA</text><path d="M616 356 h11 a1.4 1.4 0 0 1 1.4 1.4 v4.5 a1.4 1.4 0 0 1 -1.4 1.4 h-6 l-3 2.4 v-2.4 h-2 a1.4 1.4 0 0 1 -1.4 -1.4 v-4.5 a1.4 1.4 0 0 1 1.4 -1.4 z" fill="none" stroke="#586581" stroke-width="1.3" stroke-linecap="round" stroke-linejoin="round"/><text x="636" y="365" font-family="DejaVu Sans Mono" font-size="10.5" fill="#7E8CA6" font-weight="400" text-anchor="start">1</text><rect x="260" y="390" width="452" height="62" rx="10" ry="10" fill="#131D31" stroke="#25324B" stroke-width="1"/><circle cx="280" cy="412" r="4" fill="#34D399"/><text x="294" y="416" font-family="DejaVu Sans Mono" font-size="11.5" fill="#B6C3D8" font-weight="700" text-anchor="start">ISI-2168</text><rect x="620" y="401" width="78" height="20" rx="10.0" ry="10.0" fill="#0F2E24" stroke="#34D39955" stroke-width="1"/><text x="631" y="415.0" font-family="DejaVu Sans" font-size="10" fill="#34D399" font-weight="600" text-anchor="start">done</text><text x="606" y="416" font-family="DejaVu Sans" font-size="10" fill="#586581" font-weight="400" text-anchor="end">3h</text><text x="294" y="436" font-family="DejaVu Sans" font-size="12.5" fill="#E8EEF9" font-weight="500" text-anchor="start">Build-browser observability plan</text><circle cx="688" cy="432" r="10" fill="#1A2842" stroke="#25324B"/><text x="688" y="435.5" font-family="DejaVu Sans" font-size="7.5" fill="#93B7FF" font-weight="700" text-anchor="middle">OA</text><path d="M616 428 h11 a1.4 1.4 0 0 1 1.4 1.4 v4.5 a1.4 1.4 0 0 1 -1.4 1.4 h-6 l-3 2.4 v-2.4 h-2 a1.4 1.4 0 0 1 -1.4 -1.4 v-4.5 a1.4 1.4 0 0 1 1.4 -1.4 z" fill="none" stroke="#586581" stroke-width="1.3" stroke-linecap="round" stroke-linejoin="round"/><text x="636" y="437" font-family="DejaVu Sans Mono" font-size="10.5" fill="#7E8CA6" font-weight="400" text-anchor="start">8</text><rect x="260" y="462" width="452" height="62" rx="10" ry="10" fill="#131D31" stroke="#25324B" stroke-width="1"/><circle cx="280" cy="484" r="4" fill="#34D399"/><text x="294" y="488" font-family="DejaVu Sans Mono" font-size="11.5" fill="#B6C3D8" font-weight="700" text-anchor="start">ISI-2151</text><rect x="620" y="473" width="78" height="20" rx="10.0" ry="10.0" fill="#0F2E24" stroke="#34D39955" stroke-width="1"/><text x="631" y="487.0" font-family="DejaVu Sans" font-size="10" fill="#34D399" font-weight="600" text-anchor="start">done</text><text x="606" y="488" font-family="DejaVu Sans" font-size="10" fill="#586581" font-weight="400" text-anchor="end">5h</text><text x="294" y="508" font-family="DejaVu Sans" font-size="12.5" fill="#E8EEF9" font-weight="500" text-anchor="start">Architecture r13 — NATS delivery seam</text><circle cx="688" cy="504" r="10" fill="#1A2842" stroke="#25324B"/><text x="688" y="507.5" font-family="DejaVu Sans" font-size="7.5" fill="#93B7FF" font-weight="700" text-anchor="middle">AR</text><path d="M616 500 h11 a1.4 1.4 0 0 1 1.4 1.4 v4.5 a1.4 1.4 0 0 1 -1.4 1.4 h-6 l-3 2.4 v-2.4 h-2 a1.4 1.4 0 0 1 -1.4 -1.4 v-4.5 a1.4 1.4 0 0 1 1.4 -1.4 z" fill="none" stroke="#586581" stroke-width="1.3" stroke-linecap="round" stroke-linejoin="round"/><text x="636" y="509" font-family="DejaVu Sans Mono" font-size="10.5" fill="#7E8CA6" font-weight="400" text-anchor="start">14</text><rect x="260" y="534" width="452" height="62" rx="10" ry="10" fill="#131D31" stroke="#25324B" stroke-width="1"/><circle cx="280" cy="556" r="4" fill="#FB7185"/><text x="294" y="560" font-family="DejaVu Sans Mono" font-size="11.5" fill="#B6C3D8" font-weight="700" text-anchor="start">ISI-2120</text><rect x="620" y="545" width="78" height="20" rx="10.0" ry="10.0" fill="#331521" stroke="#FB718555" stroke-width="1"/><text x="631" y="559.0" font-family="DejaVu Sans" font-size="10" fill="#FB7185" font-weight="600" text-anchor="start">blocked</text><text x="606" y="560" font-family="DejaVu Sans" font-size="10" fill="#586581" font-weight="400" text-anchor="end">1d</text><text x="294" y="580" font-family="DejaVu Sans" font-size="12.5" fill="#E8EEF9" font-weight="500" text-anchor="start">Phase-4 epics — nav IA threading</text><circle cx="688" cy="576" r="10" fill="#1A2842" stroke="#25324B"/><text x="688" y="579.5" font-family="DejaVu Sans" font-size="7.5" fill="#93B7FF" font-weight="700" text-anchor="middle">SW</text><path d="M616 572 h11 a1.4 1.4 0 0 1 1.4 1.4 v4.5 a1.4 1.4 0 0 1 -1.4 1.4 h-6 l-3 2.4 v-2.4 h-2 a1.4 1.4 0 0 1 -1.4 -1.4 v-4.5 a1.4 1.4 0 0 1 1.4 -1.4 z" fill="none" stroke="#586581" stroke-width="1.3" stroke-linecap="round" stroke-linejoin="round"/><text x="636" y="581" font-family="DejaVu Sans Mono" font-size="10.5" fill="#7E8CA6" font-weight="400" text-anchor="start">5</text><rect x="260" y="606" width="452" height="62" rx="10" ry="10" fill="#131D31" stroke="#25324B" stroke-width="1"/><circle cx="280" cy="628" r="4" fill="#34D399"/><text x="294" y="632" font-family="DejaVu Sans Mono" font-size="11.5" fill="#B6C3D8" font-weight="700" text-anchor="start">ISI-2134</text><rect x="620" y="617" width="78" height="20" rx="10.0" ry="10.0" fill="#0F2E24" stroke="#34D39955" stroke-width="1"/><text x="631" y="631.0" font-family="DejaVu Sans" font-size="10" fill="#34D399" font-weight="600" text-anchor="start">done</text><text x="606" y="632" font-family="DejaVu Sans" font-size="10" fill="#586581" font-weight="400" text-anchor="end">1d</text><text x="294" y="652" font-family="DejaVu Sans" font-size="12.5" fill="#E8EEF9" font-weight="500" text-anchor="start">CEO Gate 2 — Ollama + git skills</text><circle cx="688" cy="648" r="10" fill="#1A2842" stroke="#25324B"/><text x="688" y="651.5" font-family="DejaVu Sans" font-size="7.5" fill="#93B7FF" font-weight="700" text-anchor="middle">BB</text><path d="M616 644 h11 a1.4 1.4 0 0 1 1.4 1.4 v4.5 a1.4 1.4 0 0 1 -1.4 1.4 h-6 l-3 2.4 v-2.4 h-2 a1.4 1.4 0 0 1 -1.4 -1.4 v-4.5 a1.4 1.4 0 0 1 1.4 -1.4 z" fill="none" stroke="#586581" stroke-width="1.3" stroke-linecap="round" stroke-linejoin="round"/><text x="636" y="653" font-family="DejaVu Sans Mono" font-size="10.5" fill="#7E8CA6" font-weight="400" text-anchor="start">4</text><rect x="260" y="678" width="452" height="62" rx="10" ry="10" fill="#131D31" stroke="#25324B" stroke-width="1"/><circle cx="280" cy="700" r="4" fill="#64748B"/><text x="294" y="704" font-family="DejaVu Sans Mono" font-size="11.5" fill="#B6C3D8" font-weight="700" text-anchor="start">ISI-2116</text><rect x="620" y="689" width="78" height="20" rx="10.0" ry="10.0" fill="#182234" stroke="#64748B55" stroke-width="1"/><text x="631" y="703.0" font-family="DejaVu Sans" font-size="10" fill="#64748B" font-weight="600" text-anchor="start">open</text><text x="606" y="704" font-family="DejaVu Sans" font-size="10" fill="#586581" font-weight="400" text-anchor="end">2d</text><text x="294" y="724" font-family="DejaVu Sans" font-size="12.5" fill="#E8EEF9" font-weight="500" text-anchor="start">Program — Phase 4 delivery track</text><circle cx="688" cy="720" r="10" fill="#1A2842" stroke="#25324B"/><text x="688" y="723.5" font-family="DejaVu Sans" font-size="7.5" fill="#93B7FF" font-weight="700" text-anchor="middle">BB</text><path d="M616 716 h11 a1.4 1.4 0 0 1 1.4 1.4 v4.5 a1.4 1.4 0 0 1 -1.4 1.4 h-6 l-3 2.4 v-2.4 h-2 a1.4 1.4 0 0 1 -1.4 -1.4 v-4.5 a1.4 1.4 0 0 1 1.4 -1.4 z" fill="none" stroke="#586581" stroke-width="1.3" stroke-linecap="round" stroke-linejoin="round"/><text x="636" y="725" font-family="DejaVu Sans Mono" font-size="10.5" fill="#7E8CA6" font-weight="400" text-anchor="start">2</text><rect x="728" y="174" width="696" height="566" rx="13" ry="13" fill="#131D31" stroke="#25324B" stroke-width="1"/><text x="752" y="208" font-family="DejaVu Sans Mono" font-size="13" fill="#93B7FF" font-weight="700" text-anchor="start">ISI-2291</text><rect x="836" y="195" width="84" height="22" rx="11.0" ry="11.0" fill="#16244A" stroke="#3D7DFF55" stroke-width="1"/><text x="847" y="210.0" font-family="DejaVu Sans" font-size="11" fill="#93B7FF" font-weight="600" text-anchor="start">claimed</text><rect x="928" y="195" width="66" height="22" rx="11.0" ry="11.0" fill="#331521" stroke="#FB718555" stroke-width="1"/><text x="939" y="210.0" font-family="DejaVu Sans" font-size="11" fill="#FB7185" font-weight="600" text-anchor="start">high</text><text x="752" y="234" font-family="DejaVu Sans" font-size="15.5" fill="#E8EEF9" font-weight="700" text-anchor="start">Console nav-rail + breadcrumb IA mocks — Project-rooted hierarchy</text><rect x="752" y="258" width="648" height="46" rx="10" ry="10" fill="#0E1626" stroke="#25324B" stroke-width="1"/><circle cx="776" cy="281" r="12" fill="#1A2842" stroke="#25324B"/><text x="776" y="284.5" font-family="DejaVu Sans" font-size="9.5" fill="#93B7FF" font-weight="700" text-anchor="middle">GD</text><text x="794" y="278" font-family="DejaVu Sans" font-size="12" fill="#E8EEF9" font-weight="600" text-anchor="start">Graphic Designer</text><text x="794" y="292" font-family="DejaVu Sans" font-size="10" fill="#586581" font-weight="400" text-anchor="start">assignee</text><line x1="952" y1="268" x2="952" y2="294" stroke="#25324B" stroke-width="1"/><g fill="none" stroke="#34D399" stroke-width="1.5" stroke-linecap="round" stroke-linejoin="round"><path d="M976 278 l3 3 l6 -6"/></g><text x="996" y="278" font-family="DejaVu Sans" font-size="11.5" fill="#B6C3D8" font-weight="600" text-anchor="start">checked out · Graphic Designer</text><text x="996" y="292" font-family="DejaVu Sans" font-size="10" fill="#586581" font-weight="400" text-anchor="start">lease 42m remaining · coordination server-side</text><rect x="1244" y="270" width="142" height="22" rx="11.0" ry="11.0" fill="#0F2E24" stroke="#34D39955" stroke-width="1"/><text x="1255" y="285.0" font-family="DejaVu Sans" font-size="10" fill="#34D399" font-weight="600" text-anchor="start">1 holder · no contention</text><text x="752" y="326" font-family="DejaVu Sans" font-size="11" fill="#7E8CA6" font-weight="700" text-anchor="start" letter-spacing="0.8">COMMENTS</text><rect x="842" y="312" width="132" height="20" rx="10.0" ry="10.0" fill="#0E1626" stroke="#25324B" stroke-width="1"/><text x="853" y="326.0" font-family="DejaVu Sans" font-size="9.5" fill="#586581" font-weight="600" text-anchor="start">append-only · provenanced</text><text x="1400" y="326" font-family="DejaVu Sans" font-size="10" fill="#586581" font-weight="400" text-anchor="end">4 of 6</text><rect x="752" y="340" width="648" height="1" rx="0" ry="0" fill="#1A2438" stroke="none" stroke-width="1"/><circle cx="767" cy="374" r="12" fill="#1A2842" stroke="#25324B"/><text x="767" y="377.5" font-family="DejaVu Sans" font-size="9.5" fill="#93B7FF" font-weight="700" text-anchor="middle">H</text><text x="788" y="370" font-family="DejaVu Sans" font-size="12.5" fill="#E8EEF9" font-weight="700" text-anchor="start">Henrik</text><rect x="843.6" y="360" width="86.0" height="18" rx="9.0" ry="9.0" fill="#0E1626" stroke="#25324B" stroke-width="1"/><text x="854.6" y="373.0" font-family="DejaVu Sans Mono" font-size="9.5" fill="#586581" font-weight="600" text-anchor="start">human · CEO</text><text x="1394" y="370" font-family="DejaVu Sans" font-size="10" fill="#586581" font-weight="400" text-anchor="end">09:14</text><text x="788" y="390" font-family="DejaVu Sans" font-size="11.5" fill="#B6C3D8" font-weight="400" text-anchor="start">Console must be Project-rooted, not a flat screen list. Thread it into the epics doc and cut a design ticket.</text><rect x="752" y="394" width="648" height="1" rx="0" ry="0" fill="#1A2438" stroke="none" stroke-width="1"/><circle cx="767" cy="428" r="12" fill="#1A2842" stroke="#25324B"/><text x="767" y="431.5" font-family="DejaVu Sans" font-size="9.5" fill="#93B7FF" font-weight="700" text-anchor="middle">SW</text><text x="788" y="424" font-family="DejaVu Sans" font-size="12.5" fill="#E8EEF9" font-weight="700" text-anchor="start">Story Writer</text><rect x="889.2" y="414" width="140.0" height="18" rx="9.0" ry="9.0" fill="#0E1626" stroke="#25324B" stroke-width="1"/><text x="900.2" y="427.0" font-family="DejaVu Sans Mono" font-size="9.5" fill="#586581" font-weight="600" text-anchor="start">agent · claude_local</text><text x="1394" y="424" font-family="DejaVu Sans" font-size="10" fill="#586581" font-weight="400" text-anchor="end">09:31</text><text x="788" y="444" font-family="DejaVu Sans" font-size="11.5" fill="#B6C3D8" font-weight="400" text-anchor="start">Threaded Story 8.13 (nav shell) + 8.14 (Tickets) into Epic 8. Existing screens re-parent unchanged.</text><rect x="752" y="448" width="648" height="1" rx="0" ry="0" fill="#1A2438" stroke="none" stroke-width="1"/><circle cx="767" cy="482" r="12" fill="#1A2842" stroke="#25324B"/><text x="767" y="485.5" font-family="DejaVu Sans" font-size="9.5" fill="#93B7FF" font-weight="700" text-anchor="middle">GD</text><text x="788" y="478" font-family="DejaVu Sans" font-size="12.5" fill="#E8EEF9" font-weight="700" text-anchor="start">Graphic Designer</text><rect x="919.6" y="468" width="140.0" height="18" rx="9.0" ry="9.0" fill="#0E1626" stroke="#25324B" stroke-width="1"/><text x="930.6" y="481.0" font-family="DejaVu Sans Mono" font-size="9.5" fill="#586581" font-weight="600" text-anchor="start">agent · claude_local</text><text x="1394" y="478" font-family="DejaVu Sans" font-size="10" fill="#586581" font-weight="400" text-anchor="end">10:02</text><text x="788" y="498" font-family="DejaVu Sans" font-size="11.5" fill="#B6C3D8" font-weight="400" text-anchor="start">Building nav-rail IA + Project→Tickets mocks — dark + light, v2 8-Crest.</text><rect x="752" y="502" width="648" height="1" rx="0" ry="0" fill="#1A2438" stroke="none" stroke-width="1"/><circle cx="767" cy="536" r="12" fill="#1A2842" stroke="#25324B"/><text x="767" y="539.5" font-family="DejaVu Sans" font-size="9.5" fill="#93B7FF" font-weight="700" text-anchor="middle">GM</text><text x="788" y="532" font-family="DejaVu Sans" font-size="12.5" fill="#E8EEF9" font-weight="700" text-anchor="start">github-monitor</text><rect x="904.4" y="522" width="140.0" height="18" rx="9.0" ry="9.0" fill="#241B3A" stroke="#25324B" stroke-width="1"/><text x="915.4" y="535.0" font-family="DejaVu Sans Mono" font-size="9.5" fill="#A78BFA" font-weight="600" text-anchor="start">scm · commit d18dc51</text><text x="1394" y="532" font-family="DejaVu Sans" font-size="10" fill="#586581" font-weight="400" text-anchor="end">10:20</text><text x="788" y="552" font-family="DejaVu Sans" font-size="11.5" fill="#B6C3D8" font-weight="400" text-anchor="start">epics(phase4): OTelConfig CRD + settings folded into Epic 8.</text><text x="752" y="562" font-family="DejaVu Sans" font-size="11" fill="#7E8CA6" font-weight="700" text-anchor="start" letter-spacing="0.8">ARTIFACTS</text><rect x="752" y="576" width="118.39999999999999" height="32" rx="8" ry="8" fill="#0E1626" stroke="#25324B" stroke-width="1"/><g fill="none" stroke="#93B7FF" stroke-width="1.4" stroke-linecap="round" stroke-linejoin="round"><rect x="764" y="585" width="11" height="14" rx="1.6"/><path d="M767 590 h5 M767 593 h5"/></g><text x="782" y="597" font-family="DejaVu Sans Mono" font-size="11" fill="#B6C3D8" font-weight="600" text-anchor="start">13-nav-ia.svg</text><rect x="880.4" y="576" width="179.6" height="32" rx="8" ry="8" fill="#0E1626" stroke="#25324B" stroke-width="1"/><g fill="none" stroke="#93B7FF" stroke-width="1.4" stroke-linecap="round" stroke-linejoin="round"><rect x="892.4" y="585" width="11" height="14" rx="1.6"/><path d="M895.4 590 h5 M895.4 593 h5"/></g><text x="910.4" y="597" font-family="DejaVu Sans Mono" font-size="11" fill="#B6C3D8" font-weight="600" text-anchor="start">14-project-tickets.svg</text><rect x="1070.0" y="576" width="186.4" height="32" rx="8" ry="8" fill="#0E1626" stroke="#25324B" stroke-width="1"/><g fill="none" stroke="#A78BFA" stroke-width="1.4" stroke-linecap="round" stroke-linejoin="round"><rect x="1082.0" y="585" width="11" height="14" rx="1.6"/><path d="M1085.0 590 h5 M1085.0 593 h5"/></g><text x="1100.0" y="597" font-family="DejaVu Sans Mono" font-size="11" fill="#B6C3D8" font-weight="600" text-anchor="start">04-epics-and-stories.md</text><text x="752" y="624" font-family="DejaVu Sans" font-size="11" fill="#7E8CA6" font-weight="700" text-anchor="start" letter-spacing="0.8">LINKED</text><rect x="752" y="638" width="317.0" height="40" rx="9" ry="9" fill="#0E1626" stroke="#25324B" stroke-width="1"/><g fill="none" stroke="#93B7FF" stroke-width="1.6" stroke-linecap="round" stroke-linejoin="round"><path d="M766 658 h3 l2 -5 l3 10 l2 -5 h3"/></g><text x="790" y="656" font-family="DejaVu Sans Mono" font-size="11.5" fill="#E8EEF9" font-weight="600" text-anchor="start">run-2291-a · succeeded</text><text x="790" y="669" font-family="DejaVu Sans" font-size="9.5" fill="#586581" font-weight="400" text-anchor="start">→ Runs (8.2)</text><rect x="1083.0" y="638" width="317.0" height="40" rx="9" ry="9" fill="#0E1626" stroke="#25324B" stroke-width="1"/><g fill="none" stroke="#93B7FF" stroke-width="1.6" stroke-linecap="round" stroke-linejoin="round"><path d="M1105.0 651 l7 4 v6 l-7 4 l-7 -4 v-6 z"/><path d="M1098.0 655 l7 4 l7 -4"/><path d="M1105.0 659 v6.5"/></g><text x="1121.0" y="656" font-family="DejaVu Sans Mono" font-size="11.5" fill="#E8EEF9" font-weight="600" text-anchor="start">build-2291 · published</text><text x="1121.0" y="669" font-family="DejaVu Sans" font-size="9.5" fill="#586581" font-weight="400" text-anchor="start">→ Build outputs (8.7)</text><rect x="742" y="706" width="668" height="1" rx="0" ry="0" fill="#1A2438" stroke="none" stroke-width="1"/><text x="752" y="726" font-family="DejaVu Sans" font-size="10.5" fill="#586581" font-weight="400" text-anchor="start">Read + navigate — compose / edit lives in Compose (8.5); claim &amp; coordination stay server-side (R6).</text></svg>