<svg xmlns="http://www.w3.org/2000/svg" width="1440" height="900" viewBox="0 0 1440 900" font-family="DejaVu Sans"><rect x="0" y="0" width="1440" height="900" rx="0" ry="0" fill="#F6F8FC" stroke="none" stroke-width="1"/><rect x="0" y="0" width="236" height="900" rx="0" ry="0" fill="#EEF2F8" stroke="none" stroke-width="1"/><rect x="235" y="0" width="1" height="900" rx="0" ry="0" fill="#D4DCEA" stroke="none" stroke-width="1"/><line x1="40" y1="264" x2="40" y2="388" stroke="#D4DCEA" stroke-width="1.4"/><line x1="40" y1="388" x2="48" y2="388" stroke="#D4DCEA" stroke-width="1.4"/><line x1="40" y1="356" x2="48" y2="356" stroke="#D4DCEA" stroke-width="1.4"/><line x1="40" y1="324" x2="48" y2="324" stroke="#D4DCEA" stroke-width="1.4"/><line x1="40" y1="292" x2="48" y2="292" stroke="#D4DCEA" stroke-width="1.4"/><g transform="translate(30,34) scale(0.33735) translate(-50,-50)"><rect x="29" y="45" width="42" height="42" rx="13" fill="none" stroke="#3D7DFF" stroke-width="9"/><rect x="29" y="13" width="42" height="42" rx="13" fill="none" stroke="#3D7DFF" stroke-width="9"/><rect x="45" y="25.5" width="10" height="10" rx="2.8" fill="#2563EB"/><rect x="45" y="64.5" width="10" height="10" rx="2.8" fill="#2563EB"/><rect x="42.5" y="42.5" width="15" height="15" rx="4.2" fill="#2563EB"/></g><text x="52" y="32" font-family="DejaVu Sans" font-size="17" fill="#0B1220" font-weight="700" text-anchor="start" letter-spacing="0.2">KSquad</text><text x="52" y="46" font-family="DejaVu Sans" font-size="10" fill="#6C7688" font-weight="400" text-anchor="start" letter-spacing="0.4">operator console</text><text x="20" y="82" font-family="DejaVu Sans" font-size="10" fill="#6C7688" font-weight="700" text-anchor="start" letter-spacing="1.6">GLOBAL</text><g fill="none" stroke="#64748B" stroke-width="1.6" stroke-linecap="round" stroke-linejoin="round"><line x1="24" y1="120" x2="24" y2="115"/><line x1="30" y1="120" x2="30" y2="111"/><line x1="36" y1="120" x2="36" y2="114"/><line x1="22" y1="122" x2="38" y2="122"/></g><text x="52" y="119.5" font-family="DejaVu Sans" font-size="13.5" fill="#33415C" font-weight="500" text-anchor="start">Dashboard</text><g fill="none" stroke="#64748B" stroke-width="1.6" stroke-linecap="round" stroke-linejoin="round"><rect x="23" y="144" width="6.4" height="6.4" rx="1.3"/><rect x="30.6" y="144" width="6.4" height="6.4" rx="1.3"/><rect x="23" y="151.6" width="6.4" height="6.4" rx="1.3"/><rect x="30.6" y="151.6" width="6.4" height="6.4" rx="1.3"/></g><text x="52" y="155.5" font-family="DejaVu Sans" font-size="13.5" fill="#33415C" font-weight="500" text-anchor="start">Overview</text><rect x="10" y="172" width="216" height="30" rx="9" ry="9" fill="#E5EDFF" stroke="#3D7DFF44" stroke-width="1"/><rect x="10" y="172" width="3" height="30" rx="2" ry="2" fill="#3D7DFF" stroke="none" stroke-width="1"/><g fill="none" stroke="#2563EB" stroke-width="1.5" stroke-linecap="round" stroke-linejoin="round"><circle cx="30" cy="182.5" r="2.3"/><circle cx="24" cy="191" r="2"/><circle cx="36" cy="191" r="2"/><line x1="30" y1="185" x2="25" y2="189"/><line x1="30" y1="185" x2="35" y2="189"/></g><text x="52" y="191.5" font-family="DejaVu Sans" font-size="13.5" fill="#0B1220" font-weight="600" text-anchor="start">Agents</text><rect x="150" y="177" width="66" height="20" rx="10.0" ry="10.0" fill="#F1F5FA" stroke="#D4DCEA" stroke-width="1"/><text x="161" y="191.0" font-family="DejaVu Sans" font-size="9.5" fill="#64748B" font-weight="600" text-anchor="start">filter ▾</text><text x="20" y="212" font-family="DejaVu Sans" font-size="10" fill="#6C7688" font-weight="700" text-anchor="start" letter-spacing="1.6">PROJECT</text><rect x="12" y="230" width="212" height="40" rx="10" ry="10" fill="#E5EDFF" stroke="#3D7DFF66" stroke-width="1"/><rect x="12" y="230" width="3" height="40" rx="2" ry="2" fill="#3D7DFF" stroke="none" stroke-width="1"/><g fill="none" stroke="#2563EB" stroke-width="1.6" stroke-linecap="round" stroke-linejoin="round"><path d="M24 245 h5 l2 2.5 h8 v9.5 a1.4 1.4 0 0 1 -1.4 1.4 h-12.2 a1.4 1.4 0 0 1 -1.4 -1.4 z"/></g><text x="50" y="245" font-family="DejaVu Sans" font-size="13" fill="#0B1220" font-weight="700" text-anchor="start">ksquad-console</text><text x="50" y="260" font-family="DejaVu Sans" font-size="9.5" fill="#6C7688" font-weight="400" text-anchor="start">all projects  ▾</text><path d="M208 246 l4 4 l4 -4" fill="none" stroke="#64748B" stroke-width="1.6" stroke-linecap="round" stroke-linejoin="round"/><g fill="none" stroke="#64748B" stroke-width="1.6" stroke-linecap="round" stroke-linejoin="round"><path d="M54 285 l7 4 v6 l-7 4 l-7 -4 v-6 z"/><path d="M47 289 l7 4 l7 -4"/><path d="M54 293 v6.5"/></g><text x="74" y="296.5" font-family="DejaVu Sans" font-size="12.5" fill="#33415C" font-weight="500" text-anchor="start">Build</text><g fill="none" stroke="#64748B" stroke-width="1.5" stroke-linecap="round" stroke-linejoin="round"><rect x="47" y="317" width="14" height="14" rx="2.5"/><path d="M50 320.8 l1.6 1.6 l3 -3.4"/><line x1="50" y1="327" x2="58.5" y2="327"/></g><text x="74" y="328.5" font-family="DejaVu Sans" font-size="12.5" fill="#33415C" font-weight="500" text-anchor="start">Tickets</text><g fill="none" stroke="#64748B" stroke-width="1.6" stroke-linecap="round" stroke-linejoin="round"><path d="M46 356 h3 l2 -5 l3 10 l2 -5 h3"/></g><text x="74" y="360.5" font-family="DejaVu Sans" font-size="12.5" fill="#33415C" font-weight="500" text-anchor="start">Runs</text><g fill="none" stroke="#64748B" stroke-width="1.5" stroke-linecap="round" stroke-linejoin="round"><path d="M47 382 h14 a1.5 1.5 0 0 1 1.5 1.5 v6 a1.5 1.5 0 0 1 -1.5 1.5 h-8 l-4 3.2 v-3.2 h-2 a1.5 1.5 0 0 1 -1.5 -1.5 v-6 a1.5 1.5 0 0 1 1.5 -1.5 z"/></g><text x="74" y="392.5" font-family="DejaVu Sans" font-size="12.5" fill="#33415C" font-weight="500" text-anchor="start">Discussion</text><text x="20" y="410" font-family="DejaVu Sans" font-size="10" fill="#6C7688" font-weight="700" text-anchor="start" letter-spacing="1.6">SETTINGS</text><g fill="none" stroke="#64748B" stroke-width="1.5" stroke-linecap="round" stroke-linejoin="round"><circle cx="30" cy="443" r="3.4"/><line x1="34.2" y1="443.0" x2="37.2" y2="443.0"/><line x1="32.1" y1="446.6" x2="33.6" y2="449.2"/><line x1="27.9" y1="446.6" x2="26.4" y2="449.2"/><line x1="25.8" y1="443.0" x2="22.8" y2="443.0"/><line x1="27.9" y1="439.4" x2="26.4" y2="436.8"/><line x1="32.1" y1="439.4" x2="33.6" y2="436.8"/></g><text x="52" y="447.5" font-family="DejaVu Sans" font-size="13.5" fill="#33415C" font-weight="500" text-anchor="start">Configuration</text><g fill="none" stroke="#64748B" stroke-width="1.5" stroke-linecap="round" stroke-linejoin="round"><circle cx="26.5" cy="477" r="3.2"/><path d="M28.8 479.3 l6 6 M33 483.5 l1.6 -1.6 M34.8 485.3 l1.6 -1.6"/></g><text x="52" y="483.5" font-family="DejaVu Sans" font-size="13.5" fill="#33415C" font-weight="500" text-anchor="start">Credentials</text><g fill="none" stroke="#64748B" stroke-width="1.5" stroke-linecap="round" stroke-linejoin="round"><circle cx="26" cy="511" r="2.6"/><path d="M21 521 a5 5 0 0 1 10 0"/><circle cx="35.5" cy="512" r="2.1"/><path d="M31.5 520.5 a4.2 4.2 0 0 1 8 0"/></g><text x="52" y="519.5" font-family="DejaVu Sans" font-size="13.5" fill="#33415C" font-weight="500" text-anchor="start">Users &amp; Roles</text><rect x="168" y="505" width="58" height="20" rx="10.0" ry="10.0" fill="#3D7DFF" stroke="#3D7DFF" stroke-width="1"/><text x="179" y="519.0" font-family="DejaVu Sans" font-size="9.5" fill="#fff" font-weight="600" text-anchor="start">admin</text><rect x="16" y="868" width="204" height="24" rx="8" ry="8" fill="#F1F5FA" stroke="#D4DCEA" stroke-width="1"/><circle cx="32" cy="880" r="3" fill="#059669"/><text x="44" y="884" font-family="DejaVu Sans Mono" font-size="10.5" fill="#64748B" font-weight="400" text-anchor="start">prod-euc1 · connected</text><rect x="236" y="0" width="1204" height="60" rx="0" ry="0" fill="#F6F8FC" stroke="none" stroke-width="1"/><rect x="236" y="59" width="1204" height="1" rx="0" ry="0" fill="#D4DCEA" stroke="none" stroke-width="1"/><text x="260" y="30" font-family="DejaVu Sans" font-size="18" fill="#0B1220" font-weight="700" text-anchor="start">Navigation</text><text x="260" y="48" font-family="DejaVu Sans" font-size="11" fill="#64748B" font-weight="400" text-anchor="start">Adaptive rail · access-level aware</text><rect x="1302.0" y="19" width="58.0" height="22" rx="11.0" ry="11.0" fill="#E5EDFF" stroke="#2563EB55" stroke-width="1"/><circle cx="1314.0" cy="30.0" r="3" fill="#3D7DFF"/><text x="1324.0" y="34.0" font-family="DejaVu Sans" font-size="11" fill="#2563EB" font-weight="700" text-anchor="start" letter-spacing="0.4">ADMIN</text><circle cx="1400" cy="30" r="15" fill="#ECF1F8" stroke="#D4DCEA"/><text x="1400" y="34" font-family="DejaVu Sans" font-size="11.5" fill="#2563EB" font-weight="700" text-anchor="middle">PN</text><text x="260" y="96" font-family="DejaVu Sans" font-size="20" fill="#0B1220" font-weight="700" text-anchor="start">Adaptive navigation</text><text x="260" y="116" font-family="DejaVu Sans" font-size="11.5" fill="#64748B" font-weight="400" text-anchor="start">The same console renders a different rail per access level. Items a user cannot act on are removed, not disabled — no dead affordances.</text><rect x="260" y="128" width="1164" height="1" rx="0" ry="0" fill="#D4DCEA" stroke="none" stroke-width="1"/><rect x="260" y="150" width="300" height="600" rx="16" ry="16" fill="#F1F5FA" stroke="#D4DCEA" stroke-width="1"/><text x="282" y="182" font-family="DejaVu Sans" font-size="15" fill="#0B1220" font-weight="700" text-anchor="start">Admin</text><rect x="480.0" y="168" width="58.0" height="22" rx="11.0" ry="11.0" fill="#E5EDFF" stroke="#2563EB55" stroke-width="1"/><circle cx="492.0" cy="179.0" r="3" fill="#3D7DFF"/><text x="502.0" y="183.0" font-family="DejaVu Sans" font-size="11" fill="#2563EB" font-weight="700" text-anchor="start" letter-spacing="0.4">ADMIN</text><text x="282" y="202" font-family="DejaVu Sans" font-size="10.5" fill="#64748B" font-weight="400" text-anchor="start">platform engineer — full fleet</text><rect x="276" y="214" width="268" height="1" rx="0" ry="0" fill="#ECF1F8" stroke="none" stroke-width="1"/><g transform="translate(278,230) scale(0.86)"><rect x="0" y="0" width="236" height="593" rx="0" ry="0" fill="#EEF2F8" stroke="none" stroke-width="1"/><rect x="235" y="0" width="1" height="593" rx="0" ry="0" fill="#D4DCEA" stroke="none" stroke-width="1"/><line x1="40" y1="264" x2="40" y2="388" stroke="#D4DCEA" stroke-width="1.4"/><line x1="40" y1="388" x2="48" y2="388" stroke="#D4DCEA" stroke-width="1.4"/><line x1="40" y1="356" x2="48" y2="356" stroke="#D4DCEA" stroke-width="1.4"/><line x1="40" y1="324" x2="48" y2="324" stroke="#D4DCEA" stroke-width="1.4"/><line x1="40" y1="292" x2="48" y2="292" stroke="#D4DCEA" stroke-width="1.4"/><g transform="translate(30,34) scale(0.33735) translate(-50,-50)"><rect x="29" y="45" width="42" height="42" rx="13" fill="none" stroke="#3D7DFF" stroke-width="9"/><rect x="29" y="13" width="42" height="42" rx="13" fill="none" stroke="#3D7DFF" stroke-width="9"/><rect x="45" y="25.5" width="10" height="10" rx="2.8" fill="#2563EB"/><rect x="45" y="64.5" width="10" height="10" rx="2.8" fill="#2563EB"/><rect x="42.5" y="42.5" width="15" height="15" rx="4.2" fill="#2563EB"/></g><text x="52" y="32" font-family="DejaVu Sans" font-size="17" fill="#0B1220" font-weight="700" text-anchor="start" letter-spacing="0.2">KSquad</text><text x="52" y="46" font-family="DejaVu Sans" font-size="10" fill="#6C7688" font-weight="400" text-anchor="start" letter-spacing="0.4">operator console</text><text x="20" y="82" font-family="DejaVu Sans" font-size="10" fill="#6C7688" font-weight="700" text-anchor="start" letter-spacing="1.6">GLOBAL</text><rect x="10" y="100" width="216" height="30" rx="9" ry="9" fill="#E5EDFF" stroke="#3D7DFF44" stroke-width="1"/><rect x="10" y="100" width="3" height="30" rx="2" ry="2" fill="#3D7DFF" stroke="none" stroke-width="1"/><g fill="none" stroke="#2563EB" stroke-width="1.6" stroke-linecap="round" stroke-linejoin="round"><line x1="24" y1="120" x2="24" y2="115"/><line x1="30" y1="120" x2="30" y2="111"/><line x1="36" y1="120" x2="36" y2="114"/><line x1="22" y1="122" x2="38" y2="122"/></g><text x="52" y="119.5" font-family="DejaVu Sans" font-size="13.5" fill="#0B1220" font-weight="600" text-anchor="start">Dashboard</text><g fill="none" stroke="#64748B" stroke-width="1.6" stroke-linecap="round" stroke-linejoin="round"><rect x="23" y="144" width="6.4" height="6.4" rx="1.3"/><rect x="30.6" y="144" width="6.4" height="6.4" rx="1.3"/><rect x="23" y="151.6" width="6.4" height="6.4" rx="1.3"/><rect x="30.6" y="151.6" width="6.4" height="6.4" rx="1.3"/></g><text x="52" y="155.5" font-family="DejaVu Sans" font-size="13.5" fill="#33415C" font-weight="500" text-anchor="start">Overview</text><g fill="none" stroke="#64748B" stroke-width="1.5" stroke-linecap="round" stroke-linejoin="round"><circle cx="30" cy="182.5" r="2.3"/><circle cx="24" cy="191" r="2"/><circle cx="36" cy="191" r="2"/><line x1="30" y1="185" x2="25" y2="189"/><line x1="30" y1="185" x2="35" y2="189"/></g><text x="52" y="191.5" font-family="DejaVu Sans" font-size="13.5" fill="#33415C" font-weight="500" text-anchor="start">Agents</text><rect x="150" y="177" width="66" height="20" rx="10.0" ry="10.0" fill="#F1F5FA" stroke="#D4DCEA" stroke-width="1"/><text x="161" y="191.0" font-family="DejaVu Sans" font-size="9.5" fill="#64748B" font-weight="600" text-anchor="start">filter ▾</text><text x="20" y="212" font-family="DejaVu Sans" font-size="10" fill="#6C7688" font-weight="700" text-anchor="start" letter-spacing="1.6">PROJECT</text><rect x="12" y="230" width="212" height="40" rx="10" ry="10" fill="#E5EDFF" stroke="#3D7DFF66" stroke-width="1"/><rect x="12" y="230" width="3" height="40" rx="2" ry="2" fill="#3D7DFF" stroke="none" stroke-width="1"/><g fill="none" stroke="#2563EB" stroke-width="1.6" stroke-linecap="round" stroke-linejoin="round"><path d="M24 245 h5 l2 2.5 h8 v9.5 a1.4 1.4 0 0 1 -1.4 1.4 h-12.2 a1.4 1.4 0 0 1 -1.4 -1.4 z"/></g><text x="50" y="245" font-family="DejaVu Sans" font-size="13" fill="#0B1220" font-weight="700" text-anchor="start">ksquad-console</text><text x="50" y="260" font-family="DejaVu Sans" font-size="9.5" fill="#6C7688" font-weight="400" text-anchor="start">all projects  ▾</text><path d="M208 246 l4 4 l4 -4" fill="none" stroke="#64748B" stroke-width="1.6" stroke-linecap="round" stroke-linejoin="round"/><g fill="none" stroke="#64748B" stroke-width="1.6" stroke-linecap="round" stroke-linejoin="round"><path d="M54 285 l7 4 v6 l-7 4 l-7 -4 v-6 z"/><path d="M47 289 l7 4 l7 -4"/><path d="M54 293 v6.5"/></g><text x="74" y="296.5" font-family="DejaVu Sans" font-size="12.5" fill="#33415C" font-weight="500" text-anchor="start">Build</text><g fill="none" stroke="#64748B" stroke-width="1.5" stroke-linecap="round" stroke-linejoin="round"><rect x="47" y="317" width="14" height="14" rx="2.5"/><path d="M50 320.8 l1.6 1.6 l3 -3.4"/><line x1="50" y1="327" x2="58.5" y2="327"/></g><text x="74" y="328.5" font-family="DejaVu Sans" font-size="12.5" fill="#33415C" font-weight="500" text-anchor="start">Tickets</text><g fill="none" stroke="#64748B" stroke-width="1.6" stroke-linecap="round" stroke-linejoin="round"><path d="M46 356 h3 l2 -5 l3 10 l2 -5 h3"/></g><text x="74" y="360.5" font-family="DejaVu Sans" font-size="12.5" fill="#33415C" font-weight="500" text-anchor="start">Runs</text><g fill="none" stroke="#64748B" stroke-width="1.5" stroke-linecap="round" stroke-linejoin="round"><path d="M47 382 h14 a1.5 1.5 0 0 1 1.5 1.5 v6 a1.5 1.5 0 0 1 -1.5 1.5 h-8 l-4 3.2 v-3.2 h-2 a1.5 1.5 0 0 1 -1.5 -1.5 v-6 a1.5 1.5 0 0 1 1.5 -1.5 z"/></g><text x="74" y="392.5" font-family="DejaVu Sans" font-size="12.5" fill="#33415C" font-weight="500" text-anchor="start">Discussion</text><text x="20" y="410" font-family="DejaVu Sans" font-size="10" fill="#6C7688" font-weight="700" text-anchor="start" letter-spacing="1.6">SETTINGS</text><g fill="none" stroke="#64748B" stroke-width="1.5" stroke-linecap="round" stroke-linejoin="round"><circle cx="30" cy="443" r="3.4"/><line x1="34.2" y1="443.0" x2="37.2" y2="443.0"/><line x1="32.1" y1="446.6" x2="33.6" y2="449.2"/><line x1="27.9" y1="446.6" x2="26.4" y2="449.2"/><line x1="25.8" y1="443.0" x2="22.8" y2="443.0"/><line x1="27.9" y1="439.4" x2="26.4" y2="436.8"/><line x1="32.1" y1="439.4" x2="33.6" y2="436.8"/></g><text x="52" y="447.5" font-family="DejaVu Sans" font-size="13.5" fill="#33415C" font-weight="500" text-anchor="start">Configuration</text><g fill="none" stroke="#64748B" stroke-width="1.5" stroke-linecap="round" stroke-linejoin="round"><circle cx="26.5" cy="477" r="3.2"/><path d="M28.8 479.3 l6 6 M33 483.5 l1.6 -1.6 M34.8 485.3 l1.6 -1.6"/></g><text x="52" y="483.5" font-family="DejaVu Sans" font-size="13.5" fill="#33415C" font-weight="500" text-anchor="start">Credentials</text><g fill="none" stroke="#64748B" stroke-width="1.5" stroke-linecap="round" stroke-linejoin="round"><circle cx="26" cy="511" r="2.6"/><path d="M21 521 a5 5 0 0 1 10 0"/><circle cx="35.5" cy="512" r="2.1"/><path d="M31.5 520.5 a4.2 4.2 0 0 1 8 0"/></g><text x="52" y="519.5" font-family="DejaVu Sans" font-size="13.5" fill="#33415C" font-weight="500" text-anchor="start">Users &amp; Roles</text><rect x="168" y="505" width="58" height="20" rx="10.0" ry="10.0" fill="#3D7DFF" stroke="#3D7DFF" stroke-width="1"/><text x="179" y="519.0" font-family="DejaVu Sans" font-size="9.5" fill="#fff" font-weight="600" text-anchor="start">admin</text><rect x="16" y="561" width="204" height="24" rx="8" ry="8" fill="#F1F5FA" stroke="#D4DCEA" stroke-width="1"/><circle cx="32" cy="573" r="3" fill="#059669"/><text x="44" y="577" font-family="DejaVu Sans Mono" font-size="10.5" fill="#64748B" font-weight="400" text-anchor="start">prod-euc1 · connected</text></g><rect x="590" y="150" width="300" height="600" rx="16" ry="16" fill="#F1F5FA" stroke="#D4DCEA" stroke-width="1"/><text x="612" y="182" font-family="DejaVu Sans" font-size="15" fill="#0B1220" font-weight="700" text-anchor="start">Non-admin</text><rect x="788.4" y="168" width="79.6" height="22" rx="11.0" ry="11.0" fill="#E7F6EF" stroke="#05966955" stroke-width="1"/><circle cx="800.4" cy="179.0" r="3" fill="#059669"/><text x="810.4" y="183.0" font-family="DejaVu Sans" font-size="11" fill="#059669" font-weight="700" text-anchor="start" letter-spacing="0.4">OPERATOR</text><text x="612" y="202" font-family="DejaVu Sans" font-size="10.5" fill="#64748B" font-weight="400" text-anchor="start">operator / viewer — scoped</text><rect x="606" y="214" width="268" height="1" rx="0" ry="0" fill="#ECF1F8" stroke="none" stroke-width="1"/><g transform="translate(608,230) scale(0.86)"><rect x="0" y="0" width="236" height="593" rx="0" ry="0" fill="#EEF2F8" stroke="none" stroke-width="1"/><rect x="235" y="0" width="1" height="593" rx="0" ry="0" fill="#D4DCEA" stroke="none" stroke-width="1"/><line x1="40" y1="228" x2="40" y2="352" stroke="#D4DCEA" stroke-width="1.4"/><line x1="40" y1="352" x2="48" y2="352" stroke="#D4DCEA" stroke-width="1.4"/><line x1="40" y1="320" x2="48" y2="320" stroke="#D4DCEA" stroke-width="1.4"/><line x1="40" y1="288" x2="48" y2="288" stroke="#D4DCEA" stroke-width="1.4"/><line x1="40" y1="256" x2="48" y2="256" stroke="#D4DCEA" stroke-width="1.4"/><g transform="translate(30,34) scale(0.33735) translate(-50,-50)"><rect x="29" y="45" width="42" height="42" rx="13" fill="none" stroke="#3D7DFF" stroke-width="9"/><rect x="29" y="13" width="42" height="42" rx="13" fill="none" stroke="#3D7DFF" stroke-width="9"/><rect x="45" y="25.5" width="10" height="10" rx="2.8" fill="#2563EB"/><rect x="45" y="64.5" width="10" height="10" rx="2.8" fill="#2563EB"/><rect x="42.5" y="42.5" width="15" height="15" rx="4.2" fill="#2563EB"/></g><text x="52" y="32" font-family="DejaVu Sans" font-size="17" fill="#0B1220" font-weight="700" text-anchor="start" letter-spacing="0.2">KSquad</text><text x="52" y="46" font-family="DejaVu Sans" font-size="10" fill="#6C7688" font-weight="400" text-anchor="start" letter-spacing="0.4">operator console</text><text x="20" y="82" font-family="DejaVu Sans" font-size="10" fill="#6C7688" font-weight="700" text-anchor="start" letter-spacing="1.6">GLOBAL</text><rect x="10" y="100" width="216" height="30" rx="9" ry="9" fill="#E5EDFF" stroke="#3D7DFF44" stroke-width="1"/><rect x="10" y="100" width="3" height="30" rx="2" ry="2" fill="#3D7DFF" stroke="none" stroke-width="1"/><g fill="none" stroke="#2563EB" stroke-width="1.6" stroke-linecap="round" stroke-linejoin="round"><rect x="23" y="108" width="6.4" height="6.4" rx="1.3"/><rect x="30.6" y="108" width="6.4" height="6.4" rx="1.3"/><rect x="23" y="115.6" width="6.4" height="6.4" rx="1.3"/><rect x="30.6" y="115.6" width="6.4" height="6.4" rx="1.3"/></g><text x="52" y="119.5" font-family="DejaVu Sans" font-size="13.5" fill="#0B1220" font-weight="600" text-anchor="start">Overview</text><g fill="none" stroke="#64748B" stroke-width="1.5" stroke-linecap="round" stroke-linejoin="round"><circle cx="30" cy="146.5" r="2.3"/><circle cx="24" cy="155" r="2"/><circle cx="36" cy="155" r="2"/><line x1="30" y1="149" x2="25" y2="153"/><line x1="30" y1="149" x2="35" y2="153"/></g><text x="52" y="155.5" font-family="DejaVu Sans" font-size="13.5" fill="#33415C" font-weight="500" text-anchor="start">Agents</text><rect x="150" y="141" width="66" height="20" rx="10.0" ry="10.0" fill="#F1F5FA" stroke="#D4DCEA" stroke-width="1"/><text x="161" y="155.0" font-family="DejaVu Sans" font-size="9.5" fill="#64748B" font-weight="600" text-anchor="start">filter ▾</text><text x="20" y="176" font-family="DejaVu Sans" font-size="10" fill="#6C7688" font-weight="700" text-anchor="start" letter-spacing="1.6">PROJECT</text><rect x="12" y="194" width="212" height="40" rx="10" ry="10" fill="#E5EDFF" stroke="#3D7DFF66" stroke-width="1"/><rect x="12" y="194" width="3" height="40" rx="2" ry="2" fill="#3D7DFF" stroke="none" stroke-width="1"/><g fill="none" stroke="#2563EB" stroke-width="1.6" stroke-linecap="round" stroke-linejoin="round"><path d="M24 209 h5 l2 2.5 h8 v9.5 a1.4 1.4 0 0 1 -1.4 1.4 h-12.2 a1.4 1.4 0 0 1 -1.4 -1.4 z"/></g><text x="50" y="209" font-family="DejaVu Sans" font-size="13" fill="#0B1220" font-weight="700" text-anchor="start">ksquad-console</text><text x="50" y="224" font-family="DejaVu Sans" font-size="9.5" fill="#6C7688" font-weight="400" text-anchor="start">2 authorized  ▾</text><path d="M208 210 l4 4 l4 -4" fill="none" stroke="#64748B" stroke-width="1.6" stroke-linecap="round" stroke-linejoin="round"/><g fill="none" stroke="#64748B" stroke-width="1.6" stroke-linecap="round" stroke-linejoin="round"><path d="M54 249 l7 4 v6 l-7 4 l-7 -4 v-6 z"/><path d="M47 253 l7 4 l7 -4"/><path d="M54 257 v6.5"/></g><text x="74" y="260.5" font-family="DejaVu Sans" font-size="12.5" fill="#33415C" font-weight="500" text-anchor="start">Build</text><g fill="none" stroke="#64748B" stroke-width="1.5" stroke-linecap="round" stroke-linejoin="round"><rect x="47" y="281" width="14" height="14" rx="2.5"/><path d="M50 284.8 l1.6 1.6 l3 -3.4"/><line x1="50" y1="291" x2="58.5" y2="291"/></g><text x="74" y="292.5" font-family="DejaVu Sans" font-size="12.5" fill="#33415C" font-weight="500" text-anchor="start">Tickets</text><g fill="none" stroke="#64748B" stroke-width="1.6" stroke-linecap="round" stroke-linejoin="round"><path d="M46 320 h3 l2 -5 l3 10 l2 -5 h3"/></g><text x="74" y="324.5" font-family="DejaVu Sans" font-size="12.5" fill="#33415C" font-weight="500" text-anchor="start">Runs</text><g fill="none" stroke="#64748B" stroke-width="1.5" stroke-linecap="round" stroke-linejoin="round"><path d="M47 346 h14 a1.5 1.5 0 0 1 1.5 1.5 v6 a1.5 1.5 0 0 1 -1.5 1.5 h-8 l-4 3.2 v-3.2 h-2 a1.5 1.5 0 0 1 -1.5 -1.5 v-6 a1.5 1.5 0 0 1 1.5 -1.5 z"/></g><text x="74" y="356.5" font-family="DejaVu Sans" font-size="12.5" fill="#33415C" font-weight="500" text-anchor="start">Discussion</text><text x="20" y="374" font-family="DejaVu Sans" font-size="10" fill="#6C7688" font-weight="700" text-anchor="start" letter-spacing="1.6">SETTINGS</text><g fill="none" stroke="#64748B" stroke-width="1.5" stroke-linecap="round" stroke-linejoin="round"><circle cx="30" cy="407" r="3.4"/><line x1="34.2" y1="407.0" x2="37.2" y2="407.0"/><line x1="32.1" y1="410.6" x2="33.6" y2="413.2"/><line x1="27.9" y1="410.6" x2="26.4" y2="413.2"/><line x1="25.8" y1="407.0" x2="22.8" y2="407.0"/><line x1="27.9" y1="403.4" x2="26.4" y2="400.8"/><line x1="32.1" y1="403.4" x2="33.6" y2="400.8"/></g><text x="52" y="411.5" font-family="DejaVu Sans" font-size="13.5" fill="#33415C" font-weight="500" text-anchor="start">Configuration</text><rect x="140" y="397" width="76" height="20" rx="10.0" ry="10.0" fill="#F1F5FA" stroke="#D4DCEA" stroke-width="1"/><text x="151" y="411.0" font-family="DejaVu Sans" font-size="9" fill="#64748B" font-weight="600" text-anchor="start">read-only</text><g fill="none" stroke="#64748B" stroke-width="1.5" stroke-linecap="round" stroke-linejoin="round"><circle cx="26.5" cy="441" r="3.2"/><path d="M28.8 443.3 l6 6 M33 447.5 l1.6 -1.6 M34.8 449.3 l1.6 -1.6"/></g><text x="52" y="447.5" font-family="DejaVu Sans" font-size="13.5" fill="#33415C" font-weight="500" text-anchor="start">Credentials</text><rect x="140" y="433" width="76" height="20" rx="10.0" ry="10.0" fill="#F1F5FA" stroke="#D4DCEA" stroke-width="1"/><text x="151" y="447.0" font-family="DejaVu Sans" font-size="9" fill="#64748B" font-weight="600" text-anchor="start">read-only</text><rect x="16" y="561" width="204" height="24" rx="8" ry="8" fill="#F1F5FA" stroke="#D4DCEA" stroke-width="1"/><circle cx="32" cy="573" r="3" fill="#059669"/><text x="44" y="577" font-family="DejaVu Sans Mono" font-size="10.5" fill="#64748B" font-weight="400" text-anchor="start">prod-euc1 · connected</text></g><rect x="940" y="150" width="484" height="300" rx="13" ry="13" fill="#FFFFFF" stroke="#D4DCEA" stroke-width="1"/><text x="960" y="180" font-family="DejaVu Sans" font-size="14" fill="#0B1220" font-weight="700" text-anchor="start">What changes for non-admin</text><rect x="956" y="194" width="452" height="1" rx="0" ry="0" fill="#ECF1F8" stroke="none" stroke-width="1"/><rect x="962" y="216" width="20" height="20" rx="6" ry="6" fill="#FCE9EC" stroke="#E11D4855" stroke-width="1"/><text x="972" y="231" font-family="DejaVu Sans" font-size="13" fill="#E11D48" font-weight="700" text-anchor="middle">−</text><text x="992" y="231" font-family="DejaVu Sans" font-size="11.5" fill="#33415C" font-weight="400" text-anchor="start">Dashboard (fleet-wide) — hidden</text><rect x="962" y="250" width="20" height="20" rx="6" ry="6" fill="#FCE9EC" stroke="#E11D4855" stroke-width="1"/><text x="972" y="265" font-family="DejaVu Sans" font-size="13" fill="#E11D48" font-weight="700" text-anchor="middle">−</text><text x="992" y="265" font-family="DejaVu Sans" font-size="11.5" fill="#33415C" font-weight="400" text-anchor="start">Users &amp; Roles — hidden (admin only)</text><rect x="962" y="284" width="20" height="20" rx="6" ry="6" fill="#FCF3E2" stroke="#B4530955" stroke-width="1"/><text x="972" y="299" font-family="DejaVu Sans" font-size="13" fill="#B45309" font-weight="700" text-anchor="middle">~</text><text x="992" y="299" font-family="DejaVu Sans" font-size="11.5" fill="#33415C" font-weight="400" text-anchor="start">Project selector — authorized projects only</text><rect x="962" y="318" width="20" height="20" rx="6" ry="6" fill="#FCF3E2" stroke="#B4530955" stroke-width="1"/><text x="972" y="333" font-family="DejaVu Sans" font-size="13" fill="#B45309" font-weight="700" text-anchor="middle">~</text><text x="992" y="333" font-family="DejaVu Sans" font-size="11.5" fill="#33415C" font-weight="400" text-anchor="start">Configuration &amp; Credentials — read-only</text><rect x="962" y="352" width="20" height="20" rx="6" ry="6" fill="#E7F6EF" stroke="#05966955" stroke-width="1"/><text x="972" y="367" font-family="DejaVu Sans" font-size="13" fill="#059669" font-weight="700" text-anchor="middle">+</text><text x="992" y="367" font-family="DejaVu Sans" font-size="11.5" fill="#33415C" font-weight="400" text-anchor="start">Overview · Agents · Build · Tickets · Runs · Discussion — kept, scoped</text><rect x="940" y="470" width="484" height="230" rx="13" ry="13" fill="#F1F5FA" stroke="#3D7DFF44" stroke-width="1"/><rect x="940" y="470" width="3" height="230" rx="2" ry="2" fill="#3D7DFF" stroke="none" stroke-width="1"/><g fill="none" stroke="#2563EB" stroke-width="1.5" stroke-linecap="round" stroke-linejoin="round"><rect x="960" y="497" width="12" height="9" rx="2"/><path d="M962.5 497 v-2.5 a3.5 3.5 0 0 1 7 0 v2.5"/><circle cx="966" cy="501.5" r="1.1" fill="#2563EB" stroke="none"/></g><text x="984" y="502" font-family="DejaVu Sans" font-size="13.5" fill="#0B1220" font-weight="700" text-anchor="start">Project selector — authorized only</text><text x="960" y="526" font-family="DejaVu Sans" font-size="11" fill="#64748B" font-weight="400" text-anchor="start">A non-admin never sees projects they lack membership for. The</text><text x="960" y="542" font-family="DejaVu Sans" font-size="11" fill="#64748B" font-weight="400" text-anchor="start">selector lists only granted projects; unknown project_id → 404.</text><rect x="960" y="558" width="444" height="40" rx="10" ry="10" fill="#E5EDFF" stroke="#3D7DFF66" stroke-width="1"/><g fill="none" stroke="#2563EB" stroke-width="1.6" stroke-linecap="round" stroke-linejoin="round"><path d="M974 573 h5 l2 2.5 h8 v9.5 a1.4 1.4 0 0 1 -1.4 1.4 h-12.2 a1.4 1.4 0 0 1 -1.4 -1.4 z"/></g><text x="1000" y="583" font-family="DejaVu Sans" font-size="13" fill="#0B1220" font-weight="700" text-anchor="start">ksquad-console</text><rect x="1276" y="567" width="112" height="22" rx="11.0" ry="11.0" fill="#F1F5FA" stroke="#D4DCEA" stroke-width="1"/><text x="1287" y="582.0" font-family="DejaVu Sans" font-size="10" fill="#64748B" font-weight="600" text-anchor="start">2 authorized ▾</text><g fill="none" stroke="#0B1220" stroke-width="1.6" stroke-linecap="round" stroke-linejoin="round"><path d="M974 613 h5 l2 2.5 h8 v9.5 a1.4 1.4 0 0 1 -1.4 1.4 h-12.2 a1.4 1.4 0 0 1 -1.4 -1.4 z"/></g><text x="1000" y="622" font-family="DejaVu Sans Mono" font-size="12" fill="#0B1220" font-weight="600" text-anchor="start">ksquad-console</text><path d="M1374 617 l3 3 l6 -7" fill="none" stroke="#059669" stroke-width="1.8" stroke-linecap="round" stroke-linejoin="round"/><g fill="none" stroke="#0B1220" stroke-width="1.6" stroke-linecap="round" stroke-linejoin="round"><path d="M974 639 h5 l2 2.5 h8 v9.5 a1.4 1.4 0 0 1 -1.4 1.4 h-12.2 a1.4 1.4 0 0 1 -1.4 -1.4 z"/></g><text x="1000" y="648" font-family="DejaVu Sans Mono" font-size="12" fill="#0B1220" font-weight="600" text-anchor="start">billing-svc</text><path d="M1374 643 l3 3 l6 -7" fill="none" stroke="#059669" stroke-width="1.8" stroke-linecap="round" stroke-linejoin="round"/><g fill="none" stroke="#6C7688" stroke-width="1.6" stroke-linecap="round" stroke-linejoin="round"><path d="M974 665 h5 l2 2.5 h8 v9.5 a1.4 1.4 0 0 1 -1.4 1.4 h-12.2 a1.4 1.4 0 0 1 -1.4 -1.4 z"/></g><text x="1000" y="674" font-family="DejaVu Sans Mono" font-size="12" fill="#6C7688" font-weight="400" text-anchor="start">data-pipeline</text><g fill="none" stroke="#6C7688" stroke-width="1.5" stroke-linecap="round" stroke-linejoin="round"><rect x="1372" y="669" width="12" height="9" rx="2"/><path d="M1374.5 669 v-2.5 a3.5 3.5 0 0 1 7 0 v2.5"/><circle cx="1378" cy="673.5" r="1.1" fill="#6C7688" stroke="none"/></g><text x="1360" y="674" font-family="DejaVu Sans" font-size="9.5" fill="#6C7688" font-weight="400" text-anchor="end">no access</text><text x="260" y="884" font-family="DejaVu Sans" font-size="10.5" fill="#6C7688" font-weight="400" text-anchor="start">Enforcement is server-side (BFF authz + K8s RBAC); the rail difference is presentation of the same authorization. Realizes rbac-nav-ia-revision.md §4.</text></svg>