<svg xmlns="http://www.w3.org/2000/svg" width="1440" height="900" viewBox="0 0 1440 900" font-family="DejaVu Sans"><defs><linearGradient id="ringTop" x1="0" y1="0" x2="0" y2="1"><stop offset="0" stop-color="#93B7FF"/><stop offset="1" stop-color="#3D7DFF"/></linearGradient><linearGradient id="ringBot" x1="0" y1="0" x2="0" y2="1"><stop offset="0" stop-color="#3D7DFF"/><stop offset="1" stop-color="#2E4E8C"/></linearGradient></defs><rect x="0" y="0" width="1440" height="900" rx="0" ry="0" fill="#0B1220" stroke="none" stroke-width="1"/><rect x="0" y="0" width="236" height="900" rx="0" ry="0" fill="#0D1728" stroke="none" stroke-width="1"/><rect x="235" y="0" width="1" height="900" rx="0" ry="0" fill="#25324B" stroke="none" stroke-width="1"/><line x1="40" y1="170" x2="40" y2="294" stroke="#25324B" stroke-width="1.4"/><line x1="40" y1="294" x2="48" y2="294" stroke="#25324B" stroke-width="1.4"/><line x1="40" y1="262" x2="48" y2="262" stroke="#25324B" stroke-width="1.4"/><line x1="40" y1="230" x2="48" y2="230" stroke="#25324B" stroke-width="1.4"/><line x1="40" y1="198" x2="48" y2="198" stroke="#25324B" stroke-width="1.4"/><g transform="translate(30,34) scale(0.33735) translate(-50,-50)"><rect x="29" y="45" width="42" height="42" rx="13" fill="none" stroke="url(#ringBot)" stroke-width="9"/><rect x="29" y="13" width="42" height="42" rx="13" fill="none" stroke="url(#ringTop)" stroke-width="9"/><rect x="41" y="41" width="18" height="18" rx="5" fill="#93B7FF"/><rect x="44.5" y="9.5" width="11" height="11" rx="3" fill="#93B7FF"/><rect x="44.5" y="79.5" width="11" height="11" rx="3" fill="#2E4E8C"/></g><text x="52" y="32" font-family="DejaVu Sans" font-size="17" fill="#E8EEF9" font-weight="700" text-anchor="start" letter-spacing="0.2">K<tspan fill="#3D7DFF">8</tspan>squad</text><text x="52" y="46" font-family="DejaVu Sans" font-size="10" fill="#586581" font-weight="400" text-anchor="start" letter-spacing="0.4">operator console</text><g fill="none" stroke="#7E8CA6" stroke-width="1.5" stroke-linecap="round" stroke-linejoin="round"><rect x="22" y="87" width="16" height="12" rx="2"/><path d="M22 88.5 l8 5.5 l8 -5.5"/></g><text x="52" y="97.5" font-family="DejaVu Sans" font-size="13.5" fill="#B6C3D8" font-weight="500" text-anchor="start">Mailbox</text><rect x="192" y="82" width="24" height="20" rx="10" ry="10" fill="#FB7185" stroke="none" stroke-width="1"/><text x="204" y="96" font-family="DejaVu Sans" font-size="11.5" fill="#fff" font-weight="700" text-anchor="middle">3</text><text x="20" y="118" font-family="DejaVu Sans" font-size="10" fill="#586581" font-weight="700" text-anchor="start" letter-spacing="1.6">PROJECT</text><rect x="12" y="136" width="212" height="40" rx="10" ry="10" fill="#16244A" stroke="#3D7DFF66" stroke-width="1"/><rect x="12" y="136" width="3" height="40" rx="2" ry="2" fill="#3D7DFF" stroke="none" stroke-width="1"/><g fill="none" stroke="#93B7FF" stroke-width="1.6" stroke-linecap="round" stroke-linejoin="round"><path d="M24 151 h5 l2 2.5 h8 v9.5 a1.4 1.4 0 0 1 -1.4 1.4 h-12.2 a1.4 1.4 0 0 1 -1.4 -1.4 z"/></g><text x="50" y="151" font-family="DejaVu Sans" font-size="13" fill="#E8EEF9" font-weight="700" text-anchor="start">ksquad-console</text><text x="50" y="166" font-family="DejaVu Sans" font-size="9.5" fill="#586581" font-weight="400" text-anchor="start">→ project dashboard · switch ▾</text><path d="M208 152 l4 4 l4 -4" fill="none" stroke="#7E8CA6" stroke-width="1.6" stroke-linecap="round" stroke-linejoin="round"/><g fill="none" stroke="#7E8CA6" stroke-width="1.5" stroke-linecap="round" stroke-linejoin="round"><rect x="47" y="191" width="14" height="14" rx="2.5"/><path d="M50 194.8 l1.6 1.6 l3 -3.4"/><line x1="50" y1="201" x2="58.5" y2="201"/></g><text x="74" y="202.5" font-family="DejaVu Sans" font-size="12.5" fill="#B6C3D8" font-weight="500" text-anchor="start">Issues</text><g fill="none" stroke="#7E8CA6" stroke-width="1.5" stroke-linecap="round" stroke-linejoin="round"><path d="M47 224 h14 a1.5 1.5 0 0 1 1.5 1.5 v6 a1.5 1.5 0 0 1 -1.5 1.5 h-8 l-4 3.2 v-3.2 h-2 a1.5 1.5 0 0 1 -1.5 -1.5 v-6 a1.5 1.5 0 0 1 1.5 -1.5 z"/></g><text x="74" y="234.5" font-family="DejaVu Sans" font-size="12.5" fill="#B6C3D8" font-weight="500" text-anchor="start">Discussion</text><g fill="none" stroke="#7E8CA6" stroke-width="1.5" stroke-linecap="round" stroke-linejoin="round"><rect x="46" y="255" width="16" height="14" rx="2"/><line x1="51.3" y1="255" x2="51.3" y2="269"/><line x1="56.7" y1="255" x2="56.7" y2="269"/><line x1="48.7" y1="259" x2="48.7" y2="263"/><line x1="54" y1="259" x2="54" y2="265.5"/><line x1="59.3" y1="259" x2="59.3" y2="261.5"/></g><text x="74" y="266.5" font-family="DejaVu Sans" font-size="12.5" fill="#B6C3D8" font-weight="500" text-anchor="start">Project Board</text><g fill="none" stroke="#7E8CA6" stroke-width="1.5" stroke-linecap="round" stroke-linejoin="round"><path d="M48 287 h6 l4 4 v9.7 a1.3 1.3 0 0 1 -1.3 1.3 h-8.7 a1.3 1.3 0 0 1 -1.3 -1.3 v-12.4 a1.3 1.3 0 0 1 1.3 -1.3 z"/><path d="M54 287 v4 h4"/><line x1="51" y1="295" x2="57" y2="295"/><line x1="51" y1="298" x2="57" y2="298"/></g><text x="74" y="298.5" font-family="DejaVu Sans" font-size="12.5" fill="#B6C3D8" font-weight="500" text-anchor="start">File Explorer</text><text x="20" y="316" font-family="DejaVu Sans" font-size="10" fill="#586581" font-weight="700" text-anchor="start" letter-spacing="1.6">GLOBAL</text><g fill="none" stroke="#7E8CA6" stroke-width="1.6" stroke-linecap="round" stroke-linejoin="round"><rect x="23" y="342" width="6.4" height="6.4" rx="1.3"/><rect x="30.6" y="342" width="6.4" height="6.4" rx="1.3"/><rect x="23" y="349.6" width="6.4" height="6.4" rx="1.3"/><rect x="30.6" y="349.6" width="6.4" height="6.4" rx="1.3"/></g><text x="52" y="353.5" font-family="DejaVu Sans" font-size="13.5" fill="#B6C3D8" font-weight="500" text-anchor="start">Overview</text><rect x="10" y="370" width="216" height="30" rx="9" ry="9" fill="#16244A" stroke="#3D7DFF44" stroke-width="1"/><rect x="10" y="370" width="3" height="30" rx="2" ry="2" fill="#3D7DFF" stroke="none" stroke-width="1"/><g fill="none" stroke="#93B7FF" stroke-width="1.5" stroke-linecap="round" stroke-linejoin="round"><circle cx="30" cy="380.5" r="2.3"/><circle cx="24" cy="389" r="2"/><circle cx="36" cy="389" r="2"/><line x1="30" y1="383" x2="25" y2="387"/><line x1="30" y1="383" x2="35" y2="387"/></g><text x="52" y="389.5" font-family="DejaVu Sans" font-size="13.5" fill="#E8EEF9" font-weight="600" text-anchor="start">Agents</text><rect x="158" y="375" width="58" height="20" rx="10.0" ry="10.0" fill="#0E1626" stroke="#25324B" stroke-width="1"/><text x="169" y="389.0" font-family="DejaVu Sans" font-size="9.5" fill="#7E8CA6" font-weight="600" text-anchor="start">2 orgs</text><g fill="none" stroke="#7E8CA6" stroke-width="1.5" stroke-linecap="round" stroke-linejoin="round"><circle cx="25.5" cy="418" r="2.4"/><path d="M21.5 427 a4 4 0 0 1 8 0"/><circle cx="34.5" cy="418" r="2.4"/><path d="M30.5 427 a4 4 0 0 1 8 0"/></g><text x="52" y="425.5" font-family="DejaVu Sans" font-size="13.5" fill="#B6C3D8" font-weight="500" text-anchor="start">Teams</text><g fill="none" stroke="#7E8CA6" stroke-width="1.5" stroke-linecap="round" stroke-linejoin="round"><path d="M24 451 h3.6 a2 2 0 1 1 4.8 0 h3.6 v3.6 a2 2 0 1 0 0 4.8 v3.6 h-12 z"/></g><text x="52" y="461.5" font-family="DejaVu Sans" font-size="13.5" fill="#B6C3D8" font-weight="500" text-anchor="start">Skills</text><text x="20" y="482" font-family="DejaVu Sans" font-size="10" fill="#586581" font-weight="700" text-anchor="start" letter-spacing="1.6">SETTINGS</text><g fill="none" stroke="#7E8CA6" stroke-width="1.5" stroke-linecap="round" stroke-linejoin="round"><circle cx="25" cy="520" r="1.4" fill="#7E8CA6"/><path d="M25 516 a6 6 0 0 1 6 6"/><path d="M25 512 a10 10 0 0 1 10 10"/></g><text x="52" y="519.5" font-family="DejaVu Sans" font-size="13.5" fill="#B6C3D8" font-weight="500" text-anchor="start">OpenTelemetry</text><g fill="none" stroke="#7E8CA6" stroke-width="1.5" stroke-linecap="round" stroke-linejoin="round"><circle cx="26.5" cy="549" r="3.2"/><path d="M28.8 551.3 l6 6 M33 555.5 l1.6 -1.6 M34.8 557.3 l1.6 -1.6"/></g><text x="52" y="555.5" font-family="DejaVu Sans" font-size="13.5" fill="#B6C3D8" font-weight="500" text-anchor="start">Credentials</text><g fill="none" stroke="#7E8CA6" stroke-width="1.5" stroke-linecap="round" stroke-linejoin="round"><line x1="27" y1="580" x2="27" y2="583.5"/><line x1="33" y1="580" x2="33" y2="583.5"/><path d="M24 583.5 h12 v2.5 a6 6 0 0 1 -12 0 z"/><line x1="30" y1="591.5" x2="30" y2="594.5"/></g><text x="52" y="591.5" font-family="DejaVu Sans" font-size="13.5" fill="#B6C3D8" font-weight="500" text-anchor="start">Plugins</text><g fill="none" stroke="#7E8CA6" stroke-width="1.5" stroke-linecap="round" stroke-linejoin="round"><circle cx="27.5" cy="619.5" r="2.6"/><path d="M22 629.5 a5.5 5.5 0 0 1 11 0"/><path d="M34.5 617 l3.2 1 v2.6 a3.2 3.2 0 0 1 -3.2 3 a3.2 3.2 0 0 1 -3.2 -3 v-2.6 z"/></g><text x="52" y="627.5" font-family="DejaVu Sans" font-size="13.5" fill="#B6C3D8" font-weight="500" text-anchor="start">Users &amp; Roles</text><rect x="16" y="820" width="204" height="40" rx="9" ry="9" fill="#3D7DFF" stroke="none" stroke-width="1"/><text x="112" y="845" font-family="DejaVu Sans" font-size="13.5" fill="#fff" font-weight="600" text-anchor="middle">+  Compose</text><rect x="16" y="868" width="204" height="24" rx="8" ry="8" fill="#0E1626" stroke="#25324B" stroke-width="1"/><circle cx="32" cy="880" r="3" fill="#34D399"/><text x="44" y="884" font-family="DejaVu Sans Mono" font-size="10.5" fill="#7E8CA6" font-weight="400" text-anchor="start">prod-euc1 · connected</text><rect x="236" y="0" width="1204" height="60" rx="0" ry="0" fill="#0B1220" stroke="none" stroke-width="1"/><rect x="236" y="59" width="1204" height="1" rx="0" ry="0" fill="#25324B" stroke="none" stroke-width="1"/><rect x="260" y="11" width="147.60000000000002" height="28" rx="8" ry="8" fill="#0E1626" stroke="#25324B" stroke-width="1"/><g fill="none" stroke="#93B7FF" stroke-width="1.6" stroke-linecap="round" stroke-linejoin="round"><path d="M267 20 h5 l2 2.5 h8 v9.5 a1.4 1.4 0 0 1 -1.4 1.4 h-12.2 a1.4 1.4 0 0 1 -1.4 -1.4 z"/></g><text x="287" y="29.5" font-family="DejaVu Sans" font-size="12.5" fill="#E8EEF9" font-weight="600" text-anchor="start">ksquad-console</text><path d="M393.6 24 l4 4 l4 -4" fill="none" stroke="#7E8CA6" stroke-width="1.5" stroke-linecap="round" stroke-linejoin="round"/><text x="419.6" y="30" font-family="DejaVu Sans" font-size="15" fill="#586581" font-weight="600" text-anchor="start">›</text><text x="435.6" y="30" font-family="DejaVu Sans" font-size="14" fill="#E8EEF9" font-weight="700" text-anchor="start">Agents</text><text x="260" y="48" font-family="DejaVu Sans" font-size="11" fill="#7E8CA6" font-weight="400" text-anchor="start">Global · dual org views — Role-Based ⇄ Leadership</text><circle cx="1400" cy="30" r="15" fill="#1A2842" stroke="#25324B"/><text x="1400" y="34" font-family="DejaVu Sans" font-size="11.5" fill="#93B7FF" font-weight="700" text-anchor="middle">PN</text><rect x="1283.6" y="15" width="84.4" height="30" rx="8" ry="8" fill="#0E1626" stroke="#25324B" stroke-width="1"/><circle cx="1297.6" cy="30" r="3" fill="#3D7DFF"/><text x="1307.6" y="34" font-family="DejaVu Sans Mono" font-size="12" fill="#B6C3D8" font-weight="400" text-anchor="start">ns: all</text><rect x="1071.6" y="15" width="200" height="30" rx="8" ry="8" fill="#0E1626" stroke="#25324B" stroke-width="1"/><circle cx="1086.6" cy="30" r="4.5" fill="none" stroke="#586581" stroke-width="1.5"/><path d="M1090.1 33.5 l3 3" stroke="#586581" stroke-width="1.5" stroke-linecap="round"/><text x="1101.6" y="34" font-family="DejaVu Sans" font-size="12" fill="#586581" font-weight="400" text-anchor="start">Search tickets, runs, artifacts…</text><rect x="260" y="84" width="324" height="34" rx="10" ry="10" fill="#0E1626" stroke="#25324B" stroke-width="1"/><text x="343.0" y="105" font-family="DejaVu Sans" font-size="12.5" fill="#B6C3D8" font-weight="500" text-anchor="middle">Role-Based Org</text><rect x="422" y="88" width="158" height="26" rx="8" ry="8" fill="#3D7DFF" stroke="none" stroke-width="1"/><text x="501.0" y="105" font-family="DejaVu Sans" font-size="12.5" fill="#fff" font-weight="700" text-anchor="middle">Leadership Org</text><text x="602" y="106" font-family="DejaVu Sans" font-size="11.5" fill="#7E8CA6" font-weight="400" text-anchor="start">same agents · organized two ways</text><circle cx="1000" cy="101" r="4" fill="#34D399"/><circle cx="1000" cy="101" r="4" fill="none" stroke="#34D399" stroke-width="1.5" opacity="0.5"><animate attributeName="r" from="4" to="9" dur="1.6s" repeatCount="indefinite"/><animate attributeName="opacity" from="0.5" to="0" dur="1.6s" repeatCount="indefinite"/></circle><text x="1012" y="105" font-family="DejaVu Sans" font-size="10.5" fill="#34D399" font-weight="700" text-anchor="start" letter-spacing="0.6">LIVE</text><circle cx="1074" cy="101" r="3.6" fill="#34D399"/><text x="1086" y="105" font-family="DejaVu Sans" font-size="11" fill="#B6C3D8" font-weight="500" text-anchor="start">running</text><circle cx="1166" cy="101" r="3.6" fill="#FBBF24"/><text x="1178" y="105" font-family="DejaVu Sans" font-size="11" fill="#B6C3D8" font-weight="500" text-anchor="start">paused</text><circle cx="1258" cy="101" r="3.6" fill="#FB7185"/><text x="1270" y="105" font-family="DejaVu Sans" font-size="11" fill="#B6C3D8" font-weight="500" text-anchor="start">blocked</text><circle cx="1350" cy="101" r="3.6" fill="#64748B"/><text x="1362" y="105" font-family="DejaVu Sans" font-size="11" fill="#B6C3D8" font-weight="500" text-anchor="start">idle</text><text x="260" y="150" font-family="DejaVu Sans" font-size="18" fill="#E8EEF9" font-weight="700" text-anchor="start">Leadership Org</text><text x="410" y="150" font-family="DejaVu Sans" font-size="11.5" fill="#7E8CA6" font-weight="400" text-anchor="start">— chain of command · authority &amp; delegation flow top → down · click any node → agent detail</text><g stroke="#3D7DFF88" stroke-width="1.5" fill="none" stroke-linecap="round"><path d="M838 234 V261.0"/><path d="M470 261.0 H1206"/><path d="M470 261.0 V288"/><path d="M838 261.0 V288"/><path d="M1206 261.0 V288"/></g><g stroke="#3D7DFF88" stroke-width="1.5" fill="none" stroke-linecap="round"><path d="M470 344 V377.0"/><path d="M470 377.0 V410"/></g><g stroke="#3D7DFF88" stroke-width="1.5" fill="none" stroke-linecap="round"><path d="M838 344 V377.0"/><path d="M838 377.0 V410"/></g><g stroke="#3D7DFF88" stroke-width="1.5" fill="none" stroke-linecap="round"><path d="M470 464 V498.0"/><path d="M360 498.0 H560"/><path d="M360 498.0 V532"/><path d="M560 498.0 V532"/></g><g stroke="#3D7DFF88" stroke-width="1.5" fill="none" stroke-linecap="round"><path d="M838 464 V498.0"/><path d="M740 498.0 H1140"/><path d="M740 498.0 V532"/><path d="M940 498.0 V532"/><path d="M1140 498.0 V532"/></g><rect x="262" y="196" width="4" height="20" rx="2" ry="2" fill="#3D7DFF66" stroke="none" stroke-width="1"/><text x="276" y="211" font-family="DejaVu Sans" font-size="10.5" fill="#586581" font-weight="700" text-anchor="start" letter-spacing="0.8">BIGBOSS</text><rect x="262" y="306" width="4" height="20" rx="2" ry="2" fill="#3D7DFF66" stroke="none" stroke-width="1"/><text x="276" y="321" font-family="DejaVu Sans" font-size="10.5" fill="#586581" font-weight="700" text-anchor="start" letter-spacing="0.8">LEADERS</text><rect x="262" y="427" width="4" height="20" rx="2" ry="2" fill="#3D7DFF66" stroke="none" stroke-width="1"/><text x="276" y="442" font-family="DejaVu Sans" font-size="10.5" fill="#586581" font-weight="700" text-anchor="start" letter-spacing="0.8">SQUAD LEADS</text><rect x="262" y="548" width="4" height="20" rx="2" ry="2" fill="#3D7DFF66" stroke="none" stroke-width="1"/><text x="276" y="563" font-family="DejaVu Sans" font-size="10.5" fill="#586581" font-weight="700" text-anchor="start" letter-spacing="0.8">AGENTS</text><rect x="738.0" y="178" width="200" height="56" rx="12" ry="12" fill="#16244A" stroke="#3D7DFF" stroke-width="1"/><rect x="738.0" y="178" width="3" height="56" rx="2" ry="2" fill="#3D7DFF" stroke="none" stroke-width="1"/><text x="754.0" y="201" font-family="DejaVu Sans" font-size="13.5" fill="#E8EEF9" font-weight="700" text-anchor="start">BigBoss</text><text x="754.0" y="218" font-family="DejaVu Sans" font-size="10.5" fill="#7E8CA6" font-weight="400" text-anchor="start">CEO · autonomy owner</text><rect x="375.0" y="288" width="190" height="56" rx="12" ry="12" fill="#131D31" stroke="#25324B" stroke-width="1"/><text x="391.0" y="311" font-family="DejaVu Sans" font-size="13.5" fill="#E8EEF9" font-weight="700" text-anchor="start">Winston</text><text x="391.0" y="328" font-family="DejaVu Sans" font-size="10.5" fill="#7E8CA6" font-weight="400" text-anchor="start">System Architect</text><circle cx="549.0" cy="308" r="4" fill="#34D399"/><circle cx="549.0" cy="308" r="4" fill="none" stroke="#34D399" stroke-width="1.5" opacity="0.5"><animate attributeName="r" from="4" to="9" dur="1.6s" repeatCount="indefinite"/><animate attributeName="opacity" from="0.5" to="0" dur="1.6s" repeatCount="indefinite"/></circle><rect x="743.0" y="288" width="190" height="56" rx="12" ry="12" fill="#131D31" stroke="#25324B" stroke-width="1"/><text x="759.0" y="311" font-family="DejaVu Sans" font-size="13.5" fill="#E8EEF9" font-weight="700" text-anchor="start">John</text><text x="759.0" y="328" font-family="DejaVu Sans" font-size="10.5" fill="#7E8CA6" font-weight="400" text-anchor="start">Product Manager</text><circle cx="917.0" cy="308" r="4" fill="#64748B"/><rect x="1111.0" y="288" width="190" height="56" rx="12" ry="12" fill="#131D31" stroke="#25324B" stroke-width="1"/><text x="1127.0" y="311" font-family="DejaVu Sans" font-size="13.5" fill="#E8EEF9" font-weight="700" text-anchor="start">Scribe</text><text x="1127.0" y="328" font-family="DejaVu Sans" font-size="10.5" fill="#7E8CA6" font-weight="400" text-anchor="start">Story Writer</text><circle cx="1285.0" cy="308" r="4" fill="#64748B"/><rect x="378.0" y="410" width="184" height="54" rx="12" ry="12" fill="#131D31" stroke="#25324B" stroke-width="1"/><text x="394.0" y="433" font-family="DejaVu Sans" font-size="13.5" fill="#E8EEF9" font-weight="700" text-anchor="start">Atlas</text><text x="394.0" y="450" font-family="DejaVu Sans" font-size="10.5" fill="#7E8CA6" font-weight="400" text-anchor="start">Coordinator · payments</text><circle cx="546.0" cy="430" r="4" fill="#34D399"/><circle cx="546.0" cy="430" r="4" fill="none" stroke="#34D399" stroke-width="1.5" opacity="0.5"><animate attributeName="r" from="4" to="9" dur="1.6s" repeatCount="indefinite"/><animate attributeName="opacity" from="0.5" to="0" dur="1.6s" repeatCount="indefinite"/></circle><rect x="746.0" y="410" width="184" height="54" rx="12" ry="12" fill="#131D31" stroke="#25324B" stroke-width="1"/><text x="762.0" y="433" font-family="DejaVu Sans" font-size="13.5" fill="#E8EEF9" font-weight="700" text-anchor="start">Nomad</text><text x="762.0" y="450" font-family="DejaVu Sans" font-size="10.5" fill="#7E8CA6" font-weight="400" text-anchor="start">Coordinator · checkout</text><circle cx="914.0" cy="430" r="4" fill="#64748B"/><rect x="274.0" y="532" width="172" height="52" rx="12" ry="12" fill="#131D31" stroke="#25324B" stroke-width="1"/><text x="290.0" y="555" font-family="DejaVu Sans" font-size="13.5" fill="#E8EEF9" font-weight="700" text-anchor="start">Fixer</text><text x="290.0" y="572" font-family="DejaVu Sans" font-size="10.5" fill="#7E8CA6" font-weight="400" text-anchor="start">Coder</text><circle cx="430.0" cy="552" r="4" fill="#34D399"/><circle cx="430.0" cy="552" r="4" fill="none" stroke="#34D399" stroke-width="1.5" opacity="0.5"><animate attributeName="r" from="4" to="9" dur="1.6s" repeatCount="indefinite"/><animate attributeName="opacity" from="0.5" to="0" dur="1.6s" repeatCount="indefinite"/></circle><rect x="474.0" y="532" width="172" height="52" rx="12" ry="12" fill="#131D31" stroke="#25324B" stroke-width="1"/><text x="490.0" y="555" font-family="DejaVu Sans" font-size="13.5" fill="#E8EEF9" font-weight="700" text-anchor="start">Amelia</text><text x="490.0" y="572" font-family="DejaVu Sans" font-size="10.5" fill="#7E8CA6" font-weight="400" text-anchor="start">Reviewer</text><circle cx="630.0" cy="552" r="4" fill="#34D399"/><circle cx="630.0" cy="552" r="4" fill="none" stroke="#34D399" stroke-width="1.5" opacity="0.5"><animate attributeName="r" from="4" to="9" dur="1.6s" repeatCount="indefinite"/><animate attributeName="opacity" from="0.5" to="0" dur="1.6s" repeatCount="indefinite"/></circle><rect x="654.0" y="532" width="172" height="52" rx="12" ry="12" fill="#131D31" stroke="#25324B" stroke-width="1"/><text x="670.0" y="555" font-family="DejaVu Sans" font-size="13.5" fill="#E8EEF9" font-weight="700" text-anchor="start">Proof</text><text x="670.0" y="572" font-family="DejaVu Sans" font-size="10.5" fill="#7E8CA6" font-weight="400" text-anchor="start">Tester</text><circle cx="810.0" cy="552" r="4" fill="#34D399"/><circle cx="810.0" cy="552" r="4" fill="none" stroke="#34D399" stroke-width="1.5" opacity="0.5"><animate attributeName="r" from="4" to="9" dur="1.6s" repeatCount="indefinite"/><animate attributeName="opacity" from="0.5" to="0" dur="1.6s" repeatCount="indefinite"/></circle><rect x="854.0" y="532" width="172" height="52" rx="12" ry="12" fill="#131D31" stroke="#25324B" stroke-width="1"/><text x="870.0" y="555" font-family="DejaVu Sans" font-size="13.5" fill="#E8EEF9" font-weight="700" text-anchor="start">Forge</text><text x="870.0" y="572" font-family="DejaVu Sans" font-size="10.5" fill="#7E8CA6" font-weight="400" text-anchor="start">Coder</text><circle cx="1010.0" cy="552" r="4" fill="#34D399"/><circle cx="1010.0" cy="552" r="4" fill="none" stroke="#34D399" stroke-width="1.5" opacity="0.5"><animate attributeName="r" from="4" to="9" dur="1.6s" repeatCount="indefinite"/><animate attributeName="opacity" from="0.5" to="0" dur="1.6s" repeatCount="indefinite"/></circle><rect x="1054.0" y="532" width="172" height="52" rx="12" ry="12" fill="#131D31" stroke="#25324B" stroke-width="1"/><text x="1070.0" y="555" font-family="DejaVu Sans" font-size="13.5" fill="#E8EEF9" font-weight="700" text-anchor="start">Verify</text><text x="1070.0" y="572" font-family="DejaVu Sans" font-size="10.5" fill="#7E8CA6" font-weight="400" text-anchor="start">Tester</text><circle cx="1210.0" cy="552" r="4" fill="#FB7185"/><rect x="1006" y="620" width="410" height="128" rx="12" ry="12" fill="#0E1626" stroke="#25324B" stroke-width="1"/><rect x="1006" y="620" width="3" height="128" rx="2" ry="2" fill="#3D7DFF" stroke="none" stroke-width="1"/><text x="1024" y="646" font-family="DejaVu Sans" font-size="12.5" fill="#E8EEF9" font-weight="700" text-anchor="start">Authority / delegation flow</text><text x="1024" y="670" font-family="DejaVu Sans" font-size="10.5" fill="#7E8CA6" font-weight="400" text-anchor="start">BigBoss delegates to Leaders (Architect · PM ·</text><text x="1024" y="688" font-family="DejaVu Sans" font-size="10.5" fill="#7E8CA6" font-weight="400" text-anchor="start">Story Writer); Leaders own squads via a Coordinator;</text><text x="1024" y="706" font-family="DejaVu Sans" font-size="10.5" fill="#7E8CA6" font-weight="400" text-anchor="start">Coordinators direct the coder / reviewer / tester agents.</text><text x="1024" y="724" font-family="DejaVu Sans" font-size="10.5" fill="#7E8CA6" font-weight="400" text-anchor="start">Same agents as the Role-Based view — different lens.</text><text x="260" y="878" font-family="DejaVu Sans" font-size="11" fill="#586581" font-weight="400" text-anchor="start">Source: Team · Agent · Role CRDs (read-only) · reporting edges from Team ownership + coordinator binding.</text></svg>